<?xml version="1.0" encoding="UTF-8" standalone="no"?>
<svg width="1296px" height="828px" viewBox="0 0 1296 828"
 xmlns="http://www.w3.org/2000/svg" xmlns:xlink="http://www.w3.org/1999/xlink" version="1.2" baseProfile="tiny">
<title>Untitled score</title>
<desc>Generated by MuseScore Studio 4.3.2</desc>
<polyline class="StaffLines" fill="none" stroke="#000000" stroke-width="2.73" stroke-linejoin="bevel" points="124,209.6 1134,209.6"/>
<polyline class="StaffLines" fill="none" stroke="#000000" stroke-width="2.73" stroke-linejoin="bevel" points="124,234.4 1134,234.4"/>
<polyline class="StaffLines" fill="none" stroke="#000000" stroke-width="2.73" stroke-linejoin="bevel" points="124,259.2 1134,259.2"/>
<polyline class="StaffLines" fill="none" stroke="#000000" stroke-width="2.73" stroke-linejoin="bevel" points="124,284 1134,284"/>
<polyline class="StaffLines" fill="none" stroke="#000000" stroke-width="2.73" stroke-linejoin="bevel" points="124,308.8 1134,308.8"/>
<polyline class="StaffLines" fill="none" stroke="#000000" stroke-width="2.73" stroke-linejoin="bevel" points="124,468.4 1134,468.4"/>
<polyline class="StaffLines" fill="none" stroke="#000000" stroke-width="2.73" stroke-linejoin="bevel" points="124,505.6 1134,505.6"/>
<polyline class="StaffLines" fill="none" stroke="#000000" stroke-width="2.73" stroke-linejoin="bevel" points="124,542.8 1134,542.8"/>
<polyline class="StaffLines" fill="none" stroke="#000000" stroke-width="2.73" stroke-linejoin="bevel" points="124,580 1134,580"/>
<polyline class="StaffLines" fill="none" stroke="#000000" stroke-width="2.73" stroke-linejoin="bevel" points="124,617.2 1134,617.2"/>
<polyline class="StaffLines" fill="none" stroke="#000000" stroke-width="2.73" stroke-linejoin="bevel" points="124,654.4 1134,654.4"/>
<polyline class="BarLine" fill="none" stroke="#000000" stroke-width="4.46" stroke-linejoin="bevel" points="1108.95,208.236 1108.95,310.164"/>
<polyline class="BarLine" fill="none" stroke="#000000" stroke-width="13.64" stroke-linejoin="bevel" points="1127.18,208.236 1127.18,310.164"/>
<polyline class="BarLine" fill="none" stroke="#000000" stroke-width="4.46" stroke-linejoin="bevel" points="126.232,208.236 126.232,468.4"/>
<polyline class="BarLine" fill="none" stroke="#000000" stroke-width="4.46" stroke-linejoin="bevel" points="1108.95,467.036 1108.95,655.764"/>
<polyline class="BarLine" fill="none" stroke="#000000" stroke-width="13.64" stroke-linejoin="bevel" points="1127.18,467.036 1127.18,655.764"/>
<polyline class="BarLine" fill="none" stroke="#000000" stroke-width="4.46" stroke-linejoin="bevel" points="126.232,467.036 126.232,655.764"/>
<path class="Accidental" transform="matrix(0.992,0,0,0.992,523.727,222)" d="M12,-15.5 C7,-15.5 4.09375,-12.4063 3.59375,-11.7969 L4,-43.9063 C4,-44.7031 3.40625,-45.2969 2.59375,-45.2969 L1.40625,-45.2969 C0.59375,-45.2969 0,-44.7031 0,-43.9063 L0.5,16.2031 C0.5,17 1.09375,17.5938 1.90625,17.5938 C2.09375,17.5938 2.5,17.5 2.70313,17.4063 C11.2969,13.0938 20.2969,4.90625 20.2969,-5.40625 C20.2969,-10.5938 17.9063,-15.5 12,-15.5 M3.29688,12.7031 L3.59375,-6.79688 C3.79688,-7.70313 5.29688,-10.5938 9.29688,-10.5938 C12.9063,-10.5938 13.2031,-7.20313 13.2031,-5.09375 C13.2031,3.79688 9.90625,7.5 3.29688,12.7031"/>
<path class="Accidental" transform="matrix(0.992,0,0,0.992,498.137,259.2)" d="M12,-15.5 C7,-15.5 4.09375,-12.4063 3.59375,-11.7969 L4,-43.9063 C4,-44.7031 3.40625,-45.2969 2.59375,-45.2969 L1.40625,-45.2969 C0.59375,-45.2969 0,-44.7031 0,-43.9063 L0.5,16.2031 C0.5,17 1.09375,17.5938 1.90625,17.5938 C2.09375,17.5938 2.5,17.5 2.70313,17.4063 C11.2969,13.0938 20.2969,4.90625 20.2969,-5.40625 C20.2969,-10.5938 17.9063,-15.5 12,-15.5 M3.29688,12.7031 L3.59375,-6.79688 C3.79688,-7.70313 5.29688,-10.5938 9.29688,-10.5938 C12.9063,-10.5938 13.2031,-7.20313 13.2031,-5.09375 C13.2031,3.79688 9.90625,7.5 3.29688,12.7031"/>
<path class="Accidental" transform="matrix(0.992,0,0,0.992,511.475,383.2)" d="M23.2969,-10.5 C23.9063,-10.5938 24.4063,-11.2969 24.4063,-11.9063 L24.4063,-17.7969 C24.4063,-18.7969 23.7031,-19.2031 22.7969,-19.2031 L19.5,-18.5 L19.5,-33.4063 L16.7031,-33.4063 L16.7031,-17.9063 L7.79688,-16.0938 L7.79688,-30.2031 L5,-30.2031 L5,-15.5 L1.09375,-14.7031 C0.5,-14.5938 0,-13.9063 0,-13.2969 L0,-7.5 C0,-6.40625 0.796875,-6.09375 1.70313,-6.09375 L5,-6.79688 L5,9.70313 L1.09375,10.5 C0.5,10.5938 0,11.2969 0,11.9063 L0,17.7031 C0,18.7969 0.796875,19.0938 1.70313,19.0938 L5,18.4063 L5,33.2969 L7.79688,33.2969 L7.79688,17.7969 L16.7031,16 L16.7031,30.1094 L19.5,30.1094 L19.5,15.4063 L23.2969,14.7031 C23.9063,14.5938 24.4063,13.9063 24.4063,13.2969 L24.4063,7.40625 C24.4063,6.40625 23.7031,6 22.7969,6 L19.5,6.70313 L19.5,-9.79688 L23.2969,-10.5 M7.79688,-7.40625 L16.7031,-9.20313 L16.7031,7.29688 L7.79688,9.20313 L7.79688,-7.40625 "/>
<path class="Accidental" transform="matrix(0.992,0,0,0.992,727.155,259.2)" d="M16.5938,-18.2969 C16.4063,-18.5 16.0938,-18.5938 15.7031,-18.5938 L15.5,-18.5 C15.5,-18.5 15.4063,-18.5 15.4063,-18.5 L2.79688,-15 L2.79688,-32.5 L0,-32.5 L0,17 C0,18.0938 0.90625,18.2969 1.79688,18.2969 L14.4063,14.7969 L14.4063,32.2969 L17.0938,32.2969 C17.0938,15.7031 17.0938,-0.09375 17.0938,-17.2031 C17.0938,-17.5938 16.9063,-18.0938 16.5938,-18.2969 M2.79688,9.70313 L2.79688,-6.70313 L14.4063,-10 L14.4063,6.5 L2.79688,9.70313 "/>
<path class="Accidental" transform="matrix(0.992,0,0,0.992,749.568,222)" d="M16.5938,-18.2969 C16.4063,-18.5 16.0938,-18.5938 15.7031,-18.5938 L15.5,-18.5 C15.5,-18.5 15.4063,-18.5 15.4063,-18.5 L2.79688,-15 L2.79688,-32.5 L0,-32.5 L0,17 C0,18.0938 0.90625,18.2969 1.79688,18.2969 L14.4063,14.7969 L14.4063,32.2969 L17.0938,32.2969 C17.0938,15.7031 17.0938,-0.09375 17.0938,-17.2031 C17.0938,-17.5938 16.9063,-18.0938 16.5938,-18.2969 M2.79688,9.70313 L2.79688,-6.70313 L14.4063,-10 L14.4063,6.5 L2.79688,9.70313 "/>
<polyline class="LedgerLine" fill="none" stroke="#000000" stroke-width="3.97" stroke-linejoin="bevel" points="764.541,358.4 813.141,358.4"/>
<polyline class="LedgerLine" fill="none" stroke="#000000" stroke-width="3.97" stroke-linejoin="bevel" points="319.215,383.2 367.815,383.2"/>
<polyline class="LedgerLine" fill="none" stroke="#000000" stroke-width="3.97" stroke-linejoin="bevel" points="319.215,358.4 367.815,358.4"/>
<polyline class="LedgerLine" fill="none" stroke="#000000" stroke-width="3.97" stroke-linejoin="bevel" points="319.215,333.6 367.815,333.6"/>
<polyline class="LedgerLine" fill="none" stroke="#000000" stroke-width="3.97" stroke-linejoin="bevel" points="541.878,358.4 590.478,358.4"/>
<polyline class="LedgerLine" fill="none" stroke="#000000" stroke-width="3.97" stroke-linejoin="bevel" points="541.878,333.6 590.478,333.6"/>
<polyline class="LedgerLine" fill="none" stroke="#000000" stroke-width="3.97" stroke-linejoin="bevel" points="541.878,383.2 590.478,383.2"/>
<polyline class="LedgerLine" fill="none" stroke="#000000" stroke-width="3.97" stroke-linejoin="bevel" points="764.541,333.6 813.141,333.6"/>
<polyline class="Stem" fill="none" stroke="#000000" stroke-width="2.48" stroke-linejoin="bevel" points="803.717,366.832 803.717,135.2"/>
<polyline class="Stem" fill="none" stroke="#000000" stroke-width="2.48" stroke-linejoin="bevel" points="358.391,379.232 358.391,135.2"/>
<polyline class="Stem" fill="none" stroke="#000000" stroke-width="2.48" stroke-linejoin="bevel" points="581.054,379.232 581.054,135.2"/>
<path class="Note" transform="matrix(0.992,0,0,0.992,550.062,197.2)" d="M0,4.20313 C0,8.5 3.09375,13.2969 11.2031,13.2969 C21.5938,13.2969 32.5,4.79688 32.5,-4 C32.5,-9.90625 27.5,-13.2031 21.2969,-13.2031 C11.5938,-13.2031 0,-5 0,4.20313"/>
<path class="Note" transform="matrix(0.992,0,0,0.992,327.399,383.2)" d="M0,4.20313 C0,8.5 3.09375,13.2969 11.2031,13.2969 C21.5938,13.2969 32.5,4.79688 32.5,-4 C32.5,-9.90625 27.5,-13.2031 21.2969,-13.2031 C11.5938,-13.2031 0,-5 0,4.20313"/>
<path class="Note" transform="matrix(0.992,0,0,0.992,550.062,222)" d="M0,4.20313 C0,8.5 3.09375,13.2969 11.2031,13.2969 C21.5938,13.2969 32.5,4.79688 32.5,-4 C32.5,-9.90625 27.5,-13.2031 21.2969,-13.2031 C11.5938,-13.2031 0,-5 0,4.20313"/>
<path class="Note" transform="matrix(0.992,0,0,0.992,327.399,271.6)" d="M0,4.20313 C0,8.5 3.09375,13.2969 11.2031,13.2969 C21.5938,13.2969 32.5,4.79688 32.5,-4 C32.5,-9.90625 27.5,-13.2031 21.2969,-13.2031 C11.5938,-13.2031 0,-5 0,4.20313"/>
<path class="Note" transform="matrix(0.992,0,0,0.992,550.062,383.2)" d="M0,4.20313 C0,8.5 3.09375,13.2969 11.2031,13.2969 C21.5938,13.2969 32.5,4.79688 32.5,-4 C32.5,-9.90625 27.5,-13.2031 21.2969,-13.2031 C11.5938,-13.2031 0,-5 0,4.20313"/>
<path class="Note" transform="matrix(0.992,0,0,0.992,550.062,259.2)" d="M0,4.20313 C0,8.5 3.09375,13.2969 11.2031,13.2969 C21.5938,13.2969 32.5,4.79688 32.5,-4 C32.5,-9.90625 27.5,-13.2031 21.2969,-13.2031 C11.5938,-13.2031 0,-5 0,4.20313"/>
<path class="Note" transform="matrix(0.992,0,0,0.992,772.725,370.8)" d="M21.2969,-13.2031 C11.5938,-13.2031 0,-5.09375 0,4.20313 C0,8.5 3.09375,13.2969 11.2031,13.2969 C21.5938,13.2969 32.5,4.79688 32.5,-4 C32.5,-9.90625 27.5,-13.2031 21.2969,-13.2031 M7.5,8.59375 C4.20313,8.59375 3.5,5.90625 3.5,5 C3.5,0.09375 20.2969,-8.5 25,-8.5 C27.4063,-8.5 29,-7.09375 29,-4.90625 C29,0.09375 12.0938,8.59375 7.5,8.59375"/>
<path class="Note" transform="matrix(0.992,0,0,0.992,772.725,296.4)" d="M21.2969,-13.2031 C11.5938,-13.2031 0,-5.09375 0,4.20313 C0,8.5 3.09375,13.2969 11.2031,13.2969 C21.5938,13.2969 32.5,4.79688 32.5,-4 C32.5,-9.90625 27.5,-13.2031 21.2969,-13.2031 M7.5,8.59375 C4.20313,8.59375 3.5,5.90625 3.5,5 C3.5,0.09375 20.2969,-8.5 25,-8.5 C27.4063,-8.5 29,-7.09375 29,-4.90625 C29,0.09375 12.0938,8.59375 7.5,8.59375"/>
<path class="Note" transform="matrix(0.992,0,0,0.992,772.725,259.2)" d="M21.2969,-13.2031 C11.5938,-13.2031 0,-5.09375 0,4.20313 C0,8.5 3.09375,13.2969 11.2031,13.2969 C21.5938,13.2969 32.5,4.79688 32.5,-4 C32.5,-9.90625 27.5,-13.2031 21.2969,-13.2031 M7.5,8.59375 C4.20313,8.59375 3.5,5.90625 3.5,5 C3.5,0.09375 20.2969,-8.5 25,-8.5 C27.4063,-8.5 29,-7.09375 29,-4.90625 C29,0.09375 12.0938,8.59375 7.5,8.59375"/>
<path class="Note" transform="matrix(0.992,0,0,0.992,772.725,222)" d="M21.2969,-13.2031 C11.5938,-13.2031 0,-5.09375 0,4.20313 C0,8.5 3.09375,13.2969 11.2031,13.2969 C21.5938,13.2969 32.5,4.79688 32.5,-4 C32.5,-9.90625 27.5,-13.2031 21.2969,-13.2031 M7.5,8.59375 C4.20313,8.59375 3.5,5.90625 3.5,5 C3.5,0.09375 20.2969,-8.5 25,-8.5 C27.4063,-8.5 29,-7.09375 29,-4.90625 C29,0.09375 12.0938,8.59375 7.5,8.59375"/>
<path class="Note" transform="matrix(0.992,0,0,0.992,772.725,197.2)" d="M21.2969,-13.2031 C11.5938,-13.2031 0,-5.09375 0,4.20313 C0,8.5 3.09375,13.2969 11.2031,13.2969 C21.5938,13.2969 32.5,4.79688 32.5,-4 C32.5,-9.90625 27.5,-13.2031 21.2969,-13.2031 M7.5,8.59375 C4.20313,8.59375 3.5,5.90625 3.5,5 C3.5,0.09375 20.2969,-8.5 25,-8.5 C27.4063,-8.5 29,-7.09375 29,-4.90625 C29,0.09375 12.0938,8.59375 7.5,8.59375"/>
<path class="Note" transform="matrix(0.992,0,0,0.992,327.399,234.4)" d="M0,4.20313 C0,8.5 3.09375,13.2969 11.2031,13.2969 C21.5938,13.2969 32.5,4.79688 32.5,-4 C32.5,-9.90625 27.5,-13.2031 21.2969,-13.2031 C11.5938,-13.2031 0,-5 0,4.20313"/>
<path class="Note" transform="matrix(0.992,0,0,0.992,327.399,197.2)" d="M0,4.20313 C0,8.5 3.09375,13.2969 11.2031,13.2969 C21.5938,13.2969 32.5,4.79688 32.5,-4 C32.5,-9.90625 27.5,-13.2031 21.2969,-13.2031 C11.5938,-13.2031 0,-5 0,4.20313"/>
<path class="Note" fill="#ffffff" fill-rule="evenodd" d="M331.119,487 L360.879,487 L360.879,524.2 L331.119,524.2 L331.119,487 "/>
<path class="Note" d="M345.755,492.757 C343.474,492.757 341.906,493.359 341.052,494.562 C340.198,495.765 339.739,497.372 339.677,499.382 L335.708,499.382 C335.864,492.507 339.198,489.07 345.708,489.07 C348.739,489.07 351.117,489.846 352.841,491.398 C354.565,492.95 355.427,495.085 355.427,497.804 C355.427,500.981 353.942,503.143 350.974,504.288 C352.89,504.955 354.268,505.887 355.107,507.085 C355.945,508.283 356.364,509.913 356.364,511.976 C356.364,515.038 355.383,517.476 353.419,519.288 C351.456,521.101 348.838,522.007 345.567,522.007 C339.026,522.007 335.515,518.575 335.036,511.71 L339.005,511.71 C339.151,513.96 339.763,515.624 340.841,516.703 C341.919,517.781 343.541,518.32 345.708,518.32 C347.771,518.32 349.388,517.765 350.56,516.656 C351.732,515.546 352.317,514.002 352.317,512.023 C352.317,508.21 350.114,506.304 345.708,506.304 L344.036,506.351 L343.536,506.351 L343.536,502.663 C346.39,502.601 348.411,502.257 349.599,501.632 C350.786,501.007 351.38,499.773 351.38,497.929 C351.38,496.335 350.877,495.075 349.872,494.148 C348.867,493.221 347.495,492.757 345.755,492.757"/>
<path class="Note" fill="#ffffff" fill-rule="evenodd" d="M331.119,449.8 L360.879,449.8 L360.879,487 L331.119,487 L331.119,449.8 "/>
<path class="Note" d="M345.755,455.557 C343.474,455.557 341.906,456.159 341.052,457.362 C340.198,458.565 339.739,460.172 339.677,462.182 L335.708,462.182 C335.864,455.307 339.198,451.87 345.708,451.87 C348.739,451.87 351.117,452.646 352.841,454.198 C354.565,455.75 355.427,457.885 355.427,460.604 C355.427,463.781 353.942,465.943 350.974,467.088 C352.89,467.755 354.268,468.687 355.107,469.885 C355.945,471.083 356.364,472.713 356.364,474.776 C356.364,477.838 355.383,480.276 353.419,482.088 C351.456,483.901 348.838,484.807 345.567,484.807 C339.026,484.807 335.515,481.375 335.036,474.51 L339.005,474.51 C339.151,476.76 339.763,478.424 340.841,479.503 C341.919,480.581 343.541,481.12 345.708,481.12 C347.771,481.12 349.388,480.565 350.56,479.456 C351.732,478.346 352.317,476.802 352.317,474.823 C352.317,471.01 350.114,469.104 345.708,469.104 L344.036,469.151 L343.536,469.151 L343.536,465.463 C346.39,465.401 348.411,465.057 349.599,464.432 C350.786,463.807 351.38,462.573 351.38,460.729 C351.38,459.135 350.877,457.875 349.872,456.948 C348.867,456.021 347.495,455.557 345.755,455.557"/>
<path class="Note" fill="#ffffff" fill-rule="evenodd" d="M553.782,635.8 L583.542,635.8 L583.542,673 L553.782,673 L553.782,635.8 "/>
<path class="Note" d="M558.512,648.948 C558.72,641.562 562.231,637.87 569.043,637.87 C572.074,637.87 574.535,638.76 576.426,640.542 C578.317,642.323 579.262,644.63 579.262,647.463 C579.262,651.422 577.012,654.63 572.512,657.088 L568.012,659.51 C566.054,660.562 564.655,661.583 563.817,662.573 C562.978,663.562 562.455,664.734 562.246,666.088 L579.028,666.088 L579.028,669.776 L557.793,669.776 C557.97,666.328 558.673,663.667 559.903,661.792 C561.132,659.917 563.413,658.047 566.746,656.182 L570.887,653.854 C573.762,652.198 575.199,650.094 575.199,647.542 C575.199,645.833 574.601,644.409 573.403,643.268 C572.205,642.128 570.705,641.557 568.903,641.557 C564.913,641.557 562.767,644.021 562.465,648.948 L558.512,648.948 "/>
<path class="Note" fill="#ffffff" fill-rule="evenodd" d="M553.782,524.2 L583.542,524.2 L583.542,561.4 L553.782,561.4 L553.782,524.2 "/>
<path class="Note" d="M568.418,529.957 C566.137,529.957 564.569,530.559 563.715,531.762 C562.861,532.965 562.403,534.572 562.34,536.582 L558.371,536.582 C558.528,529.707 561.861,526.27 568.371,526.27 C571.403,526.27 573.78,527.046 575.504,528.598 C577.228,530.15 578.09,532.285 578.09,535.004 C578.09,538.181 576.606,540.343 573.637,541.488 C575.554,542.155 576.931,543.087 577.77,544.285 C578.608,545.483 579.028,547.113 579.028,549.176 C579.028,552.238 578.046,554.676 576.082,556.488 C574.119,558.301 571.502,559.207 568.231,559.207 C561.689,559.207 558.179,555.775 557.699,548.91 L561.668,548.91 C561.814,551.16 562.426,552.824 563.504,553.903 C564.582,554.981 566.205,555.52 568.371,555.52 C570.434,555.52 572.051,554.965 573.223,553.856 C574.395,552.746 574.981,551.202 574.981,549.223 C574.981,545.41 572.778,543.504 568.371,543.504 L566.699,543.551 L566.199,543.551 L566.199,539.863 C569.054,539.801 571.074,539.457 572.262,538.832 C573.449,538.207 574.043,536.973 574.043,535.129 C574.043,533.535 573.541,532.275 572.535,531.348 C571.53,530.421 570.158,529.957 568.418,529.957"/>
<path class="Note" fill="#ffffff" fill-rule="evenodd" d="M553.782,487 L583.542,487 L583.542,524.2 L553.782,524.2 L553.782,487 "/>
<path class="Note" d="M570.981,513.46 L557.528,513.46 L557.528,509.148 L572.012,489.07 L574.934,489.07 L574.934,509.773 L579.668,509.773 L579.668,513.46 L574.934,513.46 L574.934,520.976 L570.981,520.976 L570.981,513.46 M570.981,509.773 L570.981,495.82 L560.981,509.773 L570.981,509.773 "/>
<path class="Note" fill="#ffffff" fill-rule="evenodd" d="M553.782,449.8 L583.542,449.8 L583.542,487 L553.782,487 L553.782,449.8 "/>
<path class="Note" d="M568.418,455.557 C566.137,455.557 564.569,456.159 563.715,457.362 C562.861,458.565 562.403,460.172 562.34,462.182 L558.371,462.182 C558.528,455.307 561.861,451.87 568.371,451.87 C571.403,451.87 573.78,452.646 575.504,454.198 C577.228,455.75 578.09,457.885 578.09,460.604 C578.09,463.781 576.606,465.943 573.637,467.088 C575.554,467.755 576.931,468.687 577.77,469.885 C578.608,471.083 579.028,472.713 579.028,474.776 C579.028,477.838 578.046,480.276 576.082,482.088 C574.119,483.901 571.502,484.807 568.231,484.807 C561.689,484.807 558.179,481.375 557.699,474.51 L561.668,474.51 C561.814,476.76 562.426,478.424 563.504,479.503 C564.582,480.581 566.205,481.12 568.371,481.12 C570.434,481.12 572.051,480.565 573.223,479.456 C574.395,478.346 574.981,476.802 574.981,474.823 C574.981,471.01 572.778,469.104 568.371,469.104 L566.699,469.151 L566.199,469.151 L566.199,465.463 C569.054,465.401 571.074,465.057 572.262,464.432 C573.449,463.807 574.043,462.573 574.043,460.729 C574.043,459.135 573.541,457.875 572.535,456.948 C571.53,456.021 570.158,455.557 568.418,455.557"/>
<path class="Note" fill="#ffffff" fill-rule="evenodd" d="M776.445,635.8 L806.205,635.8 L806.205,673 L776.445,673 L776.445,635.8 "/>
<path class="Note" d="M791.081,641.557 C788.8,641.557 787.232,642.159 786.378,643.362 C785.524,644.565 785.066,646.172 785.003,648.182 L781.035,648.182 C781.191,641.307 784.524,637.87 791.035,637.87 C794.066,637.87 796.443,638.646 798.167,640.198 C799.891,641.75 800.753,643.885 800.753,646.604 C800.753,649.781 799.269,651.943 796.3,653.088 C798.217,653.755 799.594,654.687 800.433,655.885 C801.272,657.083 801.691,658.713 801.691,660.776 C801.691,663.838 800.709,666.276 798.745,668.088 C796.782,669.901 794.165,670.807 790.894,670.807 C784.352,670.807 780.842,667.375 780.363,660.51 L784.331,660.51 C784.477,662.76 785.089,664.424 786.167,665.503 C787.245,666.581 788.868,667.12 791.035,667.12 C793.097,667.12 794.714,666.565 795.886,665.456 C797.058,664.346 797.644,662.802 797.644,660.823 C797.644,657.01 795.441,655.104 791.035,655.104 L789.363,655.151 L788.863,655.151 L788.863,651.463 C791.717,651.401 793.738,651.057 794.925,650.432 C796.113,649.807 796.706,648.573 796.706,646.729 C796.706,645.135 796.204,643.875 795.199,642.948 C794.193,642.021 792.821,641.557 791.081,641.557"/>
<path class="Note" fill="#ffffff" fill-rule="evenodd" d="M776.445,561.4 L806.205,561.4 L806.205,598.6 L776.445,598.6 L776.445,561.4 "/>
<path class="Note" d="M791.081,567.157 C788.8,567.157 787.232,567.759 786.378,568.962 C785.524,570.165 785.066,571.772 785.003,573.782 L781.035,573.782 C781.191,566.907 784.524,563.47 791.035,563.47 C794.066,563.47 796.443,564.246 798.167,565.798 C799.891,567.35 800.753,569.485 800.753,572.204 C800.753,575.381 799.269,577.543 796.3,578.688 C798.217,579.355 799.594,580.287 800.433,581.485 C801.272,582.683 801.691,584.313 801.691,586.376 C801.691,589.438 800.709,591.876 798.745,593.688 C796.782,595.501 794.165,596.407 790.894,596.407 C784.352,596.407 780.842,592.975 780.363,586.11 L784.331,586.11 C784.477,588.36 785.089,590.024 786.167,591.103 C787.245,592.181 788.868,592.72 791.035,592.72 C793.097,592.72 794.714,592.165 795.886,591.056 C797.058,589.946 797.644,588.402 797.644,586.423 C797.644,582.61 795.441,580.704 791.035,580.704 L789.363,580.751 L788.863,580.751 L788.863,577.063 C791.717,577.001 793.738,576.657 794.925,576.032 C796.113,575.407 796.706,574.173 796.706,572.329 C796.706,570.735 796.204,569.475 795.199,568.548 C794.193,567.621 792.821,567.157 791.081,567.157"/>
<path class="Note" fill="#ffffff" fill-rule="evenodd" d="M776.445,524.2 L806.205,524.2 L806.205,561.4 L776.445,561.4 L776.445,524.2 "/>
<path class="Note" d="M793.644,550.66 L780.191,550.66 L780.191,546.348 L794.675,526.27 L797.597,526.27 L797.597,546.973 L802.331,546.973 L802.331,550.66 L797.597,550.66 L797.597,558.176 L793.644,558.176 L793.644,550.66 M793.644,546.973 L793.644,533.02 L783.644,546.973 L793.644,546.973 "/>
<path class="Note" fill="#ffffff" fill-rule="evenodd" d="M776.445,487 L806.205,487 L806.205,524.2 L776.445,524.2 L776.445,487 "/>
<path class="Note" d="M800.347,489.07 L800.347,492.757 L787.066,492.757 L785.816,501.898 C787.587,500.492 789.55,499.788 791.706,499.788 C794.769,499.788 797.251,500.778 799.152,502.757 C801.053,504.736 802.003,507.315 802.003,510.492 C802.003,513.877 800.985,516.643 798.949,518.788 C796.912,520.934 794.29,522.007 791.081,522.007 C789.842,522.007 788.706,521.872 787.675,521.601 C786.644,521.33 785.79,521.007 785.113,520.632 C784.436,520.257 783.821,519.762 783.269,519.148 C782.717,518.533 782.298,517.994 782.011,517.531 C781.725,517.067 781.454,516.484 781.199,515.781 C780.943,515.078 780.785,514.591 780.722,514.32 C780.66,514.049 780.587,513.658 780.503,513.148 L784.456,513.148 C785.394,516.596 787.571,518.32 790.988,518.32 C793.144,518.32 794.844,517.669 796.089,516.367 C797.334,515.065 797.956,513.283 797.956,511.023 C797.956,508.69 797.326,506.848 796.066,505.499 C794.805,504.15 793.113,503.476 790.988,503.476 C789.759,503.476 788.709,503.679 787.839,504.085 C786.969,504.492 786.066,505.216 785.128,506.257 L781.488,506.257 L783.878,489.07 L800.347,489.07 "/>
<path class="Note" fill="#ffffff" fill-rule="evenodd" d="M776.445,449.8 L806.205,449.8 L806.205,487 L776.445,487 L776.445,449.8 "/>
<path class="Note" d="M791.081,455.557 C788.8,455.557 787.232,456.159 786.378,457.362 C785.524,458.565 785.066,460.172 785.003,462.182 L781.035,462.182 C781.191,455.307 784.524,451.87 791.035,451.87 C794.066,451.87 796.443,452.646 798.167,454.198 C799.891,455.75 800.753,457.885 800.753,460.604 C800.753,463.781 799.269,465.943 796.3,467.088 C798.217,467.755 799.594,468.687 800.433,469.885 C801.272,471.083 801.691,472.713 801.691,474.776 C801.691,477.838 800.709,480.276 798.745,482.088 C796.782,483.901 794.165,484.807 790.894,484.807 C784.352,484.807 780.842,481.375 780.363,474.51 L784.331,474.51 C784.477,476.76 785.089,478.424 786.167,479.503 C787.245,480.581 788.868,481.12 791.035,481.12 C793.097,481.12 794.714,480.565 795.886,479.456 C797.058,478.346 797.644,476.802 797.644,474.823 C797.644,471.01 795.441,469.104 791.035,469.104 L789.363,469.151 L788.863,469.151 L788.863,465.463 C791.717,465.401 793.738,465.057 794.925,464.432 C796.113,463.807 796.706,462.573 796.706,460.729 C796.706,459.135 796.204,457.875 795.199,456.948 C794.193,456.021 792.821,455.557 791.081,455.557"/>
<path class="Note" fill="#ffffff" fill-rule="evenodd" d="M331.119,635.8 L360.879,635.8 L360.879,673 L331.119,673 L331.119,635.8 "/>
<path class="Note" d="M345.255,647.057 L338.192,647.057 L338.192,644.213 C341.245,643.828 343.237,643.289 344.169,642.596 C345.101,641.904 345.911,640.328 346.599,637.87 L349.208,637.87 L349.208,669.776 L345.255,669.776 L345.255,647.057 "/>
<path class="Note" fill="#ffffff" fill-rule="evenodd" d="M331.119,524.2 L360.879,524.2 L360.879,561.4 L331.119,561.4 L331.119,524.2 "/>
<path class="Note" d="M335.849,537.348 C336.057,529.962 339.567,526.27 346.38,526.27 C349.411,526.27 351.872,527.16 353.763,528.942 C355.653,530.723 356.599,533.03 356.599,535.863 C356.599,539.822 354.349,543.03 349.849,545.488 L345.349,547.91 C343.39,548.962 341.992,549.983 341.153,550.973 C340.315,551.962 339.791,553.134 339.583,554.488 L356.364,554.488 L356.364,558.176 L335.13,558.176 C335.307,554.728 336.01,552.067 337.239,550.192 C338.469,548.317 340.75,546.447 344.083,544.582 L348.224,542.254 C351.099,540.598 352.536,538.494 352.536,535.942 C352.536,534.233 351.937,532.809 350.739,531.668 C349.541,530.528 348.041,529.957 346.239,529.957 C342.25,529.957 340.104,532.421 339.802,537.348 L335.849,537.348 "/>
<path class="Clef" transform="matrix(0.992,0,0,0.992,147.064,284)" d="M64,-0.296875 C64,-15.2969 53.2969,-25.5 38.7031,-25.5 C37.7031,-31.5 36.7969,-37.5 35.9063,-43 C46.4063,-54.1094 53.7969,-66.7031 53.7969,-82.5 C53.7969,-91.7031 51,-99 49.2969,-102.609 C46.9063,-107.703 44,-111.313 42.2969,-111.313 C41.6094,-111.313 38.4063,-110 35.2031,-106.109 C28.7031,-98.5 26.9063,-85.8125 26.9063,-77.4063 C26.9063,-72 27.4063,-67.1094 29.1094,-55.7969 C29,-55.7969 23.7969,-50.5 21.7031,-48.7031 C12.5938,-40.2969 0,-28.1094 0,-8.20313 C0,10.5938 16.2969,25.2969 34.9063,25.2969 C37.7969,25.2969 40.5,25 42.9063,24.5938 C44.7031,34.2031 45.9063,41.2031 45.9063,46.5 C45.9063,56.9063 40.5,62.4063 30.5,62.4063 C28,62.4063 25.9063,61.9063 25.7969,61.7969 C25.6094,61.7969 25.4063,61.7031 25.4063,61.6094 C25.4063,61.4063 25.6094,61.2969 25.9063,61.2031 C30.6094,60.5 35.2969,56.5 35.2969,50.1094 C35.2969,44.7031 31.2031,39 23.7031,39 C16.7969,39 12.2969,44.7031 12.2969,51.2969 C12.2969,57.9063 17.2969,66.6094 30.7969,66.6094 C43.7031,66.6094 50,59.2969 50,46.5 C50,42.6094 49.4063,38.1094 48.4063,32.4063 C48.1094,30.4063 47.6094,27.2969 46.9063,23.5 C56.7031,20.2031 64,10.0938 64,-0.296875 M33.2031,-82.2031 C34.2031,-86.2031 38.7031,-96.7031 43.9063,-96.7031 C45.4063,-96.7031 47.9063,-91.9063 47.9063,-84.9063 C47.9063,-74.6094 40.1094,-66.7969 33.2031,-59.9063 C32.6094,-63.9063 32.1094,-67.9063 32.1094,-72 C32.1094,-75.7969 32.5,-79.1094 33.2031,-82.2031 M36.2031,21.2031 C21.9063,21.2031 9.70313,11.2031 9.70313,-3.90625 C9.70313,-16.0938 18.4063,-27 27.1094,-34.7031 C28.7969,-36.1094 30.4063,-37.6094 31.9063,-39 C32.7969,-33.6094 33.6094,-29 34.2031,-24.7969 C25.0938,-22.2031 18.9063,-12.5 18.9063,-3.20313 C18.9063,3.90625 24.4063,13.5 32.4063,13.5 C33.2031,13.5 34.1094,13.0938 34.1094,12.0938 C34.1094,11.2969 33.2031,10.7031 31.9063,9.90625 C28,7.59375 25.7969,4.90625 25.7969,0.09375 C25.7969,-6 30.4063,-10.9063 36.2031,-12.2969 L42,20.5 C40,21 38.2031,21.2031 36.2031,21.2031 M46.2031,19.2969 C44.1094,7.40625 41.4063,-8.5 40.7031,-12.9063 C50.7969,-12.9063 55.1094,-5.90625 56,-1.09375 C56.1094,-0.296875 56.2969,0.796875 56.2969,2 C56.2969,9.20313 53.2969,16.5 46.2031,19.2969 M42.2969,71.7031 C42.2969,68 38.9063,66.4063 35.6094,66.4063 C31.4063,66.4063 27.2969,69 27.2969,73.5 C27.2969,75.4063 28,76.8125 29.5,78.2031 C26.9063,79.2031 24.2031,81.2031 24.2031,84.3125 C24.2031,87.6094 27.2031,89.8125 31.6094,89.8125 C37,89.8125 40.7969,86.8125 40.7969,82.5 C40.7969,80.2031 39.7969,78.3125 38,77 C40.9063,75.7031 42.2969,74.1094 42.2969,71.7031 M36.1094,75.7031 C34.6094,74.9063 34.2031,74.7031 33.9063,74.5 L33.7969,74.4063 C32.2031,73.5 31.7031,72.7969 31.7031,71.6094 C31.7031,69.7969 33.1094,68.5 35.1094,68.5 C37.1094,68.5 38.2031,69.7031 38.2031,71.7969 C38.2031,73.4063 37.6094,74.5 36.1094,75.7031 M32.2969,87.7031 C30.1094,87.7031 28.6094,86.3125 28.6094,84.2031 C28.6094,82.3125 29.5,80.6094 31.2031,79.6094 C31.6094,79.8125 31.7031,79.9063 32,80 C33.2031,80.6094 33.2031,80.6094 33.4063,80.8125 C35.4063,81.9063 36.1094,82.9063 36.1094,84.3125 C36.1094,86.2031 34.5,87.7031 32.2969,87.7031"/>
<path class="Clef" transform="matrix(0.992,0,0,0.992,147.064,561.4)" d="M3.59375,-74.6094 L3.59375,-66.5 L17.2969,-66.5 L17.2969,-29.1094 L26.9063,-29.1094 L26.9063,-66.5 L40.5,-66.5 L40.5,-74.6094 L3.59375,-74.6094 M0,23.0938 L10.0938,23.0938 L13.2969,13.5938 L30.2969,13.5938 L33.4063,23.0938 L43.9063,23.0938 L27.5,-23.2031 L16.5,-23.2031 L0,23.0938 M21.9063,-12.5938 L27.7969,5.59375 L15.9063,5.59375 L21.9063,-12.5938 M27.2969,27.9063 L4.90625,27.9063 L4.90625,74.2969 L26,74.2969 C32.2969,74.2969 37.2969,73.1094 40.7969,67.7031 C42.2031,65.5 42.9063,63 42.9063,60.2969 C42.9063,55.1094 40.7031,51.2969 35.7031,49.4063 C39.7969,47.4063 41.4063,44.7031 41.4063,40 C41.4063,31.6094 35.2031,28 27.2969,27.9063 M24.2031,36 C28,36 32.2031,36.1094 32.2031,41 C32.2031,45.2031 29.1094,46.2031 25.4063,46.2031 L14.0938,46.2031 L14.0938,36 L24.2031,36 M25.5,53.9063 C29.4063,53.9063 33.1094,54.9063 33.1094,59.6094 C33.1094,64.7969 30,66.2031 25.4063,66.2031 L14.0938,66.2031 L14.0938,53.9063 L25.5,53.9063 "/>
<path class="TimeSig" transform="matrix(0.992,0,0,0.992,233.957,234.4)" d="M20.7969,12.7031 L20.7969,20.0938 L12.5,20.0938 C11.7969,20.0938 11.0938,20.7031 11.0938,21.5 L11.0938,23.4063 C11.0938,24.2031 11.7969,24.7969 12.5,24.7969 L42.7969,24.7969 C43.6094,24.7969 44.2031,24.2031 44.2031,23.4063 L44.2031,21.5 C44.2031,20.7031 43.6094,20.0938 42.7969,20.0938 L33.9063,20.0938 L33.9063,12.7031 L42.7969,12.7031 C43.6094,12.7031 44.2031,12 44.2031,11.2031 L44.2031,9.29688 C44.2031,8.59375 43.6094,7.90625 42.7969,7.90625 L33.9063,7.90625 L33.9063,-8 C33.9063,-8.59375 33.6094,-9.09375 33.1094,-9.29688 L31.9063,-9.90625 C31.7031,-10 31.4063,-10.0938 31.2031,-10.0938 C30.9063,-10 30.5,-9.90625 30.2969,-9.70313 L21.2031,-1.40625 C20.9063,-1.09375 20.7969,-0.703125 20.7969,-0.296875 L20.7969,7.90625 L9.29688,7.90625 C9.29688,7.90625 20.4063,-4.09375 32.2031,-19.9063 C32.6094,-20.4063 32.7031,-20.9063 32.7031,-21.2969 C32.7031,-21.7969 32.5,-22.2031 32.4063,-22.2969 L30.2031,-24.5 C30,-24.7031 29.6094,-24.9063 29.2031,-24.9063 C28.6094,-24.9063 15.0938,-24.9063 14.4063,-24.9063 C13.5938,-24.9063 13.0938,-24.2969 13,-23.7031 C13,-23.7031 12.5,-16.2969 9.90625,-8.20313 C7.29688,-0.09375 4.29688,4.90625 1.70313,8.59375 C1.70313,8.59375 1.40625,9.09375 1.40625,9.70313 C1.40625,9.90625 1.40625,10.0938 1.5,10.2969 C1.90625,11 2.5,12.0938 2.5,12.0938 C2.5,12.0938 2.70313,12.7031 3.59375,12.7031 L20.7969,12.7031 "/>
<path class="TimeSig" transform="matrix(0.992,0,0,0.992,233.957,284)" d="M20.7969,12.7031 L20.7969,20.0938 L12.5,20.0938 C11.7969,20.0938 11.0938,20.7031 11.0938,21.5 L11.0938,23.4063 C11.0938,24.2031 11.7969,24.7969 12.5,24.7969 L42.7969,24.7969 C43.6094,24.7969 44.2031,24.2031 44.2031,23.4063 L44.2031,21.5 C44.2031,20.7031 43.6094,20.0938 42.7969,20.0938 L33.9063,20.0938 L33.9063,12.7031 L42.7969,12.7031 C43.6094,12.7031 44.2031,12 44.2031,11.2031 L44.2031,9.29688 C44.2031,8.59375 43.6094,7.90625 42.7969,7.90625 L33.9063,7.90625 L33.9063,-8 C33.9063,-8.59375 33.6094,-9.09375 33.1094,-9.29688 L31.9063,-9.90625 C31.7031,-10 31.4063,-10.0938 31.2031,-10.0938 C30.9063,-10 30.5,-9.90625 30.2969,-9.70313 L21.2031,-1.40625 C20.9063,-1.09375 20.7969,-0.703125 20.7969,-0.296875 L20.7969,7.90625 L9.29688,7.90625 C9.29688,7.90625 20.4063,-4.09375 32.2031,-19.9063 C32.6094,-20.4063 32.7031,-20.9063 32.7031,-21.2969 C32.7031,-21.7969 32.5,-22.2031 32.4063,-22.2969 L30.2031,-24.5 C30,-24.7031 29.6094,-24.9063 29.2031,-24.9063 C28.6094,-24.9063 15.0938,-24.9063 14.4063,-24.9063 C13.5938,-24.9063 13.0938,-24.2969 13,-23.7031 C13,-23.7031 12.5,-16.2969 9.90625,-8.20313 C7.29688,-0.09375 4.29688,4.90625 1.70313,8.59375 C1.70313,8.59375 1.40625,9.09375 1.40625,9.70313 C1.40625,9.90625 1.40625,10.0938 1.5,10.2969 C1.90625,11 2.5,12.0938 2.5,12.0938 C2.5,12.0938 2.70313,12.7031 3.59375,12.7031 L20.7969,12.7031 "/>
<path class="Harmony" d="M357.602,75.6906 L327.852,75.6906 L327.852,78.05 L328.743,78.05 C331.602,78.0969 332.555,78.2531 332.946,78.7531 C333.243,79.1906 333.243,79.3 333.243,81.8469 L333.243,105.644 C333.243,108.206 333.243,108.3 332.946,108.753 C332.555,109.253 331.602,109.456 328.743,109.456 L327.852,109.456 L327.852,111.8 L344.993,111.8 L344.993,109.456 L343.352,109.456 C340.493,109.456 339.555,109.253 339.149,108.753 C338.852,108.3 338.852,108.144 338.852,105.644 L338.852,94.3 L339.852,94.3 C344.993,94.0969 346.852,95.9562 347.055,101.503 L349.399,101.503 L349.399,85.0969 L347.055,85.0969 C346.743,90.0031 344.805,91.8937 340.055,91.9562 L338.852,91.9562 L338.852,80.55 C338.805,78.4406 339.305,78.0969 341.993,78.05 L344.305,78.05 C352.508,78.0031 354.555,79.8469 356.102,88.4562 L358.305,88.4562 L357.602,75.6906 "/>
<path class="Harmony" d="M378.102,86.7531 C378.493,86.6437 378.852,86.2531 378.852,85.8469 L378.852,81.9406 C378.852,81.6906 378.696,81.3937 378.493,81.2531 C378.352,81.0969 378.102,81.0031 377.946,81.0031 C377.899,81.0031 377.805,81.05 377.743,81.05 L375.602,81.5031 L375.602,71.6437 L373.743,71.6437 L373.743,81.8469 L367.852,83.0969 L367.852,73.7531 L365.993,73.7531 L365.993,83.4406 L363.446,84.0031 C363.055,84.0969 362.696,84.5031 362.696,84.8937 L362.696,88.7531 C362.696,89.0031 362.852,89.3 363.055,89.4562 C363.305,89.5969 363.493,89.6437 363.805,89.6437 L365.993,89.2062 L365.993,100.097 L363.446,100.644 C363.055,100.753 362.696,101.144 362.696,101.55 L362.696,105.394 C362.696,105.597 362.852,105.956 363.055,106.097 C363.196,106.206 363.446,106.3 363.602,106.3 L363.649,106.3 C363.696,106.3 363.743,106.3 363.805,106.253 L365.993,105.8 L365.993,115.644 L367.852,115.644 L367.852,105.456 L373.743,104.253 L373.743,113.55 L375.602,113.55 L375.602,103.894 L378.102,103.347 C378.493,103.3 378.852,102.894 378.852,102.503 L378.852,98.5969 C378.852,98.3469 378.696,98.0031 378.493,97.8469 C378.399,97.7531 378.102,97.6437 377.946,97.6437 C377.899,97.6437 377.805,97.6437 377.743,97.7062 L375.602,98.1437 L375.602,87.2531 L378.102,86.7531 M367.852,88.8 L373.743,87.5969 L373.743,98.5031 L367.852,99.7531 L367.852,88.8 "/>
<path class="Harmony" d="M394.899,88.5031 L386.008,89.05 L386.008,91.2062 L388.055,91.2062 C389.946,91.2531 390.196,91.55 390.196,93.7062 L390.196,108.003 C390.149,108.753 390.102,109.05 389.899,109.3 C389.555,109.753 388.602,109.956 386.446,110.003 L386.258,110.003 L386.258,111.8 L398.852,111.8 L398.852,110.003 L398.649,110.003 C395.352,109.894 394.899,109.644 394.899,107.8 L394.899,98.55 C394.899,94.0969 397.352,90.8 400.602,90.8 C403.446,90.8 404.899,92.8469 404.899,96.8937 L404.899,108.05 C404.852,108.706 404.805,109.05 404.555,109.3 C404.258,109.753 403.258,109.956 401.102,110.003 L400.899,110.003 L400.899,111.8 L413.555,111.8 L413.555,110.003 L413.352,110.003 C410.055,109.894 409.602,109.644 409.602,107.847 L409.602,99.0031 C409.602,94.0031 411.852,90.8 415.352,90.8 C418.211,90.8 419.602,92.9562 419.602,97.4562 L419.602,108.003 C419.555,108.706 419.508,109.05 419.258,109.3 C418.961,109.753 417.961,109.956 415.805,110.003 L415.602,110.003 L415.602,111.8 L428.258,111.8 L428.258,110.003 L428.055,110.003 C424.758,109.894 424.305,109.644 424.305,107.8 L424.305,96.4562 C424.305,93.3469 424.008,92.3 422.711,90.5969 C421.258,88.7531 419.211,87.7531 416.805,87.7531 C413.555,87.7531 411.149,89.3 409.008,92.7531 C408.149,89.7531 405.446,87.7531 402.102,87.7531 C399.055,87.7531 396.852,89.2062 394.899,92.3469 L394.899,88.5031 M451.446,95.7062 C451.446,92.55 450.899,90.9562 449.446,89.7531 C447.805,88.3937 445.352,87.7531 442.149,87.7531 C436.508,87.7531 432.399,90.3937 432.399,94.05 C432.399,95.8937 433.555,97.0969 435.305,97.0969 C436.899,97.0969 438.008,96.05 438.008,94.55 C438.008,93.8937 437.758,93.2062 437.258,92.5031 C436.946,92.1437 436.899,92.05 436.899,91.8 C436.899,90.8 438.899,89.8937 441.305,89.8937 C442.899,89.8937 444.649,90.3937 445.446,91.1437 C446.399,91.9562 446.758,93.1437 446.758,95.3937 L446.758,97.3469 C441.555,98.2531 439.899,98.6437 437.446,99.5969 C433.102,101.206 431.055,103.503 431.055,106.706 C431.055,110.3 433.852,112.55 438.305,112.55 C441.758,112.55 444.852,111.144 447.008,108.597 C447.805,111.144 449.055,112.144 451.399,112.144 C453.649,112.144 456.008,110.706 456.008,109.253 C456.008,108.894 455.805,108.644 455.508,108.644 C455.305,108.644 455.102,108.706 454.758,108.847 C454.055,109.144 453.758,109.206 453.352,109.206 C451.946,109.206 451.446,108.3 451.446,105.753 L451.446,95.7062 M446.758,101.8 C446.758,104.8 446.602,105.503 445.758,106.8 C444.508,108.644 442.258,109.894 440.055,109.894 C437.758,109.894 436.102,108.253 436.102,106.003 C436.102,103.894 437.149,102.394 439.352,101.347 C440.899,100.644 442.852,100.144 446.758,99.5031 L446.758,101.8 M463.852,76.05 C462.258,76.05 460.946,77.3469 460.946,78.9406 C460.946,80.55 462.258,81.8469 463.805,81.8469 C465.446,81.8469 466.758,80.55 466.758,78.9406 C466.758,77.3469 465.446,76.05 463.852,76.05 M466.196,88.5031 L456.446,89.05 L456.446,91.2062 L459.352,91.2062 C461.258,91.2531 461.508,91.55 461.508,93.7062 L461.508,110.644 C461.508,114.706 461.258,116.597 460.555,118.05 C460.055,119.05 458.899,119.8 457.805,119.8 C457.102,119.8 456.555,119.503 456.555,119.144 C456.555,118.956 456.602,118.847 456.805,118.347 C457.055,117.847 457.149,117.503 457.149,117.144 C457.149,115.894 455.946,114.8 454.555,114.8 C452.946,114.8 451.758,116.05 451.758,117.8 C451.758,120.253 454.008,121.894 457.352,121.894 C460.149,121.894 462.696,120.706 464.149,118.644 C465.696,116.456 466.196,113.894 466.196,108.253 L466.196,88.5031 "/>
<path class="Harmony" d="M491.055,94.4562 C490.446,100.3 490.149,102.05 489.258,104.55 C487.946,108.253 485.258,110.394 481.852,110.394 C480.196,110.394 479.102,109.894 479.102,109.144 C479.102,108.956 479.196,108.706 479.399,108.3 C479.946,107.144 480.055,106.8 480.055,106.097 C480.055,104.394 478.805,103.144 477.102,103.144 C475.196,103.144 473.696,104.753 473.696,106.753 C473.696,110.05 477.196,112.55 481.805,112.55 C492.305,112.55 496.508,102.144 496.508,93.0969 C496.508,83.05 491.758,76.5969 484.258,76.5969 C477.805,76.5969 472.805,81.8937 472.805,88.6437 C472.805,94.6437 476.946,99.0031 482.696,99.0031 C486.258,99.0031 488.352,97.8469 491.055,94.4562 M484.446,78.7531 C488.149,78.7531 490.602,82.3937 490.602,88.05 C490.602,90.0969 490.196,91.9562 489.446,93.0969 C488.305,94.8937 486.352,96.0031 484.196,96.0031 C480.399,96.0031 478.258,93.05 478.258,87.7531 C478.258,83.8 479.649,78.7531 484.446,78.7531"/>
</svg>
