<?xml version="1.0" encoding="UTF-8" standalone="no"?>
<svg width="2160px" height="522px" viewBox="0 0 2160 522"
 xmlns="http://www.w3.org/2000/svg" xmlns:xlink="http://www.w3.org/1999/xlink" version="1.2" baseProfile="tiny">
<title>d1-1</title>
<desc>Generated by MuseScore Studio 4.3.2</desc>
<path class="" fill="#ffffff" fill-rule="evenodd" d="M0,0 L2160,0 L2160,522 L0,522 L0,0 "/>
<polyline class="StaffLines" fill="none" stroke="#000000" stroke-width="2.48" stroke-linejoin="bevel" points="124.2,227.88 2034,227.88"/>
<polyline class="StaffLines" fill="none" stroke="#000000" stroke-width="2.48" stroke-linejoin="bevel" points="124.2,252.72 2034,252.72"/>
<polyline class="StaffLines" fill="none" stroke="#000000" stroke-width="2.48" stroke-linejoin="bevel" points="124.2,277.56 2034,277.56"/>
<polyline class="StaffLines" fill="none" stroke="#000000" stroke-width="2.48" stroke-linejoin="bevel" points="124.2,302.4 2034,302.4"/>
<polyline class="StaffLines" fill="none" stroke="#000000" stroke-width="2.48" stroke-linejoin="bevel" points="124.2,327.24 2034,327.24"/>
<polyline class="BarLine" fill="none" stroke="#000000" stroke-width="7.45" stroke-linejoin="bevel" points="1157.77,226.638 1157.77,328.482"/>
<polyline class="BarLine" fill="none" stroke="#000000" stroke-width="7.45" stroke-linejoin="bevel" points="2007.92,226.638 2007.92,328.482"/>
<polyline class="BarLine" fill="none" stroke="#000000" stroke-width="14.90" stroke-linejoin="bevel" points="2026.55,226.638 2026.55,328.482"/>
<path class="Accidental" transform="matrix(0.9936,0,0,0.9936,984.544,376.92)" d="M17.5938,-23 C12.7969,-23 8.90625,-20.2969 6.79688,-17 C6.5,-16.2969 5.79688,-15.5938 5.70313,-15.5938 C5.59375,-15.5938 5.70313,-16.7969 5.70313,-18.9063 C5.70313,-23.7031 5.79688,-34.4063 6.09375,-50.7031 L6.09375,-55.9063 C3.29688,-55.7969 2.20313,-54.9063 0.796875,-53.4063 L0.59375,-25.6094 C0.59375,-7 0.296875,6.5 0.203125,15 C0.09375,24.0938 0,27.7969 0,29 C0,29.2031 0.09375,29.6094 0.203125,29.6094 C0.40625,29.6094 1.5,28.2031 3.70313,25.7031 C5.90625,23.2031 8,20.5 9.5,18.7969 C17.5938,8.29688 22,-1 23.2031,-10 C23.4063,-11.2031 23.4063,-12.5 23.4063,-13.5 C23.4063,-18.7031 22,-23 17.5938,-23 M15,-7.70313 C15,-7.20313 14.9063,-6.79688 14.7969,-6.09375 C14.0938,-1.79688 12.2031,2.70313 8.29688,7.29688 C7.40625,8.29688 6.5,9.79688 5.59375,10.5938 C5.29688,10.9063 5.09375,10.7969 5,10.7969 C4.90625,10.7969 5,10.7969 5,10.2031 L5,-1 C5.09375,-1.79688 5.79688,-3 6.79688,-4.70313 C8.09375,-7 10.2969,-10.9063 12.7969,-10.9063 C14.2969,-10.9063 15,-9.40625 15,-7.70313"/>
<polyline class="LedgerLine" fill="none" stroke="#000000" stroke-width="4.97" stroke-linejoin="bevel" points="1594.02,352.08 1636.64,352.08"/>
<polyline class="LedgerLine" fill="none" stroke="#000000" stroke-width="4.97" stroke-linejoin="bevel" points="1594.02,376.92 1636.64,376.92"/>
<polyline class="LedgerLine" fill="none" stroke="#000000" stroke-width="4.97" stroke-linejoin="bevel" points="1391.42,352.08 1434.04,352.08"/>
<polyline class="LedgerLine" fill="none" stroke="#000000" stroke-width="4.97" stroke-linejoin="bevel" points="1391.42,376.92 1434.04,376.92"/>
<polyline class="LedgerLine" fill="none" stroke="#000000" stroke-width="4.97" stroke-linejoin="bevel" points="878.935,376.92 921.559,376.92"/>
<polyline class="LedgerLine" fill="none" stroke="#000000" stroke-width="4.97" stroke-linejoin="bevel" points="878.935,352.08 921.559,352.08"/>
<polyline class="LedgerLine" fill="none" stroke="#000000" stroke-width="4.97" stroke-linejoin="bevel" points="1391.42,401.76 1434.04,401.76"/>
<polyline class="LedgerLine" fill="none" stroke="#000000" stroke-width="4.97" stroke-linejoin="bevel" points="1188.82,352.08 1231.44,352.08"/>
<polyline class="LedgerLine" fill="none" stroke="#000000" stroke-width="4.97" stroke-linejoin="bevel" points="1014,376.92 1056.63,376.92"/>
<polyline class="LedgerLine" fill="none" stroke="#000000" stroke-width="4.97" stroke-linejoin="bevel" points="1014,352.08 1056.63,352.08"/>
<polyline class="LedgerLine" fill="none" stroke="#000000" stroke-width="4.97" stroke-linejoin="bevel" points="1188.82,376.92 1231.44,376.92"/>
<polyline class="Stem" fill="none" stroke="#000000" stroke-width="4.97" stroke-linejoin="bevel" points="1629.19,372.648 1629.19,190.62"/>
<polyline class="Stem" fill="none" stroke="#000000" stroke-width="4.97" stroke-linejoin="bevel" points="914.107,372.648 914.107,190.62"/>
<polyline class="Stem" fill="none" stroke="#000000" stroke-width="4.97" stroke-linejoin="bevel" points="1223.99,385.068 1223.99,178.2"/>
<polyline class="Stem" fill="none" stroke="#000000" stroke-width="4.97" stroke-linejoin="bevel" points="1426.59,397.488 1426.59,209.25"/>
<polyline class="Stem" fill="none" stroke="#000000" stroke-width="4.97" stroke-linejoin="bevel" points="1049.17,372.648 1049.17,190.62"/>
<polyline class="Stem" fill="none" stroke="#000000" stroke-width="4.97" stroke-linejoin="bevel" points="1804.07,221.124 1804.07,302.4"/>
<path class="Note" transform="matrix(0.9936,0,0,0.9936,883.903,302.4)" d="M10.5938,13.5 C15.0938,13.5 19.7969,11.7031 24.7969,8 C30.2031,3.90625 32.9063,0 32.9063,-4.29688 C32.9063,-10.2969 28.9063,-13.5 20.7031,-13.5 C16.4063,-13.5 11.9063,-11.4063 7.09375,-7 C2.29688,-2.59375 0,1.5 0,5.70313 C0,8.70313 1.20313,10.7031 3.5,11.9063 C5.29688,13 7.59375,13.5 10.5938,13.5"/>
<path class="Note" transform="matrix(0.9936,0,0,0.9936,911.623,252.72)" d="M10.5938,13.5 C15.0938,13.5 19.7969,11.7031 24.7969,8 C30.2031,3.90625 32.9063,0 32.9063,-4.29688 C32.9063,-10.2969 28.9063,-13.5 20.7031,-13.5 C16.4063,-13.5 11.9063,-11.4063 7.09375,-7 C2.29688,-2.59375 0,1.5 0,5.70313 C0,8.70313 1.20313,10.7031 3.5,11.9063 C5.29688,13 7.59375,13.5 10.5938,13.5"/>
<path class="Note" transform="matrix(0.9936,0,0,0.9936,1018.97,376.92)" d="M10.5938,13.5 C15.0938,13.5 19.7969,11.7031 24.7969,8 C30.2031,3.90625 32.9063,0 32.9063,-4.29688 C32.9063,-10.2969 28.9063,-13.5 20.7031,-13.5 C16.4063,-13.5 11.9063,-11.4063 7.09375,-7 C2.29688,-2.59375 0,1.5 0,5.70313 C0,8.70313 1.20313,10.7031 3.5,11.9063 C5.29688,13 7.59375,13.5 10.5938,13.5"/>
<path class="Note" transform="matrix(0.9936,0,0,0.9936,1018.97,265.14)" d="M10.5938,13.5 C15.0938,13.5 19.7969,11.7031 24.7969,8 C30.2031,3.90625 32.9063,0 32.9063,-4.29688 C32.9063,-10.2969 28.9063,-13.5 20.7031,-13.5 C16.4063,-13.5 11.9063,-11.4063 7.09375,-7 C2.29688,-2.59375 0,1.5 0,5.70313 C0,8.70313 1.20313,10.7031 3.5,11.9063 C5.29688,13 7.59375,13.5 10.5938,13.5"/>
<path class="Note" transform="matrix(0.9936,0,0,0.9936,1046.69,252.72)" d="M10.5938,13.5 C15.0938,13.5 19.7969,11.7031 24.7969,8 C30.2031,3.90625 32.9063,0 32.9063,-4.29688 C32.9063,-10.2969 28.9063,-13.5 20.7031,-13.5 C16.4063,-13.5 11.9063,-11.4063 7.09375,-7 C2.29688,-2.59375 0,1.5 0,5.70313 C0,8.70313 1.20313,10.7031 3.5,11.9063 C5.29688,13 7.59375,13.5 10.5938,13.5"/>
<path class="Note" transform="matrix(0.9936,0,0,0.9936,1018.97,314.82)" d="M10.5938,13.5 C15.0938,13.5 19.7969,11.7031 24.7969,8 C30.2031,3.90625 32.9063,0 32.9063,-4.29688 C32.9063,-10.2969 28.9063,-13.5 20.7031,-13.5 C16.4063,-13.5 11.9063,-11.4063 7.09375,-7 C2.29688,-2.59375 0,1.5 0,5.70313 C0,8.70313 1.20313,10.7031 3.5,11.9063 C5.29688,13 7.59375,13.5 10.5938,13.5"/>
<path class="Note" transform="matrix(0.9936,0,0,0.9936,1193.78,389.34)" d="M10.5938,13.5 C15.0938,13.5 19.7969,11.7031 24.7969,8 C30.2031,3.90625 32.9063,0 32.9063,-4.29688 C32.9063,-10.2969 28.9063,-13.5 20.7031,-13.5 C16.4063,-13.5 11.9063,-11.4063 7.09375,-7 C2.29688,-2.59375 0,1.5 0,5.70313 C0,8.70313 1.20313,10.7031 3.5,11.9063 C5.29688,13 7.59375,13.5 10.5938,13.5"/>
<path class="Note" transform="matrix(0.9936,0,0,0.9936,1193.78,314.82)" d="M10.5938,13.5 C15.0938,13.5 19.7969,11.7031 24.7969,8 C30.2031,3.90625 32.9063,0 32.9063,-4.29688 C32.9063,-10.2969 28.9063,-13.5 20.7031,-13.5 C16.4063,-13.5 11.9063,-11.4063 7.09375,-7 C2.29688,-2.59375 0,1.5 0,5.70313 C0,8.70313 1.20313,10.7031 3.5,11.9063 C5.29688,13 7.59375,13.5 10.5938,13.5"/>
<path class="Note" transform="matrix(0.9936,0,0,0.9936,1193.78,277.56)" d="M10.5938,13.5 C15.0938,13.5 19.7969,11.7031 24.7969,8 C30.2031,3.90625 32.9063,0 32.9063,-4.29688 C32.9063,-10.2969 28.9063,-13.5 20.7031,-13.5 C16.4063,-13.5 11.9063,-11.4063 7.09375,-7 C2.29688,-2.59375 0,1.5 0,5.70313 C0,8.70313 1.20313,10.7031 3.5,11.9063 C5.29688,13 7.59375,13.5 10.5938,13.5"/>
<path class="Note" transform="matrix(0.9936,0,0,0.9936,1193.78,240.3)" d="M10.5938,13.5 C15.0938,13.5 19.7969,11.7031 24.7969,8 C30.2031,3.90625 32.9063,0 32.9063,-4.29688 C32.9063,-10.2969 28.9063,-13.5 20.7031,-13.5 C16.4063,-13.5 11.9063,-11.4063 7.09375,-7 C2.29688,-2.59375 0,1.5 0,5.70313 C0,8.70313 1.20313,10.7031 3.5,11.9063 C5.29688,13 7.59375,13.5 10.5938,13.5"/>
<path class="Note" transform="matrix(0.9936,0,0,0.9936,1396.39,401.76)" d="M10.5938,13.5 C15.0938,13.5 19.7969,11.7031 24.7969,8 C30.2031,3.90625 32.9063,0 32.9063,-4.29688 C32.9063,-10.2969 28.9063,-13.5 20.7031,-13.5 C16.4063,-13.5 11.9063,-11.4063 7.09375,-7 C2.29688,-2.59375 0,1.5 0,5.70313 C0,8.70313 1.20313,10.7031 3.5,11.9063 C5.29688,13 7.59375,13.5 10.5938,13.5"/>
<path class="Note" transform="matrix(0.9936,0,0,0.9936,1396.39,339.66)" d="M10.5938,13.5 C15.0938,13.5 19.7969,11.7031 24.7969,8 C30.2031,3.90625 32.9063,0 32.9063,-4.29688 C32.9063,-10.2969 28.9063,-13.5 20.7031,-13.5 C16.4063,-13.5 11.9063,-11.4063 7.09375,-7 C2.29688,-2.59375 0,1.5 0,5.70313 C0,8.70313 1.20313,10.7031 3.5,11.9063 C5.29688,13 7.59375,13.5 10.5938,13.5"/>
<path class="Note" transform="matrix(0.9936,0,0,0.9936,1396.39,289.98)" d="M10.5938,13.5 C15.0938,13.5 19.7969,11.7031 24.7969,8 C30.2031,3.90625 32.9063,0 32.9063,-4.29688 C32.9063,-10.2969 28.9063,-13.5 20.7031,-13.5 C16.4063,-13.5 11.9063,-11.4063 7.09375,-7 C2.29688,-2.59375 0,1.5 0,5.70313 C0,8.70313 1.20313,10.7031 3.5,11.9063 C5.29688,13 7.59375,13.5 10.5938,13.5"/>
<path class="Note" transform="matrix(0.9936,0,0,0.9936,1626.71,302.4)" d="M10.5938,13.5 C15.0938,13.5 19.7969,11.7031 24.7969,8 C30.2031,3.90625 32.9063,0 32.9063,-4.29688 C32.9063,-10.2969 28.9063,-13.5 20.7031,-13.5 C16.4063,-13.5 11.9063,-11.4063 7.09375,-7 C2.29688,-2.59375 0,1.5 0,5.70313 C0,8.70313 1.20313,10.7031 3.5,11.9063 C5.29688,13 7.59375,13.5 10.5938,13.5"/>
<path class="Note" transform="matrix(0.9936,0,0,0.9936,1598.99,376.92)" d="M10.5938,13.5 C15.0938,13.5 19.7969,11.7031 24.7969,8 C30.2031,3.90625 32.9063,0 32.9063,-4.29688 C32.9063,-10.2969 28.9063,-13.5 20.7031,-13.5 C16.4063,-13.5 11.9063,-11.4063 7.09375,-7 C2.29688,-2.59375 0,1.5 0,5.70313 C0,8.70313 1.20313,10.7031 3.5,11.9063 C5.29688,13 7.59375,13.5 10.5938,13.5"/>
<path class="Note" transform="matrix(0.9936,0,0,0.9936,1598.99,302.4)" d="M10.5938,13.5 C15.0938,13.5 19.7969,11.7031 24.7969,8 C30.2031,3.90625 32.9063,0 32.9063,-4.29688 C32.9063,-10.2969 28.9063,-13.5 20.7031,-13.5 C16.4063,-13.5 11.9063,-11.4063 7.09375,-7 C2.29688,-2.59375 0,1.5 0,5.70313 C0,8.70313 1.20313,10.7031 3.5,11.9063 C5.29688,13 7.59375,13.5 10.5938,13.5"/>
<path class="Note" transform="matrix(0.9936,0,0,0.9936,1598.99,252.72)" d="M10.5938,13.5 C15.0938,13.5 19.7969,11.7031 24.7969,8 C30.2031,3.90625 32.9063,0 32.9063,-4.29688 C32.9063,-10.2969 28.9063,-13.5 20.7031,-13.5 C16.4063,-13.5 11.9063,-11.4063 7.09375,-7 C2.29688,-2.59375 0,1.5 0,5.70313 C0,8.70313 1.20313,10.7031 3.5,11.9063 C5.29688,13 7.59375,13.5 10.5938,13.5"/>
<path class="Note" transform="matrix(0.9936,0,0,0.9936,883.903,265.14)" d="M10.5938,13.5 C15.0938,13.5 19.7969,11.7031 24.7969,8 C30.2031,3.90625 32.9063,0 32.9063,-4.29688 C32.9063,-10.2969 28.9063,-13.5 20.7031,-13.5 C16.4063,-13.5 11.9063,-11.4063 7.09375,-7 C2.29688,-2.59375 0,1.5 0,5.70313 C0,8.70313 1.20313,10.7031 3.5,11.9063 C5.29688,13 7.59375,13.5 10.5938,13.5"/>
<path class="Note" transform="matrix(0.9936,0,0,0.9936,1801.59,215.46)" d="M10.5938,13.5 C15.0938,13.5 19.7969,11.7031 24.7969,8 C30.2031,3.90625 32.9063,0 32.9063,-4.29688 C32.9063,-10.2969 28.9063,-13.5 20.7031,-13.5 C16.4063,-13.5 11.9063,-11.4063 7.09375,-7 C2.29688,-2.59375 0,1.5 0,5.70313 C0,8.70313 1.20313,10.7031 3.5,11.9063 C5.29688,13 7.59375,13.5 10.5938,13.5"/>
<path class="Note" transform="matrix(0.9936,0,0,0.9936,883.903,376.92)" d="M10.5938,13.5 C15.0938,13.5 19.7969,11.7031 24.7969,8 C30.2031,3.90625 32.9063,0 32.9063,-4.29688 C32.9063,-10.2969 28.9063,-13.5 20.7031,-13.5 C16.4063,-13.5 11.9063,-11.4063 7.09375,-7 C2.29688,-2.59375 0,1.5 0,5.70313 C0,8.70313 1.20313,10.7031 3.5,11.9063 C5.29688,13 7.59375,13.5 10.5938,13.5"/>
<path class="Clef" transform="matrix(0.9936,0,0,0.9936,142.83,302.4)" d="M21.2031,-130.703 C21.2031,-130.313 22.0938,-121.609 24.2031,-105.203 L27.4063,-80.4063 L27,-79.1094 C26.5,-77.5 23.7969,-70.7031 19,-59.1094 C9.59375,-36.2031 3.70313,-19.5938 1.5,-9 C0.5,-4 0,0.703125 0,5.09375 C0,10.7969 0.90625,15.9063 2.5,20.7031 C7.09375,33.5 16.4063,39.7969 32,39.7969 C34.5,39.7969 36.7031,39.5 38.9063,39 C39.9063,38.7969 40.6094,38.7031 41.4063,38.7031 C42.4063,38.7031 42.6094,39.5 42.9063,40.7969 C43.2969,42.6094 43.4063,44.5 43.4063,46.4063 C43.4063,53.5 40.4063,61.7031 37.4063,67 L36.2031,69 L36.2969,71.1094 C36.4063,73.2031 36.6094,75.1094 36.9063,76.6094 C32.6094,79.3125 29,83.8125 29,89.3125 C29,95.5 36,96.8125 36,97.9063 C36,99.4063 28.5,103.703 28.5,113.5 C28.5,114.313 29.4063,122 37.9063,122 C47.2969,122 53.6094,114.406 53.6094,106.5 C53.6094,98.5 47.1094,97 47.1094,96.2031 C47.1094,95.5 53.2969,89.2031 53.2969,83.7031 C53.2969,78.9063 51.9063,74.2969 45.7031,74 C47.6094,68.4063 49.2031,59.7969 49.2031,51.9063 C49.2031,46.9063 48.1094,39.7969 47.2969,36.6094 L47.2969,36.5 C47.2969,36.2969 47.2969,36 47.6094,35.7969 C48.7031,34.7969 52.6094,32 53.4063,31.5 C59,27.7031 65.1094,18.4063 67.2031,11.9063 C68.6094,7.59375 69.7031,1.70313 70.6094,-6.09375 C70.7969,-8.20313 71.1094,-10.2031 71.1094,-12.0938 C71.1094,-15.2969 70.7969,-18.4063 70.1094,-21.0938 C68.1094,-29.1094 63.5,-32.9063 55.9063,-32.9063 C55.1094,-32.9063 54.2031,-32.7969 53.7031,-32.7031 C48.5,-31.9063 43.6094,-29.2969 39,-25 L37.7031,-23.7969 L37.5,-25.9063 C36.1094,-35.4063 35,-48.4063 34.1094,-64.7969 L33.9063,-69 L35.5,-73.5 C40,-84.8125 42.2969,-94.3125 42.2969,-102.203 C42.2969,-117.109 36.9063,-127.703 27.5,-133.406 C26.1094,-134.203 25.5,-134.516 24.2031,-134.516 C22.5938,-134.516 21.2031,-132.203 21.2031,-130.703 M29.7969,-110.703 C30.2031,-110.703 30.5,-110.609 30.9063,-110.406 C32.5,-109.609 34,-107.813 35.2031,-104.906 C35.4063,-104.5 35.4063,-103.703 35.4063,-102.906 C35.4063,-99.9063 34.2969,-94.7031 31.9063,-86.9063 C31.7969,-86.6094 31.2031,-84.7031 31,-84.7031 C30.7969,-84.9063 30.5,-87.5 29.7969,-92.7031 C29.2969,-97.4063 28.7031,-102.313 28.7031,-107.313 L28.7031,-108.109 C28.7031,-109.703 28.7969,-110.703 29.7969,-110.703 M33.2031,-21.2969 L33.2031,-20.2969 L30.4063,-16.0938 C27.5,-12 25.5,-8.70313 24.2031,-6.29688 C20.7969,0.09375 18,7.20313 17.5,15.5 C17.4063,17.5 17.4063,18.5938 17.2969,18.5938 C16.7969,18.5938 12.9063,16.7969 12.5938,16.5938 C9.09375,14.5938 6.79688,10.5 6.79688,5.29688 C6.79688,4.5 6.90625,3.70313 7,2.79688 C8.20313,-6.40625 15.5,-25.6094 28.4063,-55 C28.6094,-55.5 29.5,-58.1094 29.7969,-58.1094 C30,-57.9063 33.2031,-21.4063 33.2031,-21.2969 M63.5,-12.7031 C63.7031,-12.4063 63.6094,-12.0938 63.6094,-11.4063 C63.6094,-6.79688 60.7969,-1.90625 55.7969,4.5 C52.6094,8.40625 49.7031,11.4063 47,13.2969 C44.7031,14.9063 43.4063,15.7969 42.7031,15.7969 C42.5,15.7969 42.2969,15.0938 42.2031,13.7969 C42,10.4063 40.7031,-2.70313 40.7031,-6.20313 C40.7031,-8.5 40.7969,-8.79688 42.2031,-10.0938 C44.6094,-12.2969 52.4063,-16.2969 56.5,-16.2969 C59.7969,-16.2969 62.6094,-14.2969 63.5,-12.7031 M37,2.70313 C37.5,7.5 38,11.2031 38.2969,13.7969 C38.6094,16.4063 38.7031,17.7969 38.7031,18 C38.7031,18.2031 37.5,18.2969 35.1094,18.7969 C31.7031,19.5 29,19.7969 27.1094,19.7969 C26.4063,19.7969 25.7969,19.9063 25.2969,19.7969 L23.5938,19.5 L23.7031,18.2031 C23.7031,16.5938 24.0938,14.5938 25,12.2969 C27.2969,6.20313 30.4063,2.09375 34.2969,-2.70313 C35.4063,-4 36,-4.59375 36.1094,-4.59375 C36.1094,-4.59375 36.5,-2.09375 37,2.70313 M42.1094,101.203 L42.2031,101.203 C43.6094,101.203 47.1094,104.5 47.1094,107.813 C47.1094,112.109 43.7969,114.203 41.2031,114.203 C38.4063,114.203 36,113.609 36,109.703 C36,106.5 40.4063,101.406 42.1094,101.203 M41.9063,93.5 C40.5,93.5 35.7969,89.7031 35.7969,88.2031 C35.7969,84.3125 39,81 42.9063,81 C46.2969,81 47.2969,82.6094 47.2969,84.7031 L47.2969,85.4063 C47.2969,89.2031 43.1094,93.5 41.9063,93.5"/>
<path class="KeySig" transform="matrix(0.9936,0,0,0.9936,238.309,227.88)" d="M11.7969,-39 C10.5,-39 9.5,-33.4063 9.20313,-22.2031 C9.09375,-19.7031 9.09375,-18.2969 9,-18 C8.90625,-17.7031 8.59375,-17.0938 7.79688,-16.7969 C5.29688,-15.2969 3.29688,-14.2969 2.40625,-13.4063 C1.40625,-12.4063 1,-9 0.796875,-3.59375 L0.796875,-1.70313 L0.796875,-0.796875 C0.796875,0.296875 0.90625,1.29688 1.40625,1.29688 C1.90625,1.29688 3.5,0.796875 6,-0.5 C7,-1 7.70313,-1.20313 7.79688,-1.20313 C7.90625,-1.20313 8,-0.59375 8,0.40625 L8,3.09375 C8,5.40625 7.90625,7.59375 7.20313,7.79688 C7,7.90625 5.90625,8.5 4.20313,9.40625 C1.70313,10.7031 1.5,11 0.203125,12 L0,15.4063 L0,17.7969 C0,21.4063 0.40625,24.2031 1.40625,24.2031 C1.70313,24.2031 2.59375,23.9063 4.20313,23.4063 L7.20313,22.4063 L7.20313,23.0938 C7.20313,23.4063 7.20313,25.2031 7,28.5 C6.70313,34 6.40625,38.4063 6.40625,41.7031 C6.40625,45 6.70313,46.7969 7,47.7031 C7.20313,48.4063 7.40625,48.7031 8.20313,48.7031 C8.40625,48.7031 9,48.5 9.20313,48.2969 C10.2031,46.7969 10.5,33.5 10.7031,27.2031 L11,21 C11.7969,20.2031 12.7031,19.5938 14,19.5938 C14.2031,19.5938 14.2031,20.7969 14.2031,23.0938 C14.2031,26.2969 14,31.2969 14,33.9063 L14,35.1094 C14,38.7031 14.2031,42.2969 15.5938,42.2969 C15.7969,42.2969 16,42 16.2031,41.7969 C17.7031,40.5 18,26.6094 18.0938,22.2031 L18.4063,17.5938 L22,15.2969 C24.4063,13.7031 25.7969,12.4063 26,12.0938 C26.2031,11.5938 26.2031,10.2969 26.2031,8.5 L26.2031,7.20313 C26.2031,3.90625 26.1094,-1.29688 24.7969,-1.29688 C23.5,-1.29688 22,-0.59375 20.5938,0.296875 C19.7969,0.796875 19.5938,0.90625 19.5,0.90625 L19.5,0.796875 C19.5,0.5 19.5,-1.09375 19.5938,-3.59375 L19.5938,-8.09375 L21.4063,-8.79688 C25,-10.5 27,-12.7031 27.2031,-14.2031 C27.7031,-16.7031 28,-19.2969 28,-21.9063 L28,-23.5 C28,-24.5 27.7969,-25.0938 27,-25.0938 C26.1094,-25.0938 24.5938,-24.7969 22.2031,-23.5 C21.5,-23.2969 21.2969,-22.9063 21.2031,-22.9063 C21.2031,-22.9063 21.0938,-23.0938 21.0938,-23.2031 C21.0938,-23.5 21.5938,-25 21.7969,-27.7969 C22.5938,-37.6094 22.5938,-44.7031 22.5938,-48.7969 C22.5938,-51.2969 22.0938,-55.7969 21.2031,-55.7969 C21.0938,-55.7969 20.9063,-55.5 20.5938,-55.2031 C19.2031,-53.7031 18.2969,-48.6094 18,-38.9063 C17.5,-27.7031 17,-22 16.7969,-21.2969 C16.5,-20.5 13.9063,-19.7969 13,-19.5938 L13.2031,-22.4063 L13.2031,-24.2969 L13.2031,-29 L13.2031,-31.2969 L13.2031,-33.5 C13.2031,-36.4063 13.0938,-39 11.7969,-39 M10.7031,4 C10.7031,2.70313 10.7969,0.703125 11,-1.90625 L11.2031,-3.09375 L12.2031,-3.79688 C14.5938,-5.29688 15.9063,-6.09375 16.2031,-6.09375 C16.2969,-6.09375 16.4063,-6 16.4063,-5.79688 C16.4063,-5.09375 16.2969,-3.70313 16.2031,-1.29688 L16,3.09375 L14.7969,3.90625 C14,4.20313 12,5.70313 11,5.70313 C10.7031,5.70313 10.7031,4.90625 10.7031,4"/>
<path class="TimeSig" transform="matrix(0.9936,0,0,0.9936,290.962,248.699)" d="M17.7969,24.9063 L17.7969,25 C17.7969,26.7969 18.2969,28.4063 19.2969,28.9063 C19.5938,29.1094 22,29.1094 26.4063,29.1094 L33,29.1094 C33.9063,28.2031 34.2969,27.5 34.2969,25.2969 C34.2969,22.7031 32.7031,22.2969 29.7031,22.0938 L27.7969,22 L27.7969,20.4063 C27.7969,19.0938 27.7031,17.7969 28.5,17.7969 C28.7969,17.7969 29.1094,17.9063 29.4063,17.9063 C32,17.9063 37,13.4063 37,10.5938 C37,9.29688 36.1094,8.40625 35.2969,7.5 L33.6094,8.40625 C32.4063,9 31.4063,9.29688 30.6094,9.29688 C29.4063,9.29688 28.9063,9.09375 28.2031,8.79688 L28.2969,0.796875 C28.2969,-2.29688 28.4063,-5.29688 28.4063,-7.90625 C28.4063,-15.4063 28.2031,-20.7969 27.7969,-24 C27.6094,-25.4063 27.1094,-26.7969 26.2031,-28 C25.6094,-28.7031 25.0938,-29.1094 24.7031,-29.1094 C23.4063,-29.1094 22.5938,-27.7969 22,-26.7031 C18.2031,-19.9063 13.7031,-12.2031 8.29688,-3.59375 C7.40625,-2.09375 6.79688,-1.29688 6.5,-1 C6.20313,-0.703125 5.79688,-0.40625 5.20313,-0.09375 C2.40625,1.20313 0,5.09375 0,9.59375 C0,10.7969 0.703125,12.4063 1.70313,12.4063 C2,12.4063 2.29688,12.0938 2.70313,11.7031 C3.40625,11 6.20313,7.40625 7.09375,6.90625 C7.29688,6.79688 7.59375,6.70313 7.79688,6.70313 C8,6.70313 8.09375,6.70313 8.29688,6.79688 C8.70313,7 9.70313,7.79688 11.2031,9.09375 C14.2031,11.5938 16.2031,13.2031 17.5,14.0938 C18.7969,15 20.2969,15.7969 22,16.5938 L23.4063,17.2031 L23.4063,18.5 L23.4063,19.2031 C23.4063,19.7031 23.4063,20.2969 23.2969,20.7969 L23.2031,22 L21.2031,22 L20.2969,22 C18.0938,22 17.7969,22.2031 17.7969,24.9063 M23.5938,-3.90625 L23.5,6.70313 L20.4063,3.90625 C17.2969,1.20313 15.2031,-0.5 14,-1 C13.7031,-1.20313 13.0938,-1.29688 13.0938,-1.59375 L13.0938,-1.70313 C13.5938,-2.5 21.5,-15.4063 22,-16.2031 L23.4063,-18.4063 L23.5,-16.5 C23.5938,-15.5 23.5938,-12.9063 23.5938,-8.70313 L23.5938,-3.90625 "/>
<path class="TimeSig" transform="matrix(0.9936,0,0,0.9936,290.962,306.421)" d="M17.7969,24.9063 L17.7969,25 C17.7969,26.7969 18.2969,28.4063 19.2969,28.9063 C19.5938,29.1094 22,29.1094 26.4063,29.1094 L33,29.1094 C33.9063,28.2031 34.2969,27.5 34.2969,25.2969 C34.2969,22.7031 32.7031,22.2969 29.7031,22.0938 L27.7969,22 L27.7969,20.4063 C27.7969,19.0938 27.7031,17.7969 28.5,17.7969 C28.7969,17.7969 29.1094,17.9063 29.4063,17.9063 C32,17.9063 37,13.4063 37,10.5938 C37,9.29688 36.1094,8.40625 35.2969,7.5 L33.6094,8.40625 C32.4063,9 31.4063,9.29688 30.6094,9.29688 C29.4063,9.29688 28.9063,9.09375 28.2031,8.79688 L28.2969,0.796875 C28.2969,-2.29688 28.4063,-5.29688 28.4063,-7.90625 C28.4063,-15.4063 28.2031,-20.7969 27.7969,-24 C27.6094,-25.4063 27.1094,-26.7969 26.2031,-28 C25.6094,-28.7031 25.0938,-29.1094 24.7031,-29.1094 C23.4063,-29.1094 22.5938,-27.7969 22,-26.7031 C18.2031,-19.9063 13.7031,-12.2031 8.29688,-3.59375 C7.40625,-2.09375 6.79688,-1.29688 6.5,-1 C6.20313,-0.703125 5.79688,-0.40625 5.20313,-0.09375 C2.40625,1.20313 0,5.09375 0,9.59375 C0,10.7969 0.703125,12.4063 1.70313,12.4063 C2,12.4063 2.29688,12.0938 2.70313,11.7031 C3.40625,11 6.20313,7.40625 7.09375,6.90625 C7.29688,6.79688 7.59375,6.70313 7.79688,6.70313 C8,6.70313 8.09375,6.70313 8.29688,6.79688 C8.70313,7 9.70313,7.79688 11.2031,9.09375 C14.2031,11.5938 16.2031,13.2031 17.5,14.0938 C18.7969,15 20.2969,15.7969 22,16.5938 L23.4063,17.2031 L23.4063,18.5 L23.4063,19.2031 C23.4063,19.7031 23.4063,20.2969 23.2969,20.7969 L23.2031,22 L21.2031,22 L20.2969,22 C18.0938,22 17.7969,22.2031 17.7969,24.9063 M23.5938,-3.90625 L23.5,6.70313 L20.4063,3.90625 C17.2969,1.20313 15.2031,-0.5 14,-1 C13.7031,-1.20313 13.0938,-1.29688 13.0938,-1.59375 L13.0938,-1.70313 C13.5938,-2.5 21.5,-15.4063 22,-16.2031 L23.4063,-18.4063 L23.5,-16.5 C23.5938,-15.5 23.5938,-12.9063 23.5938,-8.70313 L23.5938,-3.90625 "/>
<path class="Beam" fill-rule="evenodd" d="M911.623,184.41 L1051.66,184.41 L1051.66,196.83 L911.623,196.83 L911.623,184.41 "/>
<path class="Tempo" d="M294.602,164.138 C292.618,166.122 291.54,168.106 291.243,170.075 C291.243,170.575 291.134,170.966 291.134,171.466 C291.134,174.138 291.837,176.325 293.118,178.106 C295.196,180.669 298.274,182.95 302.524,184.841 C304.696,185.825 307.977,186.419 312.431,186.622 C313.321,186.716 314.212,186.716 315.102,186.716 C317.571,186.716 320.04,186.419 322.321,185.919 C325.493,185.231 328.462,184.044 331.227,182.45 C332.712,181.669 334.102,180.372 335.399,178.591 C336.774,176.716 337.571,175.138 337.665,173.841 C337.774,172.856 337.665,171.966 337.665,171.169 L337.774,171.169 C337.868,171.075 337.868,169.481 337.962,166.325 L337.962,156.216 L337.962,148.497 C337.868,146.622 337.774,141.966 337.571,134.638 C337.181,126.122 336.977,120.091 336.977,116.622 C336.977,108.997 336.774,104.341 336.384,102.856 C336.087,101.481 334.899,100.684 332.915,100.591 L332.415,100.591 C331.04,100.591 330.337,101.184 330.243,102.466 C330.149,103.95 329.946,109.106 329.946,118.013 C329.946,120.981 330.04,124.45 330.04,128.2 C330.04,130.981 330.149,135.231 330.446,140.981 C330.337,141.575 330.243,143.059 330.243,145.528 C330.243,148.013 330.337,151.372 330.446,155.622 C330.54,157.403 330.446,158.888 330.54,160.184 C330.243,159.981 330.149,159.888 329.852,159.684 C327.962,158.497 325.102,157.513 321.431,156.809 C319.056,156.419 316.774,156.216 314.696,156.216 C313.806,156.216 312.915,156.216 312.024,156.325 C308.571,156.622 305.399,157.309 302.618,158.591 C299.556,160.091 296.884,161.872 294.602,164.138"/>
<path class="Tempo" d="M359.024,160.325 L389.259,160.325 L389.259,153.419 L359.024,153.419 L359.024,160.325 M359.024,172.684 L389.259,172.684 L389.259,165.778 L359.024,165.778 L359.024,172.684 M433.134,153.544 C437.102,152.044 440.227,149.7 440.227,144.966 C440.227,139.434 434.993,135.716 427.196,135.716 C417.899,135.716 411.899,140.7 411.899,148.497 C411.899,153.247 414.118,156.716 418.868,159.247 C417.009,159.841 416.227,160.075 415.196,160.622 C412.196,162.184 410.587,164.934 410.587,168.419 C410.587,174.903 416.399,179.044 425.524,179.044 C435.181,179.044 441.727,173.513 441.727,165.294 C441.727,159.653 438.962,155.934 433.134,153.544 M429.774,152.278 C427.259,151.684 425.399,151.138 424.259,150.716 C421.509,149.7 419.696,147.247 419.696,144.606 C419.696,141.294 422.462,138.841 426.181,138.841 C430.196,138.841 432.727,141.481 432.727,145.684 C432.727,148.388 431.696,150.669 429.774,152.278 M422.102,160.856 C424.556,161.528 427.556,162.419 429.056,162.903 C432.837,164.216 434.274,165.841 434.274,168.903 C434.274,172.981 430.915,175.919 426.181,175.919 C421.321,175.919 418.384,173.044 418.384,168.247 C418.384,165.059 419.399,163.028 422.102,160.856 M455.087,156.544 C455.087,151.559 456.165,138.841 463.009,138.841 C464.509,138.841 465.587,139.388 465.587,140.216 C465.587,140.638 465.524,140.825 465.102,141.356 C464.321,142.388 463.899,143.7 463.899,144.903 C463.899,147.606 466.056,149.528 469.181,149.528 C472.602,149.528 474.759,147.419 474.759,144.122 C474.759,138.966 470.384,135.716 463.54,135.716 C457.774,135.716 453.337,137.934 449.868,142.559 C446.321,147.184 444.696,152.7 444.696,159.841 C444.696,165.841 445.962,170.106 448.774,173.575 C451.727,177.184 455.743,179.044 460.665,179.044 C469.477,179.044 475.899,173.106 475.899,164.825 C475.899,157.622 470.977,152.575 463.837,152.575 C459.946,152.575 457.602,153.669 455.087,156.544 M460.727,157.075 C463.837,157.2 465.462,160.075 465.462,165.481 C465.462,172.434 463.727,176.216 460.54,176.216 C457.306,176.216 455.446,172.747 455.446,166.559 C455.446,164.403 455.618,162.544 455.915,161.153 C456.587,158.575 458.446,156.966 460.727,157.075"/>
<path class="Harmony" d="M1405.84,126.624 C1405.59,126.671 1405.18,126.733 1404.54,126.78 C1403.89,126.827 1403.39,126.921 1403.04,126.983 C1402.68,127.03 1402.18,127.077 1401.59,127.171 C1400.98,127.28 1400.54,127.421 1400.14,127.577 C1399.73,127.733 1399.29,127.921 1398.89,128.171 C1398.48,128.421 1398.14,128.671 1397.89,129.03 C1397.54,129.374 1397.29,129.78 1397.09,130.171 C1396.89,130.577 1396.73,131.077 1396.68,131.577 C1396.64,131.921 1396.64,132.28 1396.64,132.624 L1396.64,132.921 C1396.68,133.28 1396.68,133.78 1396.73,134.374 C1396.79,134.983 1396.79,135.483 1396.79,135.827 C1396.79,141.53 1396.93,147.124 1397.18,152.686 C1397.23,152.983 1397.23,153.28 1397.23,153.624 C1397.18,154.686 1397.14,156.077 1397.04,157.733 C1396.89,159.686 1396.79,161.124 1396.79,162.077 L1396.79,162.374 L1396.79,163.233 C1396.79,163.483 1396.89,163.733 1396.93,164.03 C1396.98,164.327 1397.09,164.577 1397.23,164.733 C1397.39,164.874 1397.54,165.03 1397.79,165.186 C1397.98,165.28 1398.23,165.327 1398.54,165.327 L1398.68,165.327 C1400.43,165.28 1402.18,164.936 1403.93,164.28 C1405.68,163.624 1407.34,162.827 1408.89,161.78 C1410.43,160.733 1411.89,159.483 1413.29,158.03 C1414.68,156.577 1415.89,155.077 1416.89,153.483 C1417.89,151.874 1418.73,150.233 1419.39,148.483 C1420.04,146.733 1420.39,144.983 1420.48,143.327 C1420.54,142.983 1420.54,142.577 1420.54,142.233 C1420.54,141.28 1420.43,140.28 1420.23,139.28 C1419.98,137.874 1419.59,136.483 1419.04,135.171 C1418.48,133.874 1417.79,132.671 1416.89,131.53 C1415.98,130.374 1414.98,129.421 1413.89,128.624 C1412.79,127.827 1411.59,127.233 1410.18,126.874 C1409.29,126.624 1408.34,126.53 1407.39,126.53 C1406.89,126.53 1406.39,126.577 1405.84,126.624 M1402.73,158.936 C1402.73,157.483 1402.79,155.374 1402.84,152.686 C1402.89,150.53 1402.93,148.483 1402.93,146.624 C1402.93,146.186 1402.89,145.733 1402.89,145.28 C1402.89,143.077 1402.84,140.936 1402.73,138.921 C1402.73,138.671 1402.68,138.233 1402.59,137.483 C1402.48,136.733 1402.34,136.03 1402.29,135.374 C1402.23,135.077 1402.23,134.78 1402.23,134.483 C1402.23,134.124 1402.23,133.827 1402.29,133.483 C1402.39,132.827 1402.59,132.327 1402.93,132.077 C1403.39,131.733 1403.89,131.577 1404.43,131.577 C1404.59,131.624 1404.73,131.624 1404.89,131.624 C1405.64,131.733 1406.43,131.983 1407.29,132.421 C1408.14,132.874 1408.93,133.483 1409.68,134.077 C1410.43,134.671 1411.14,135.28 1411.68,135.874 C1412.23,136.483 1412.68,136.921 1412.93,137.374 C1413.73,138.671 1414.29,140.124 1414.59,141.733 C1414.73,142.624 1414.84,143.53 1414.84,144.436 C1414.84,145.077 1414.79,145.733 1414.73,146.374 C1414.48,147.936 1414.04,149.436 1413.39,150.874 C1412.73,152.327 1411.89,153.624 1410.89,154.78 C1409.84,155.936 1408.64,156.827 1407.23,157.577 C1405.84,158.327 1404.34,158.78 1402.73,158.936"/>
<path class="Harmony" d="M1420.23,173.327 C1420.39,173.436 1420.54,173.624 1420.79,173.874 C1421.04,174.124 1421.23,174.374 1421.39,174.577 C1421.54,174.78 1421.73,174.874 1421.98,174.983 C1422.14,175.03 1422.29,175.077 1422.43,175.077 C1422.54,175.077 1422.64,175.077 1422.73,175.03 C1422.98,174.983 1423.43,174.827 1424.04,174.577 C1424.64,174.327 1425.14,173.827 1425.48,173.186 C1426.54,170.483 1428.98,164.78 1432.93,156.124 C1436.39,148.577 1438.43,144.077 1439.09,142.53 C1439.84,140.983 1440.68,139.03 1441.68,136.671 C1441.73,136.624 1441.84,136.124 1441.98,135.28 C1442.14,134.421 1442.34,133.733 1442.59,133.171 C1442.64,132.921 1442.64,132.671 1442.68,132.421 C1442.73,132.171 1442.84,132.03 1442.89,131.874 C1442.93,131.733 1442.98,131.577 1443.04,131.483 C1443.09,131.374 1443.09,131.28 1443.09,131.171 C1443.09,131.077 1443.14,130.983 1443.18,130.921 C1443.23,130.874 1443.23,130.827 1443.23,130.78 C1443.23,130.733 1443.23,130.733 1443.29,130.671 L1443.34,130.624 L1443.34,130.577 L1443.34,130.483 C1443.34,129.124 1443.04,128.03 1442.43,127.233 C1442.04,126.671 1441.59,126.374 1441.04,126.374 C1440.79,126.374 1440.59,126.421 1440.34,126.53 C1439.14,127.03 1438.09,128.733 1437.14,131.624 L1420.23,173.327 "/>
<path class="Harmony" d="M1458.59,147.669 C1457.43,147.669 1456.09,147.716 1454.64,147.81 C1454.39,147.872 1453.98,147.872 1453.34,147.919 C1453.09,147.966 1452.73,147.919 1452.23,147.763 C1451.84,147.669 1451.54,147.513 1451.34,147.31 C1451.04,147.06 1450.84,146.56 1450.68,145.872 C1450.59,145.263 1450.54,144.607 1450.54,143.919 L1450.54,143.56 C1450.54,143.107 1450.59,142.357 1450.64,141.31 C1450.68,140.669 1450.79,140.107 1450.84,139.56 C1450.89,139.216 1451.04,138.919 1451.29,138.669 C1451.54,138.419 1451.84,138.263 1452.18,138.216 C1452.54,138.169 1452.89,138.216 1453.18,138.216 C1453.48,138.216 1453.93,138.263 1454.39,138.31 C1454.84,138.357 1455.18,138.357 1455.39,138.357 L1456.18,138.357 C1457.09,138.357 1458.34,138.357 1459.98,138.466 C1461.64,138.513 1463.04,138.56 1464.09,138.56 L1465.04,138.56 C1465.23,138.56 1465.59,138.607 1465.98,138.607 L1466.98,138.607 C1467.23,138.607 1467.54,138.607 1467.89,138.513 C1468.23,138.419 1468.48,138.263 1468.73,138.107 C1469.14,137.857 1469.43,137.419 1469.68,136.763 C1469.93,136.107 1470.09,135.466 1470.09,134.857 L1470.09,134.669 C1470.09,134.107 1469.99,133.607 1469.73,133.107 C1469.48,132.56 1469.04,132.216 1468.48,132.06 C1467.84,131.857 1467.04,131.763 1466.18,131.763 L1465.68,131.763 C1464.93,131.763 1464.14,131.81 1463.23,131.857 C1462.14,131.919 1461.34,131.966 1460.89,131.966 C1460.04,131.966 1458.98,131.919 1457.68,131.81 C1456.39,131.716 1455.23,131.669 1454.23,131.607 C1453.43,131.56 1452.59,131.607 1451.64,131.607 L1450.93,131.607 C1449.59,131.607 1448.54,131.669 1447.68,131.81 C1447.34,131.857 1447.04,132.013 1446.79,132.169 C1446.54,132.31 1446.39,132.513 1446.18,132.763 C1445.98,133.013 1445.79,133.31 1445.68,133.669 C1445.59,134.013 1445.54,134.357 1445.48,134.669 C1445.43,134.966 1445.39,135.357 1445.34,135.81 C1445.29,136.263 1445.29,136.607 1445.29,136.919 C1445.29,137.216 1445.34,137.56 1445.34,138.013 L1445.34,138.966 C1445.34,145.216 1445.29,149.466 1445.18,151.716 C1445.14,153.122 1445.04,154.966 1444.98,157.31 C1444.89,159.56 1444.84,161.122 1444.84,162.013 C1444.89,162.419 1444.89,162.669 1444.89,162.81 C1444.98,163.466 1445.04,164.122 1445.04,164.716 C1445.04,165.06 1445.04,165.372 1444.98,165.622 C1444.93,165.669 1444.98,165.966 1444.98,166.513 L1444.98,168.872 C1444.93,169.622 1445.23,170.06 1445.79,170.263 C1446.29,170.419 1446.59,170.513 1446.64,170.513 L1446.84,170.513 C1447.93,170.263 1448.68,170.013 1449.14,169.716 C1449.68,169.31 1450.09,168.81 1450.34,168.216 C1450.59,167.622 1450.73,166.919 1450.79,166.169 C1450.84,165.872 1450.84,165.513 1450.84,165.169 C1450.89,164.716 1450.84,164.216 1450.79,163.763 C1450.64,162.763 1450.54,161.919 1450.48,161.216 C1450.39,159.919 1450.34,159.06 1450.29,158.716 C1450.23,158.466 1450.23,158.263 1450.23,158.013 C1450.23,157.466 1450.29,156.966 1450.39,156.466 C1450.54,155.716 1450.79,155.122 1451.14,154.622 C1451.29,154.419 1451.43,154.216 1451.68,154.122 C1451.93,154.013 1452.23,153.966 1452.48,153.919 C1452.73,153.872 1453.04,153.81 1453.39,153.81 C1453.73,153.81 1454.04,153.81 1454.29,153.872 L1455.18,153.966 C1455.23,154.013 1455.59,154.06 1456.18,154.06 L1457.93,154.013 C1458.09,154.013 1459.14,154.06 1461.09,154.122 L1461.54,154.122 C1462.59,154.122 1463.64,153.966 1464.79,153.716 C1465.04,153.669 1465.29,153.216 1465.64,152.372 C1465.93,151.622 1466.09,151.06 1466.09,150.622 L1466.09,150.263 C1466.09,149.81 1465.98,149.372 1465.79,148.919 C1465.54,148.372 1465.09,148.013 1464.54,147.872 L1462.68,147.872 L1461.64,147.872 C1460.18,147.716 1459.18,147.669 1458.64,147.669 L1458.59,147.669 "/>
<path class="Harmony" d="M1480.48,141.466 C1480.48,141.107 1480.54,140.419 1480.59,139.31 C1480.64,138.513 1480.64,137.763 1480.64,137.107 L1480.64,136.31 C1480.59,135.466 1480.48,134.763 1480.23,134.263 C1479.89,133.607 1479.39,133.263 1478.73,133.263 C1478.73,133.31 1478.73,133.31 1478.68,133.31 C1477.98,133.357 1477.43,133.669 1476.98,134.263 C1476.64,134.81 1476.43,135.419 1476.34,136.169 C1476.29,136.607 1476.29,137.013 1476.29,137.357 C1476.29,137.669 1476.29,137.966 1476.34,138.216 C1476.39,138.669 1476.39,139.107 1476.39,139.607 L1476.39,140.263 C1476.34,141.013 1476.23,141.669 1476.04,142.216 C1475.89,142.513 1475.59,142.857 1475.18,143.216 C1474.79,143.56 1474.39,143.81 1473.98,144.107 C1473.59,144.419 1473.23,144.763 1472.98,145.169 C1472.73,145.56 1472.64,145.966 1472.73,146.31 C1472.84,146.56 1472.98,146.716 1473.14,146.872 C1473.34,147.013 1473.59,147.06 1473.79,147.122 C1473.98,147.169 1474.23,147.169 1474.59,147.122 C1474.93,147.06 1475.18,147.06 1475.39,147.013 C1475.59,146.966 1475.79,146.872 1476.04,146.81 C1476.18,146.763 1476.23,146.763 1476.29,146.763 C1476.43,147.513 1476.48,148.122 1476.48,148.622 C1476.48,149.122 1476.39,149.56 1476.23,149.919 C1476.09,150.263 1475.84,150.56 1475.59,150.81 C1475.34,151.06 1475.09,151.31 1474.79,151.56 C1474.48,151.81 1474.09,152.122 1473.79,152.31 C1473.48,152.513 1473.18,152.81 1472.89,153.169 C1472.59,153.513 1472.34,153.966 1472.14,154.466 C1472.09,154.669 1472.04,154.872 1472.04,155.013 C1472.04,155.263 1472.09,155.466 1472.23,155.622 C1472.48,155.966 1472.79,156.169 1473.18,156.31 C1473.59,156.466 1473.98,156.513 1474.39,156.513 C1474.64,156.513 1475.09,156.466 1475.68,156.419 C1476.29,156.372 1476.68,156.31 1476.98,156.31 C1476.93,156.872 1476.89,157.372 1476.89,157.81 C1476.93,158.513 1476.98,159.122 1477.14,159.622 C1477.39,160.669 1477.89,161.169 1478.59,161.169 L1478.68,161.169 C1479.43,161.122 1480.09,160.56 1480.64,159.622 C1481.18,158.669 1481.48,157.56 1481.48,156.419 C1481.48,155.763 1481.39,155.122 1481.23,154.419 L1483.89,153.263 L1484.64,153.669 L1484.64,156.716 L1484.73,157.513 C1484.93,158.872 1485.34,159.872 1485.98,160.419 L1486.84,160.763 L1486.89,160.763 C1487.48,160.763 1488.04,160.169 1488.64,159.013 C1488.98,158.263 1489.14,157.169 1489.14,155.716 C1489.14,154.263 1489.29,153.216 1489.48,152.56 C1489.64,152.263 1489.79,151.919 1490.04,151.513 C1490.29,151.122 1490.48,150.763 1490.73,150.419 C1490.98,150.06 1491.18,149.716 1491.39,149.372 C1491.59,149.013 1491.68,148.669 1491.73,148.419 C1491.79,148.169 1491.73,147.919 1491.59,147.669 C1491.43,147.419 1491.14,147.216 1490.68,147.06 C1490.23,146.919 1489.59,146.81 1488.84,146.763 C1488.84,146.622 1488.84,146.263 1488.79,145.716 C1488.73,145.169 1488.73,144.763 1488.73,144.419 C1488.73,144.06 1488.79,143.607 1488.89,143.216 C1488.98,142.81 1489.14,142.513 1489.39,142.263 C1489.64,142.013 1490.04,141.81 1490.48,141.607 C1490.93,141.419 1491.39,141.31 1491.79,141.216 C1492.18,141.107 1492.48,141.013 1492.89,140.763 C1493.29,140.513 1493.59,140.216 1493.73,139.857 C1493.93,139.466 1494.04,139.107 1494.04,138.857 L1494.04,138.716 C1494.04,137.966 1493.43,137.56 1492.23,137.56 C1491.98,137.56 1491.73,137.56 1491.48,137.607 C1490.29,137.763 1489.29,138.013 1488.43,138.419 C1488.18,137.357 1488.09,136.216 1488.09,134.966 C1488.04,134.857 1488.04,134.763 1488.04,134.669 C1487.98,133.513 1487.68,132.56 1487.14,131.857 C1486.79,131.419 1486.43,131.169 1486.09,131.169 C1485.64,131.216 1485.14,131.607 1484.64,132.357 C1484.29,132.919 1484.04,133.56 1483.89,134.263 C1483.84,134.716 1483.79,135.169 1483.79,135.607 C1483.84,135.763 1483.84,135.966 1483.84,136.107 C1483.89,136.56 1483.89,137.06 1483.89,137.56 L1483.89,137.857 C1483.89,138.419 1483.84,138.966 1483.68,139.419 C1483.54,139.857 1483.18,140.263 1482.68,140.607 C1482.18,140.966 1481.43,141.263 1480.48,141.466 M1480.48,145.669 L1484.64,144.107 C1484.68,144.607 1484.68,145.06 1484.68,145.513 L1484.68,146.419 C1484.64,147.06 1484.54,147.622 1484.34,148.122 C1484.14,148.622 1483.79,148.966 1483.29,149.31 C1482.79,149.669 1482.14,149.966 1481.23,150.216 L1480.48,145.669 "/>
<path class="Harmony" d="M1605.08,142.186 C1605.08,141.983 1605.03,141.53 1604.99,140.78 C1604.94,140.03 1604.94,139.327 1604.94,138.671 L1604.94,138.374 C1604.94,137.827 1604.94,137.233 1604.99,136.577 C1605.03,135.827 1605.19,135.233 1605.33,134.671 C1605.49,134.124 1605.74,133.733 1606.03,133.53 C1606.39,133.28 1606.83,133.171 1607.39,133.171 C1607.94,133.171 1608.58,133.28 1609.24,133.374 C1609.89,133.483 1610.39,133.53 1610.69,133.53 L1611.49,133.53 C1612.33,133.53 1613.44,133.577 1614.74,133.624 C1616.49,133.733 1618.08,133.78 1619.64,133.78 L1620.19,133.78 C1621.49,133.78 1622.64,133.671 1623.64,133.483 C1624.28,133.327 1624.78,132.874 1625.14,132.124 C1625.49,131.374 1625.69,130.577 1625.69,129.733 C1625.69,128.827 1625.49,128.124 1625.1,127.671 C1624.85,127.421 1624.49,127.171 1623.99,127.077 C1623.49,126.983 1623.08,126.921 1622.69,126.921 C1622.28,126.921 1621.78,126.921 1621.14,126.983 C1620.49,127.03 1620.08,127.03 1619.94,127.03 C1619.03,127.03 1617.58,127.077 1615.58,127.124 C1614.14,127.171 1612.78,127.171 1611.58,127.171 L1610.28,127.171 C1608.74,127.124 1607.28,127.03 1605.94,126.874 C1605.53,126.827 1605.24,126.78 1605.08,126.78 C1604.94,126.78 1604.64,126.78 1604.19,126.733 C1603.94,126.671 1603.74,126.671 1603.53,126.671 L1603.08,126.671 C1602.78,126.733 1602.49,126.78 1602.14,126.827 C1601.78,126.874 1601.49,126.983 1601.24,127.124 C1600.99,127.28 1600.78,127.421 1600.64,127.671 C1600.33,128.171 1600.14,128.874 1599.99,129.733 C1599.83,130.483 1599.78,131.171 1599.78,131.827 L1599.78,132.077 C1599.78,132.827 1599.83,133.671 1599.89,134.733 C1599.94,135.78 1599.99,136.483 1599.99,136.827 L1599.99,137.483 C1599.99,139.327 1599.94,142.233 1599.78,146.124 C1599.69,149.374 1599.64,152.03 1599.64,154.124 L1599.64,156.186 L1599.64,156.374 C1599.64,156.827 1599.58,157.436 1599.49,158.124 C1599.33,158.936 1599.24,159.686 1599.14,160.374 C1599.03,161.03 1598.99,161.733 1598.99,162.436 L1598.99,162.577 C1598.99,163.327 1599.08,163.936 1599.33,164.436 C1599.49,164.827 1599.78,165.124 1600.14,165.327 C1600.49,165.53 1600.94,165.624 1601.49,165.686 L1602.19,165.686 L1602.94,165.686 C1603.39,165.624 1603.94,165.577 1604.49,165.483 C1605.03,165.374 1605.39,165.374 1605.64,165.374 L1621.14,165.374 C1621.39,165.374 1621.69,165.374 1622.08,165.436 C1622.49,165.483 1622.83,165.483 1623.08,165.483 L1623.99,165.483 C1624.33,165.483 1624.64,165.374 1624.89,165.28 C1625.14,165.186 1625.35,165.124 1625.6,164.983 C1625.85,164.827 1625.99,164.577 1626.19,164.28 C1626.39,163.983 1626.53,163.686 1626.64,163.327 C1626.74,163.03 1626.78,162.686 1626.78,162.233 L1626.78,161.936 C1626.78,161.624 1626.78,161.327 1626.74,160.983 C1626.69,160.577 1626.53,160.186 1626.35,159.827 C1626.14,159.483 1625.89,159.233 1625.53,159.077 C1625.28,158.983 1624.94,158.874 1624.53,158.874 C1624.14,158.874 1623.74,158.874 1623.39,158.936 C1623.03,158.983 1622.64,159.03 1622.19,159.077 C1621.74,159.124 1621.39,159.186 1621.14,159.186 L1610.14,159.186 C1609.99,159.186 1609.69,159.186 1609.19,159.233 C1608.69,159.28 1608.24,159.28 1607.89,159.28 C1607.53,159.28 1607.14,159.28 1606.69,159.233 C1606.24,159.186 1605.89,159.077 1605.58,158.936 C1605.28,158.78 1605.08,158.53 1604.99,158.28 C1604.89,157.827 1604.89,157.374 1604.89,157.077 C1604.89,156.78 1604.94,156.374 1604.99,155.827 C1605.03,155.28 1605.08,154.936 1605.08,154.686 C1605.03,154.483 1604.99,153.936 1604.94,153.077 C1604.89,152.53 1604.89,152.077 1604.89,151.624 L1604.89,150.874 C1604.94,150.233 1605.08,149.78 1605.33,149.436 C1605.53,149.186 1605.83,148.983 1606.28,148.827 C1606.74,148.686 1607.19,148.624 1607.58,148.624 C1607.99,148.624 1608.44,148.624 1609.03,148.686 C1609.64,148.733 1609.99,148.733 1610.14,148.733 C1613.08,148.78 1616.14,148.874 1619.33,149.077 C1619.58,149.077 1619.99,149.124 1620.49,149.186 C1620.99,149.233 1621.39,149.327 1621.74,149.374 C1622.08,149.436 1622.49,149.436 1622.89,149.374 C1623.28,149.327 1623.69,149.28 1624.03,149.124 C1624.6,148.936 1624.94,148.374 1625.19,147.53 C1625.35,147.03 1625.39,146.53 1625.39,146.03 C1625.39,145.624 1625.35,145.233 1625.28,144.874 C1625.14,144.03 1624.78,143.436 1624.28,143.077 C1623.83,142.78 1623.14,142.577 1622.14,142.436 C1621.49,142.374 1620.78,142.327 1620.14,142.327 L1619.83,142.327 L1619.19,142.327 C1618.24,142.327 1617.24,142.374 1616.08,142.436 C1615.39,142.483 1614.78,142.53 1614.33,142.53 C1614.08,142.483 1613.83,142.483 1613.69,142.483 C1613.33,142.483 1612.08,142.483 1609.94,142.436 C1607.78,142.374 1606.19,142.327 1605.08,142.186"/>
<path class="Harmony" d="M1629.25,152.171 C1629.25,154.311 1629.21,155.78 1629.16,156.499 C1629.13,156.546 1629.08,157.374 1629.03,158.936 C1629,159.311 1628.96,160.186 1628.91,161.671 C1628.91,161.749 1628.83,162.077 1628.66,162.671 C1628.49,163.264 1628.46,163.593 1628.46,163.811 L1628.46,164.093 C1628.49,164.514 1628.49,164.858 1628.53,165.155 C1628.58,165.358 1628.78,165.483 1629.21,165.483 C1629.33,165.483 1629.68,165.405 1630.08,165.186 C1630.5,164.983 1630.93,164.733 1631.43,164.436 C1631.94,164.139 1632.36,163.843 1632.74,163.593 C1633.11,163.343 1633.28,163.093 1633.32,162.968 C1633.61,161.921 1633.74,160.827 1633.74,159.639 L1633.74,159.436 L1633.74,158.764 C1633.71,158.639 1633.71,158.468 1633.71,158.264 C1633.74,157.671 1633.78,156.796 1633.86,155.655 C1633.96,154.436 1634.21,153.264 1634.63,152.171 C1635,151.124 1635.8,150.233 1636.97,149.561 L1637.27,149.561 C1637.39,149.561 1637.44,149.561 1637.49,149.53 C1637.52,149.483 1637.61,149.483 1637.64,149.483 L1638.44,149.483 C1638.74,149.483 1638.96,149.686 1639.03,150.03 L1639.03,151.874 L1639.03,153.593 C1638.99,154.233 1638.91,155.03 1638.86,155.952 C1638.83,156.874 1638.78,157.764 1638.74,158.639 C1638.71,159.514 1638.61,160.28 1638.57,160.905 L1638.49,161.874 L1637.94,162.421 L1637.94,166.155 C1638.91,166.155 1639.83,166.03 1640.68,165.827 C1641.52,165.608 1642.32,165.155 1643.11,164.483 C1643.36,162.593 1643.57,160.608 1643.74,158.561 C1643.91,156.499 1644.03,154.514 1644.11,152.639 C1644.46,152.374 1644.75,152.093 1644.96,151.702 C1645.18,151.327 1645.38,150.999 1645.63,150.655 C1645.88,150.327 1646.13,150.077 1646.47,149.811 C1646.8,149.561 1647.22,149.483 1647.77,149.483 C1648.14,149.483 1648.44,149.561 1648.66,149.811 C1648.86,150.077 1648.99,150.358 1649.08,150.702 C1649.16,151.03 1649.21,151.374 1649.24,151.749 C1649.28,152.124 1649.28,152.468 1649.28,152.764 C1649.28,154.936 1649.21,157.124 1648.99,159.264 C1648.78,161.405 1648.69,163.593 1648.69,165.78 C1649.88,165.78 1650.88,165.53 1651.68,165.03 C1652.47,164.514 1653.24,163.843 1653.91,162.968 C1654.03,161.921 1654.16,160.999 1654.24,160.155 C1654.33,159.311 1654.36,158.468 1654.41,157.624 C1654.46,156.796 1654.46,155.952 1654.46,155.155 L1654.46,152.374 L1654.46,151.421 C1654.46,150.952 1654.46,150.452 1654.41,149.936 C1654.36,149.436 1654.36,148.936 1654.36,148.468 L1654.36,147.514 C1654.16,146.577 1653.66,145.905 1652.94,145.483 C1652.22,145.077 1651.43,144.858 1650.63,144.858 C1650,144.858 1649.41,145.03 1648.91,145.28 C1648.41,145.53 1648.02,145.874 1647.64,146.202 C1647.27,146.546 1646.85,146.874 1646.47,147.124 C1646.1,147.374 1645.68,147.514 1645.21,147.514 C1644.78,147.514 1644.5,147.374 1644.28,147.046 C1644.08,146.702 1643.91,146.374 1643.69,145.952 C1643.49,145.53 1643.19,145.202 1642.82,144.858 C1642.44,144.53 1641.82,144.358 1641,144.358 C1640.3,144.358 1639.66,144.53 1639.16,144.858 C1638.66,145.202 1638.11,145.53 1637.64,145.952 C1637.19,146.374 1636.72,146.702 1636.3,147.046 C1635.88,147.374 1635.43,147.514 1634.88,147.514 L1634.38,147.514 C1634.38,147.374 1634.33,147.171 1634.28,146.874 C1634.25,146.577 1634.16,146.249 1634.13,145.952 C1634.03,145.483 1634.13,145.483 1634.03,145.03 C1633.99,144.733 1633.91,144.53 1633.86,144.436 C1633.86,144.358 1633.78,144.264 1633.66,144.186 C1633.53,144.108 1633.41,143.983 1633.32,143.936 L1633.28,143.936 L1633.11,143.889 C1632.77,143.889 1632.44,143.983 1632.07,144.186 C1631.69,144.405 1631.35,144.686 1631.05,145.03 C1630.75,145.358 1630.47,145.702 1630.21,146.03 C1629.96,146.374 1629.8,146.702 1629.75,146.999 C1629.71,147.218 1629.68,147.546 1629.58,148.014 C1629.5,148.468 1629.46,149.014 1629.41,149.561 C1629.38,150.108 1629.33,150.608 1629.28,151.124 C1629.25,151.624 1629.25,151.952 1629.25,152.171"/>
<path class="Harmony" d="M1667.82,144.714 C1666.71,147.246 1666.13,150.371 1665.94,154.011 C1665.86,154.324 1665.86,154.589 1665.86,154.855 C1665.94,156.214 1666.13,156.996 1666.58,157.058 C1666.85,157.121 1667.1,157.121 1667.3,157.121 C1668.14,157.121 1668.86,156.792 1669.5,156.089 C1670.03,155.636 1670.43,155.105 1670.68,154.589 C1670.88,154.402 1671,153.746 1671.19,152.511 C1671.33,151.73 1671.39,151.214 1671.33,150.949 C1671.27,150.683 1671.19,150.23 1671.27,149.449 C1671.33,148.667 1671.39,148.089 1671.46,147.636 C1671.66,146.792 1671.91,146.011 1672.24,145.167 C1672.63,144.183 1673.08,143.277 1673.53,142.371 C1673.99,141.464 1674.52,140.48 1674.97,139.386 C1675.43,138.277 1675.82,137.292 1676.14,136.324 C1676.46,135.355 1676.72,134.433 1676.78,133.464 C1676.85,133.261 1676.85,133.074 1676.85,132.886 C1676.85,132.167 1676.72,131.511 1676.53,130.933 C1676.33,130.214 1675.75,129.496 1674.91,128.917 C1674.07,128.324 1673.02,127.871 1671.66,127.621 C1670.74,127.417 1669.83,127.292 1668.99,127.292 C1664.57,127.355 1661.05,130.089 1658.39,135.48 C1658.07,136.136 1657.8,136.777 1657.55,137.433 C1657.28,138.074 1657.16,138.792 1657.1,139.574 C1657.03,139.964 1657.03,140.355 1657.03,140.746 C1657.03,141.074 1657.03,141.402 1657.1,141.714 C1657.22,142.433 1657.49,142.949 1657.94,143.277 C1658.39,143.605 1658.97,143.933 1659.69,144.386 C1660.28,144.714 1660.99,144.964 1661.71,145.105 C1662.43,145.23 1663.14,145.23 1663.66,145.23 C1664.18,145.23 1664.96,145.105 1665.86,144.964 C1666.78,144.839 1667.43,144.777 1667.82,144.714 M1665.28,133.917 C1665.47,133.855 1665.68,133.855 1665.86,133.855 L1666.46,133.855 L1666.64,133.855 C1667.94,133.855 1669.05,134.246 1670.03,134.964 C1670.82,135.542 1671.19,136.199 1671.19,136.839 C1671.19,136.98 1671.19,137.105 1671.13,137.23 C1670.88,138.277 1669.71,138.996 1667.63,139.386 C1667.43,139.449 1667.3,139.449 1667.18,139.449 C1667.03,139.511 1666.91,139.511 1666.71,139.511 C1665.55,139.511 1664.5,139.121 1663.6,138.277 C1662.88,137.621 1662.49,136.902 1662.49,136.199 C1662.55,136.136 1662.55,135.996 1662.55,135.871 C1662.75,134.824 1663.66,134.183 1665.28,133.917"/>
<path class="Harmony" d="M1036.27,130.993 C1036.92,131.853 1037.38,132.993 1037.72,134.446 C1038.06,135.899 1038.31,137.306 1038.56,138.743 C1038.81,140.196 1038.97,141.556 1039.02,142.743 L1035.22,142.353 L1031.13,142.743 L1033.22,136.493 L1036.27,130.993 M1035.38,148.603 L1036.38,148.603 L1037.88,148.603 L1038.27,148.603 L1038.72,148.603 C1038.77,148.603 1038.92,148.649 1039.13,148.649 C1039.31,148.649 1039.47,148.649 1039.56,148.696 C1039.67,148.743 1039.77,148.806 1039.92,148.853 C1040.06,148.899 1040.17,148.946 1040.27,149.056 C1040.38,149.149 1040.52,149.196 1040.63,149.306 C1040.88,149.556 1041.13,150.056 1041.31,150.696 C1041.52,151.306 1041.72,151.946 1041.88,152.696 C1042.02,153.446 1042.17,154.196 1042.31,155.056 C1042.47,155.899 1042.67,156.649 1042.88,157.353 C1043.06,158.056 1043.38,158.696 1043.67,159.243 C1043.97,159.806 1044.31,160.149 1044.77,160.353 C1044.97,160.446 1045.22,160.493 1045.52,160.493 C1045.77,160.493 1046.08,160.446 1046.38,160.353 C1046.83,160.196 1047.17,159.993 1047.52,159.806 C1047.88,159.603 1048.13,159.399 1048.33,159.149 C1048.52,158.899 1048.67,158.649 1048.83,158.353 C1048.97,158.056 1049.08,157.853 1049.13,157.603 C1049.17,157.399 1049.17,157.196 1049.17,156.946 L1049.17,156.696 C1049.17,156.353 1049.17,155.993 1049.13,155.743 C1049.08,155.493 1048.97,155.196 1048.88,154.806 C1048.77,154.399 1048.67,154.103 1048.58,153.853 C1048.47,153.603 1048.42,153.243 1048.27,152.806 C1048.13,152.353 1047.97,152.056 1047.92,151.853 C1047.58,150.853 1046.97,148.853 1046.13,145.899 C1045.52,143.743 1045.02,141.946 1044.67,140.556 C1044.02,137.993 1043.47,135.899 1043.06,134.243 C1042.42,131.493 1041.92,129.649 1041.67,128.696 C1041.63,128.493 1041.56,128.196 1041.47,127.79 C1041.38,127.399 1041.31,127.04 1041.27,126.743 C1041.22,126.446 1041.06,126.149 1040.97,125.743 C1040.88,125.353 1040.77,124.946 1040.67,124.649 C1040.56,124.353 1040.38,123.993 1040.22,123.649 C1040.06,123.29 1039.88,123.04 1039.67,122.79 C1039.47,122.54 1039.31,122.353 1039.06,122.149 C1038.81,121.946 1038.56,121.743 1038.27,121.696 C1038.02,121.649 1037.77,121.603 1037.47,121.603 L1037.27,121.603 C1036.92,121.649 1036.52,121.696 1036.06,121.853 C1035.72,121.993 1035.31,122.196 1034.97,122.446 C1034.63,122.696 1034.27,122.899 1034.02,123.149 C1033.77,123.399 1033.52,123.743 1033.27,124.149 C1033.02,124.54 1032.77,124.853 1032.63,125.149 C1032.47,125.446 1032.27,125.853 1032.06,126.353 C1031.88,126.853 1031.67,127.243 1031.56,127.54 C1031.47,127.853 1031.38,128.243 1031.17,128.743 C1030.97,129.243 1030.81,129.603 1030.77,129.853 C1029.31,133.493 1027.88,136.946 1026.42,140.306 C1024.06,145.649 1022.67,148.899 1022.27,150.103 C1022.22,150.306 1022.02,150.649 1021.77,151.196 C1021.52,151.743 1021.22,152.243 1020.97,152.743 C1020.72,153.243 1020.47,153.899 1020.17,154.556 C1019.88,155.196 1019.63,155.853 1019.47,156.399 C1019.27,156.946 1019.17,157.446 1019.17,157.899 C1019.22,158.353 1019.31,158.649 1019.56,158.899 C1020.02,159.243 1020.52,159.446 1021.06,159.446 L1021.42,159.446 C1022.13,159.353 1022.81,159.149 1023.52,158.743 C1024.22,158.353 1024.72,157.899 1024.97,157.446 C1025.27,156.899 1025.56,156.243 1025.81,155.446 C1026.06,154.649 1026.31,153.899 1026.47,153.243 C1026.63,152.603 1026.81,151.899 1027.17,151.149 C1027.52,150.399 1027.92,149.806 1028.38,149.306 L1031.06,148.446 C1031.22,148.399 1031.42,148.446 1031.77,148.446 L1033.22,148.446 C1033.38,148.446 1034.13,148.493 1035.38,148.603"/>
<path class="Harmony" d="M1055.27,131.243 C1055.27,131.196 1055.22,130.696 1055.17,129.743 C1055.13,128.79 1055.13,128.243 1055.13,127.993 C1055.13,127.743 1055.13,127.243 1055.06,126.446 C1055.02,125.649 1054.92,125.04 1054.88,124.649 L1054.63,123.149 C1054.52,122.54 1054.42,121.993 1054.31,121.54 C1054.17,120.993 1053.92,120.649 1053.47,120.399 C1053.22,120.243 1053.02,120.196 1052.77,120.196 C1052.56,120.196 1052.38,120.243 1052.13,120.353 C1051.67,120.493 1051.31,120.853 1051.06,121.353 C1050.81,121.853 1050.63,122.446 1050.56,122.993 C1050.52,123.54 1050.47,124.149 1050.42,124.79 L1050.42,125.353 C1050.42,125.743 1050.42,126.103 1050.47,126.353 L1050.47,126.54 C1050.52,128.446 1050.72,131.54 1051.06,135.853 C1051.42,140.149 1051.56,143.399 1051.63,145.696 C1051.67,145.946 1051.63,146.399 1051.56,147.056 C1051.52,147.696 1051.52,148.353 1051.52,148.899 C1051.52,149.446 1051.56,150.056 1051.67,150.649 C1051.77,151.243 1051.92,151.696 1052.22,152.056 C1052.47,152.353 1052.77,152.493 1053.22,152.493 L1053.42,152.493 C1053.88,152.493 1054.31,152.353 1054.77,152.149 C1055.22,151.946 1055.72,151.603 1056.17,151.149 C1056.63,150.696 1056.97,150.353 1057.22,150.056 C1057.47,149.743 1057.81,149.243 1058.27,148.649 C1058.97,147.743 1058.97,147.743 1059.13,147.556 C1059.92,146.493 1060.63,145.493 1061.27,144.556 C1061.92,143.603 1062.56,142.493 1063.27,141.306 C1063.97,140.103 1064.63,138.899 1065.06,137.649 C1065.52,136.399 1065.77,135.243 1065.88,134.196 C1065.92,134.04 1065.92,133.946 1065.92,133.79 C1065.92,132.993 1065.72,132.196 1065.27,131.399 C1064.72,130.446 1064.02,129.743 1063.13,129.196 C1062.31,128.743 1061.52,128.493 1060.77,128.493 L1060.38,128.493 C1059.77,128.54 1059.22,128.743 1058.67,129.04 C1058.13,129.353 1057.47,129.696 1056.77,130.243 C1056.06,130.79 1055.52,131.103 1055.27,131.243 M1055.17,138.743 C1055.31,138.306 1055.63,137.556 1056.02,136.603 C1056.77,134.899 1057.77,134.04 1058.92,134.04 C1059.17,134.04 1059.38,134.103 1059.63,134.149 C1060.67,134.399 1061.22,135.056 1061.22,136.103 C1061.22,137.056 1060.88,138.196 1060.17,139.556 C1059.52,140.806 1059.02,141.649 1058.56,142.056 L1056.52,143.603 C1056.47,143.493 1056.31,143.353 1056.06,143.103 C1055.81,142.853 1055.72,142.603 1055.67,142.353 L1055.22,141.743 L1055.06,140.399 L1055.17,138.743 "/>
<path class="Harmony" d="M1080.81,129.287 C1080.49,130.131 1079.85,131.631 1078.92,133.646 C1078.02,135.646 1077.44,137.146 1076.99,138.256 C1075.75,141.506 1075.1,144.756 1075.1,148.068 C1075.1,148.912 1075.3,149.568 1075.55,150.021 C1075.81,150.474 1076.14,150.662 1076.6,150.662 L1076.66,150.662 C1077.05,150.662 1077.5,150.537 1077.96,150.209 C1078.47,149.896 1078.92,149.428 1079.31,148.787 C1079.78,148.068 1080.1,147.162 1080.24,146.115 C1080.36,145.084 1080.42,143.849 1080.42,142.615 C1080.42,141.381 1080.49,140.396 1080.55,139.756 C1080.75,138.646 1081.02,137.74 1081.27,136.896 C1081.53,136.037 1081.86,135.271 1082.31,134.412 C1082.77,133.568 1083.35,132.537 1084.06,131.303 C1084.19,131.037 1084.46,130.646 1084.78,130.256 C1085.11,129.865 1085.42,129.412 1085.81,128.959 C1086.21,128.506 1086.6,128.053 1086.99,127.521 C1087.38,127.006 1087.83,126.49 1088.16,125.974 C1088.49,125.443 1088.75,124.928 1088.94,124.474 C1089.14,124.021 1089.27,123.568 1089.27,123.115 C1089.21,122.646 1089.06,122.193 1088.81,121.881 C1088.61,121.553 1088.3,121.412 1087.91,121.349 L1087.52,121.349 C1087.31,121.349 1087.05,121.412 1086.8,121.49 C1086.47,121.553 1086.02,121.678 1085.5,121.881 C1085.05,122.006 1084.72,122.068 1084.52,122.131 C1082.11,122.646 1080.03,122.912 1078.22,122.912 C1077.11,122.849 1076.06,122.787 1075.16,122.584 C1075.03,122.584 1074.58,122.459 1073.8,122.193 C1073.21,122.006 1072.75,121.881 1072.3,121.74 C1071.85,121.615 1071.39,121.553 1070.88,121.553 C1070.35,121.553 1069.89,121.615 1069.56,121.881 L1069.25,122.193 C1069.11,122.334 1068.99,122.396 1068.92,122.459 C1068.86,122.521 1068.78,122.724 1068.72,122.849 C1068.66,122.974 1068.53,123.037 1068.53,123.115 C1068.53,123.178 1068.47,123.365 1068.41,123.568 C1068.33,123.756 1068.33,123.881 1068.33,123.959 C1068.33,124.662 1068.21,125.584 1067.88,126.678 L1067.88,126.943 C1067.88,127.459 1068.27,127.99 1069.05,128.568 C1069.64,129.021 1070.41,129.412 1071.27,129.615 C1072.03,129.803 1072.89,129.865 1073.86,129.865 L1074.13,129.865 C1074.83,129.865 1075.94,129.803 1077.44,129.615 C1078.92,129.412 1080.03,129.287 1080.81,129.287"/>
<path class="Harmony" d="M1095.67,128.812 L1095.67,132.515 C1095.71,132.483 1095.78,132.483 1095.86,132.546 C1095.92,132.624 1096,132.702 1096,132.733 C1096,132.78 1096.03,132.89 1096.08,133.077 C1096.11,133.249 1096.16,133.405 1096.19,133.593 C1096.22,133.78 1096.22,133.952 1096.22,134.14 C1096.22,134.327 1096.27,134.437 1096.27,134.483 C1096.27,134.515 1096.3,134.546 1096.38,134.593 C1096.44,134.624 1096.52,134.702 1096.52,134.733 C1096.56,134.765 1096.63,135.03 1096.74,135.515 C1096.86,135.999 1096.97,136.249 1097,136.296 C1097.11,136.624 1097.3,136.952 1097.56,137.358 C1097.81,137.765 1098,138.14 1098.19,138.468 C1098.22,138.546 1098.3,138.702 1098.33,138.874 C1098.38,139.062 1098.41,139.171 1098.44,139.218 L1099.66,140.437 C1099.71,140.468 1099.74,140.577 1099.78,140.733 C1099.81,140.874 1099.89,140.952 1099.92,140.952 L1100.11,140.952 C1100.52,140.952 1100.85,140.812 1101.11,140.546 C1101.36,140.28 1101.55,139.952 1101.66,139.577 C1101.77,139.218 1101.89,138.843 1101.92,138.437 C1101.96,138.03 1102,137.733 1102.06,137.468 L1102.33,137.296 C1102.33,137.249 1102.33,137.171 1102.36,137.062 C1102.41,136.952 1102.41,136.874 1102.41,136.812 C1102.41,136.593 1102.33,136.405 1102.19,136.249 C1102.03,136.108 1101.85,135.843 1101.6,135.515 C1101.33,135.187 1101.11,134.999 1100.92,134.89 C1100.74,134.765 1100.55,134.655 1100.44,134.483 C1100.41,134.405 1100.33,134.249 1100.25,134.03 C1100.19,133.812 1100.11,133.593 1100,133.374 L1099.66,132.702 C1099.55,132.483 1099.52,132.327 1099.49,132.249 L1099.33,132.14 L1099.22,132.03 C1099.22,131.968 1099.19,131.78 1099.11,131.437 C1099.03,131.108 1099,130.89 1098.96,130.812 C1098.85,130.593 1098.74,130.405 1098.6,130.187 C1098.44,129.968 1098.33,129.78 1098.27,129.593 C1098.22,129.483 1098.19,129.265 1098.14,128.858 C1098.11,128.452 1098.03,128.187 1098,128.108 C1098,127.921 1097.92,127.858 1097.74,127.858 L1097.74,116.312 C1097.92,116.343 1098,116.233 1098,116.046 C1098.03,115.968 1098.11,115.796 1098.14,115.452 C1098.19,115.124 1098.22,114.905 1098.27,114.827 C1098.27,114.796 1098.3,114.796 1098.38,114.718 C1098.44,114.64 1098.52,114.608 1098.52,114.562 C1098.52,114.499 1098.55,114.312 1098.6,113.983 C1098.63,113.64 1098.71,113.452 1098.74,113.39 C1098.74,113.343 1098.85,113.202 1099.08,113.015 C1099.3,112.827 1099.44,112.687 1099.49,112.608 C1099.66,112.421 1099.74,112.233 1099.74,112.124 L1099.74,111.608 C1099.74,111.343 1099.71,111.171 1099.66,110.937 C1099.63,110.718 1099.41,110.608 1099.08,110.608 C1098.85,110.608 1098.67,110.765 1098.49,111.046 C1098.3,111.343 1098.11,111.687 1097.92,112.093 C1097.74,112.499 1097.56,112.874 1097.41,113.233 C1097.27,113.608 1097.14,113.905 1097.08,114.093 L1096.92,114.202 L1096.81,114.312 C1096.67,114.796 1096.56,115.39 1096.44,116.046 C1096.33,116.718 1096.19,117.312 1096,117.796 C1096,117.827 1095.92,117.905 1095.86,117.968 C1095.78,118.046 1095.71,118.046 1095.67,118.046 L1095.67,121.718 L1095.33,121.968 L1095.33,128.562 L1095.67,128.812 "/>
<path class="Harmony" d="M1113.3,125.493 L1111.3,126.243 C1111.24,125.149 1111.05,124.04 1110.74,122.899 C1110.49,121.79 1110.14,121.243 1109.8,121.243 C1109.49,121.243 1109.19,121.54 1108.85,122.196 C1108.6,122.649 1108.44,123.196 1108.44,123.79 C1108.44,124.446 1108.49,124.946 1108.55,125.446 C1108.6,125.946 1108.55,126.399 1108.35,126.79 C1107.99,127.04 1107.6,127.29 1107.19,127.54 C1107.14,127.54 1106.8,127.743 1106.1,128.149 C1105.85,128.29 1105.39,128.603 1104.85,129.04 C1104.19,129.493 1104.05,129.899 1104.3,130.29 C1104.05,130.743 1103.94,131.04 1103.94,131.29 C1103.94,131.649 1104.24,131.853 1104.85,131.853 C1105.05,131.79 1105.24,131.79 1105.49,131.743 C1106.44,131.649 1107.35,131.399 1108.3,130.946 C1108.39,131.399 1108.44,131.853 1108.44,132.149 C1108.44,132.446 1108.39,132.743 1108.24,133.04 C1108.1,133.353 1107.94,133.54 1107.8,133.696 C1107.64,133.853 1107.44,134.04 1107.19,134.243 C1106.94,134.446 1106.64,134.696 1106.39,134.853 C1106.14,134.993 1105.89,135.149 1105.64,135.399 C1105.39,135.649 1105.14,135.899 1104.94,136.149 C1104.6,136.556 1104.44,136.946 1104.49,137.306 C1104.55,137.556 1104.74,137.806 1105.1,138.056 C1105.44,138.306 1105.74,138.399 1106.1,138.399 C1106.74,138.353 1107.1,138.306 1107.19,138.196 C1107.55,137.853 1107.8,137.649 1107.89,137.603 C1107.94,137.556 1108.19,137.696 1108.64,137.993 L1108.55,141.446 L1108.99,143.446 C1109.6,143.556 1110.1,143.603 1110.44,143.603 C1110.99,143.603 1111.3,143.493 1111.39,143.306 C1111.64,142.853 1111.8,142.399 1111.8,141.853 L1111.74,140.556 C1111.8,140.149 1111.85,139.743 1111.8,139.306 C1111.74,138.993 1111.74,138.696 1111.69,138.353 C1111.64,138.149 1111.69,137.899 1111.74,137.603 C1111.89,136.899 1112.1,136.306 1112.35,135.853 C1112.64,135.353 1113.05,134.946 1113.6,134.649 L1113.94,137.556 L1114.44,140.056 L1114.89,141.243 C1115.44,141.196 1115.94,141.103 1116.3,140.946 C1116.94,140.649 1117.24,140.196 1117.24,139.556 C1117.24,139.243 1117.14,138.306 1116.94,136.649 C1116.94,136.603 1116.94,136.243 1116.99,135.493 C1117.05,135.306 1116.99,134.899 1116.94,134.243 C1116.89,133.603 1116.99,133.196 1117.24,133.103 C1117.74,132.899 1118.19,132.696 1118.6,132.446 L1119.69,132.196 C1120.24,131.899 1120.6,131.696 1120.74,131.603 C1121.19,131.493 1121.49,131.243 1121.64,130.899 L1121.85,130.446 C1121.85,130.196 1121.69,129.899 1121.44,129.446 C1121.49,129.243 1121.19,129.103 1120.6,128.946 C1119.99,128.79 1119.6,128.743 1119.3,128.696 C1118.99,128.649 1118.6,128.853 1118.1,129.149 C1117.6,129.446 1117.3,129.493 1117.05,129.353 C1116.89,129.196 1116.74,128.743 1116.55,127.899 C1116.49,127.743 1116.55,127.54 1116.69,127.29 C1116.8,127.04 1116.99,126.853 1117.3,126.743 C1117.6,126.649 1117.89,126.493 1118.3,126.353 C1118.69,126.196 1119.14,125.993 1119.69,125.743 C1120.24,125.493 1120.64,125.196 1120.94,124.853 C1121.19,124.54 1121.39,124.243 1121.55,123.946 C1121.19,123.54 1121.14,123.29 1121.3,123.149 C1121.44,123.04 1121.49,122.946 1121.49,122.899 C1121.49,122.649 1121.05,122.493 1120.14,122.353 C1119.99,122.29 1119.89,122.29 1119.74,122.29 C1119.1,122.399 1118.6,122.54 1118.24,122.696 C1117.44,123.04 1116.8,123.29 1116.24,123.493 L1116.24,123.29 C1116.24,122.493 1115.99,121.649 1115.55,120.79 C1115.24,120.243 1114.94,119.946 1114.64,119.946 C1114.3,119.946 1113.94,120.243 1113.6,120.899 C1113.39,121.243 1113.24,121.696 1113.19,122.353 C1113.14,122.79 1113.1,123.243 1113.1,123.603 L1113.1,124.04 C1113.19,124.79 1113.24,125.243 1113.3,125.493 M1111.89,132.04 C1111.74,131.353 1111.64,130.743 1111.6,130.243 C1111.6,129.899 1111.64,129.603 1111.69,129.353 C1111.85,128.79 1112.3,128.493 1112.99,128.493 C1113.19,128.493 1113.39,128.493 1113.64,128.54 C1113.69,128.946 1113.74,129.54 1113.74,130.29 C1113.74,131.149 1113.14,131.743 1111.89,132.04"/>
<path class="Harmony" d="M1126.35,124.807 C1126.35,126.166 1126.24,128.166 1126.05,130.76 C1126.05,130.963 1125.99,131.463 1125.94,132.307 C1125.89,133.166 1125.85,133.87 1125.85,134.416 L1125.85,134.713 C1125.89,135.213 1125.94,135.76 1125.99,136.307 C1126.05,137.01 1126.19,137.51 1126.39,137.807 C1126.55,138.01 1126.74,138.166 1126.89,138.213 C1126.99,138.26 1127.1,138.26 1127.19,138.26 L1127.24,138.26 C1127.85,138.26 1128.49,137.666 1129.3,136.51 C1129.89,135.62 1130.24,134.87 1130.39,134.307 C1130.6,133.51 1130.69,132.557 1130.69,131.51 L1130.69,131.26 C1130.69,130.307 1130.64,129.416 1130.55,128.557 C1130.39,127.604 1130.35,126.604 1130.3,125.51 L1130.3,124.463 C1130.35,123.807 1130.35,123.166 1130.39,122.604 C1130.39,122.463 1130.44,122.26 1130.49,121.916 L1130.69,120.916 C1130.74,120.557 1130.85,120.213 1130.89,119.807 C1130.94,119.416 1130.94,119.057 1130.94,118.713 C1130.94,118.354 1130.94,118.01 1130.89,117.713 C1130.85,117.416 1130.74,117.104 1130.6,116.916 C1130.44,116.713 1130.19,116.604 1129.94,116.604 L1129.85,116.604 C1129.69,116.604 1129.49,116.666 1129.35,116.713 C1129.14,116.807 1128.94,116.963 1128.74,117.104 C1128.55,117.26 1128.39,117.463 1128.3,117.604 C1128.19,117.76 1127.99,117.963 1127.8,118.213 C1127.6,118.463 1127.49,118.666 1127.44,118.713 C1127.19,119.057 1126.64,119.76 1125.69,120.916 C1124.74,122.057 1124.05,123.01 1123.69,123.713 C1123.35,124.354 1123.14,124.916 1123.14,125.26 C1123.14,125.713 1123.35,125.916 1123.8,125.916 L1123.85,125.916 C1124.49,125.854 1125.3,125.51 1126.35,124.807"/>
<path class="Harmony" d="M1135.35,124.807 C1135.35,126.166 1135.24,128.166 1135.05,130.76 C1135.05,130.963 1134.99,131.463 1134.94,132.307 C1134.89,133.166 1134.85,133.87 1134.85,134.416 L1134.85,134.713 C1134.89,135.213 1134.94,135.76 1134.99,136.307 C1135.05,137.01 1135.19,137.51 1135.39,137.807 C1135.55,138.01 1135.74,138.166 1135.89,138.213 C1135.99,138.26 1136.1,138.26 1136.19,138.26 L1136.24,138.26 C1136.85,138.26 1137.49,137.666 1138.3,136.51 C1138.89,135.62 1139.24,134.87 1139.39,134.307 C1139.6,133.51 1139.69,132.557 1139.69,131.51 L1139.69,131.26 C1139.69,130.307 1139.64,129.416 1139.55,128.557 C1139.39,127.604 1139.35,126.604 1139.3,125.51 L1139.3,124.463 C1139.35,123.807 1139.35,123.166 1139.39,122.604 C1139.39,122.463 1139.44,122.26 1139.49,121.916 L1139.69,120.916 C1139.74,120.557 1139.85,120.213 1139.89,119.807 C1139.94,119.416 1139.94,119.057 1139.94,118.713 C1139.94,118.354 1139.94,118.01 1139.89,117.713 C1139.85,117.416 1139.74,117.104 1139.6,116.916 C1139.44,116.713 1139.19,116.604 1138.94,116.604 L1138.85,116.604 C1138.69,116.604 1138.49,116.666 1138.35,116.713 C1138.14,116.807 1137.94,116.963 1137.74,117.104 C1137.55,117.26 1137.39,117.463 1137.3,117.604 C1137.19,117.76 1136.99,117.963 1136.8,118.213 C1136.6,118.463 1136.49,118.666 1136.44,118.713 C1136.19,119.057 1135.64,119.76 1134.69,120.916 C1133.74,122.057 1133.05,123.01 1132.69,123.713 C1132.35,124.354 1132.14,124.916 1132.14,125.26 C1132.14,125.713 1132.35,125.916 1132.8,125.916 L1132.85,125.916 C1133.49,125.854 1134.3,125.51 1135.35,124.807"/>
<path class="Harmony" d="M1146.74,130.374 L1146.74,132.624 C1146.71,132.624 1146.6,132.671 1146.52,132.702 C1146.44,132.733 1146.41,132.812 1146.41,132.843 C1146.36,132.952 1146.3,133.14 1146.22,133.483 C1146.14,133.812 1146.14,133.999 1146.14,134.062 C1146.14,134.108 1146.08,134.187 1146,134.218 C1145.92,134.249 1145.89,134.327 1145.89,134.358 C1145.85,134.405 1145.78,134.515 1145.74,134.702 C1145.71,134.89 1145.66,135.03 1145.63,135.062 C1145.55,135.249 1145.41,135.437 1145.25,135.593 C1145.11,135.733 1145,135.89 1144.92,136.062 C1144.89,136.108 1144.81,136.249 1144.74,136.437 C1144.67,136.624 1144.67,136.733 1144.67,136.765 C1144.63,136.874 1144.52,136.999 1144.3,137.171 C1144.08,137.358 1143.97,137.468 1143.92,137.546 C1143.92,137.577 1143.92,137.733 1143.85,137.921 C1143.78,138.108 1143.71,138.218 1143.67,138.249 C1143.63,138.327 1143.41,138.546 1143.08,138.921 C1142.74,139.28 1142.52,139.468 1142.44,139.546 C1142.16,139.812 1141.97,140.108 1141.89,140.358 C1141.86,140.577 1141.71,140.874 1141.49,141.218 L1141.33,141.327 L1141.22,141.468 C1141.22,141.499 1141.22,141.577 1141.19,141.733 C1141.16,141.874 1141.16,142.03 1141.16,142.093 C1141.27,142.093 1141.46,142.062 1141.71,142.03 C1141.97,141.983 1142.11,141.983 1142.19,141.983 L1142.3,141.843 L1142.44,141.733 C1142.71,141.499 1143.08,141.249 1143.63,140.983 C1144.19,140.733 1144.55,140.468 1144.67,140.249 C1144.67,140.218 1144.67,140.062 1144.74,139.874 C1144.81,139.687 1144.89,139.577 1144.92,139.546 C1144.96,139.437 1145.08,139.28 1145.25,139.108 C1145.44,138.921 1145.6,138.812 1145.63,138.765 C1145.66,138.733 1145.74,138.577 1145.78,138.405 C1145.81,138.218 1145.85,138.108 1145.89,138.062 C1145.92,137.952 1146.08,137.812 1146.3,137.624 C1146.52,137.437 1146.63,137.327 1146.66,137.296 C1146.66,137.249 1146.66,137.14 1146.74,136.921 C1146.81,136.702 1146.85,136.546 1146.85,136.515 C1147.03,136.327 1147.25,136.108 1147.55,135.89 C1147.85,135.655 1148.03,135.358 1148.14,135.062 C1148.19,134.952 1148.25,134.655 1148.36,134.187 C1148.47,133.702 1148.55,133.437 1148.6,133.374 C1148.66,133.187 1148.81,132.999 1149,132.702 C1149.17,132.405 1149.33,132.187 1149.36,132.077 C1149.36,132.03 1149.41,131.968 1149.41,131.78 C1149.41,131.593 1149.41,131.405 1149.44,131.218 C1149.47,131.03 1149.52,130.843 1149.55,130.702 C1149.6,130.562 1149.63,130.405 1149.63,130.374 C1149.63,130.327 1149.66,130.265 1149.74,130.187 C1149.81,130.108 1149.88,130.14 1149.92,130.187 L1149.92,128.187 L1150.33,127.921 L1150.33,119.53 C1150.3,119.53 1150.22,119.53 1150.17,119.452 C1150.14,119.374 1150.11,119.343 1150.06,119.343 C1150.06,119.233 1150.06,119.015 1150,118.562 C1149.92,118.124 1149.85,117.858 1149.81,117.796 L1149.63,117.608 L1149.63,117.312 C1149.63,116.937 1149.55,116.562 1149.36,116.233 C1149.33,116.124 1149.3,115.905 1149.3,115.562 C1149.17,115.343 1149.06,115.124 1148.89,114.937 C1148.71,114.749 1148.6,114.562 1148.52,114.343 C1148.52,114.312 1148.47,114.233 1148.44,114.046 C1148.41,113.858 1148.36,113.687 1148.3,113.499 C1148.22,113.312 1148.19,113.093 1148.14,112.937 C1148.11,112.796 1148.06,112.687 1148.06,112.64 C1147.92,112.421 1147.71,112.202 1147.44,111.983 C1147.19,111.749 1146.96,111.468 1146.78,111.171 C1146.78,111.124 1146.74,110.983 1146.66,110.796 C1146.6,110.608 1146.6,110.499 1146.6,110.468 L1146.44,110.39 C1146.36,110.39 1146.19,110.468 1145.92,110.608 C1145.66,110.765 1145.41,110.937 1145.11,111.124 C1144.81,111.312 1144.55,111.53 1144.3,111.749 C1144.03,111.983 1143.89,112.093 1143.85,112.171 C1143.85,112.202 1143.85,112.312 1143.78,112.499 C1143.71,112.687 1143.63,112.827 1143.6,112.874 C1143.6,112.905 1143.56,112.983 1143.49,113.015 C1143.41,113.046 1143.38,113.093 1143.38,113.124 C1143.33,113.124 1143.33,113.155 1143.33,113.28 L1143.33,113.53 C1143.33,113.827 1143.44,114.093 1143.63,114.343 C1143.81,114.608 1143.97,114.858 1144.08,115.124 C1144.11,115.155 1144.19,115.265 1144.22,115.452 C1144.27,115.64 1144.3,115.796 1144.33,115.827 C1144.6,116.202 1144.85,116.64 1145.08,117.155 C1145.25,117.562 1145.44,117.858 1145.63,118.046 C1145.66,118.077 1145.74,118.202 1145.78,118.421 C1145.81,118.64 1145.85,118.78 1145.89,118.827 L1146.03,118.937 L1146.14,119.046 C1146.36,119.718 1146.49,120.265 1146.52,120.64 C1146.55,121.015 1146.66,121.562 1146.85,122.265 C1147,122.421 1147.06,122.483 1147.11,122.483 L1147.11,130.187 L1146.74,130.374 "/>
<path class="Harmony" d="M901.2,130.993 C901.856,131.853 902.309,132.993 902.653,134.446 C902.997,135.899 903.247,137.306 903.497,138.743 C903.747,140.196 903.903,141.556 903.95,142.743 L900.153,142.353 L896.059,142.743 L898.153,136.493 L901.2,130.993 M900.309,148.603 L901.309,148.603 L902.809,148.603 L903.2,148.603 L903.653,148.603 C903.7,148.603 903.856,148.649 904.059,148.649 C904.247,148.649 904.403,148.649 904.497,148.696 C904.606,148.743 904.7,148.806 904.856,148.853 C904.997,148.899 905.106,148.946 905.2,149.056 C905.309,149.149 905.45,149.196 905.559,149.306 C905.809,149.556 906.059,150.056 906.247,150.696 C906.45,151.306 906.653,151.946 906.809,152.696 C906.95,153.446 907.106,154.196 907.247,155.056 C907.403,155.899 907.606,156.649 907.809,157.353 C907.997,158.056 908.309,158.696 908.606,159.243 C908.903,159.806 909.247,160.149 909.7,160.353 C909.903,160.446 910.153,160.493 910.45,160.493 C910.7,160.493 911.012,160.446 911.309,160.353 C911.762,160.196 912.106,159.993 912.45,159.806 C912.809,159.603 913.059,159.399 913.262,159.149 C913.45,158.899 913.606,158.649 913.762,158.353 C913.903,158.056 914.012,157.853 914.059,157.603 C914.106,157.399 914.106,157.196 914.106,156.946 L914.106,156.696 C914.106,156.353 914.106,155.993 914.059,155.743 C914.012,155.493 913.903,155.196 913.809,154.806 C913.7,154.399 913.606,154.103 913.512,153.853 C913.403,153.603 913.356,153.243 913.2,152.806 C913.059,152.353 912.903,152.056 912.856,151.853 C912.512,150.853 911.903,148.853 911.059,145.899 C910.45,143.743 909.95,141.946 909.606,140.556 C908.95,137.993 908.403,135.899 907.997,134.243 C907.356,131.493 906.856,129.649 906.606,128.696 C906.559,128.493 906.497,128.196 906.403,127.79 C906.309,127.399 906.247,127.04 906.2,126.743 C906.153,126.446 905.997,126.149 905.903,125.743 C905.809,125.353 905.7,124.946 905.606,124.649 C905.497,124.353 905.309,123.993 905.153,123.649 C904.997,123.29 904.809,123.04 904.606,122.79 C904.403,122.54 904.247,122.353 903.997,122.149 C903.747,121.946 903.497,121.743 903.2,121.696 C902.95,121.649 902.7,121.603 902.403,121.603 L902.2,121.603 C901.856,121.649 901.45,121.696 900.997,121.853 C900.653,121.993 900.247,122.196 899.903,122.446 C899.559,122.696 899.2,122.899 898.95,123.149 C898.7,123.399 898.45,123.743 898.2,124.149 C897.95,124.54 897.7,124.853 897.559,125.149 C897.403,125.446 897.2,125.853 896.997,126.353 C896.809,126.853 896.606,127.243 896.497,127.54 C896.403,127.853 896.309,128.243 896.106,128.743 C895.903,129.243 895.747,129.603 895.7,129.853 C894.247,133.493 892.809,136.946 891.356,140.306 C888.997,145.649 887.606,148.899 887.2,150.103 C887.153,150.306 886.95,150.649 886.7,151.196 C886.45,151.743 886.153,152.243 885.903,152.743 C885.653,153.243 885.403,153.899 885.106,154.556 C884.809,155.196 884.559,155.853 884.403,156.399 C884.2,156.946 884.106,157.446 884.106,157.899 C884.153,158.353 884.247,158.649 884.497,158.899 C884.95,159.243 885.45,159.446 885.997,159.446 L886.356,159.446 C887.059,159.353 887.747,159.149 888.45,158.743 C889.153,158.353 889.653,157.899 889.903,157.446 C890.2,156.899 890.497,156.243 890.747,155.446 C890.997,154.649 891.247,153.899 891.403,153.243 C891.559,152.603 891.747,151.899 892.106,151.149 C892.45,150.399 892.856,149.806 893.309,149.306 L895.997,148.446 C896.153,148.399 896.356,148.446 896.7,148.446 L898.153,148.446 C898.309,148.446 899.059,148.493 900.309,148.603"/>
<path class="Harmony" d="M916.168,146.04 C916.168,148.181 916.122,149.649 916.075,150.368 C916.043,150.415 915.997,151.243 915.95,152.806 C915.918,153.181 915.872,154.056 915.825,155.54 C915.825,155.618 915.747,155.946 915.575,156.54 C915.403,157.134 915.372,157.462 915.372,157.681 L915.372,157.962 C915.403,158.384 915.403,158.728 915.45,159.024 C915.497,159.228 915.7,159.353 916.122,159.353 C916.247,159.353 916.59,159.274 916.997,159.056 C917.418,158.853 917.84,158.603 918.34,158.306 C918.856,158.009 919.278,157.712 919.653,157.462 C920.028,157.212 920.2,156.962 920.231,156.837 C920.528,155.79 920.653,154.696 920.653,153.509 L920.653,153.306 L920.653,152.634 C920.622,152.509 920.622,152.337 920.622,152.134 C920.653,151.54 920.7,150.665 920.778,149.524 C920.872,148.306 921.122,147.134 921.543,146.04 C921.918,144.993 922.715,144.103 923.887,143.431 L924.184,143.431 C924.309,143.431 924.356,143.431 924.403,143.399 C924.434,143.353 924.528,143.353 924.559,143.353 L925.356,143.353 C925.653,143.353 925.872,143.556 925.95,143.899 L925.95,145.743 L925.95,147.462 C925.903,148.103 925.825,148.899 925.778,149.821 C925.747,150.743 925.7,151.634 925.653,152.509 C925.622,153.384 925.528,154.149 925.481,154.774 L925.403,155.743 L924.856,156.29 L924.856,160.024 C925.825,160.024 926.747,159.899 927.59,159.696 C928.434,159.478 929.231,159.024 930.028,158.353 C930.278,156.462 930.481,154.478 930.653,152.431 C930.825,150.368 930.95,148.384 931.028,146.509 C931.372,146.243 931.668,145.962 931.872,145.571 C932.09,145.196 932.293,144.868 932.543,144.524 C932.793,144.196 933.043,143.946 933.387,143.681 C933.715,143.431 934.137,143.353 934.684,143.353 C935.059,143.353 935.356,143.431 935.575,143.681 C935.778,143.946 935.903,144.228 935.997,144.571 C936.075,144.899 936.122,145.243 936.153,145.618 C936.2,145.993 936.2,146.337 936.2,146.634 C936.2,148.806 936.122,150.993 935.903,153.134 C935.7,155.274 935.606,157.462 935.606,159.649 C936.793,159.649 937.793,159.399 938.59,158.899 C939.387,158.384 940.153,157.712 940.825,156.837 C940.95,155.79 941.075,154.868 941.153,154.024 C941.247,153.181 941.278,152.337 941.325,151.493 C941.372,150.665 941.372,149.821 941.372,149.024 L941.372,146.243 L941.372,145.29 C941.372,144.821 941.372,144.321 941.325,143.806 C941.278,143.306 941.278,142.806 941.278,142.337 L941.278,141.384 C941.075,140.446 940.575,139.774 939.856,139.353 C939.137,138.946 938.34,138.728 937.543,138.728 C936.918,138.728 936.325,138.899 935.825,139.149 C935.325,139.399 934.934,139.743 934.559,140.071 C934.184,140.415 933.762,140.743 933.387,140.993 C933.012,141.243 932.59,141.384 932.122,141.384 C931.7,141.384 931.418,141.243 931.2,140.915 C930.997,140.571 930.825,140.243 930.606,139.821 C930.403,139.399 930.106,139.071 929.731,138.728 C929.356,138.399 928.731,138.228 927.918,138.228 C927.215,138.228 926.575,138.399 926.075,138.728 C925.575,139.071 925.028,139.399 924.559,139.821 C924.106,140.243 923.637,140.571 923.215,140.915 C922.793,141.243 922.34,141.384 921.793,141.384 L921.293,141.384 C921.293,141.243 921.247,141.04 921.2,140.743 C921.168,140.446 921.075,140.118 921.043,139.821 C920.95,139.353 921.043,139.353 920.95,138.899 C920.903,138.603 920.825,138.399 920.778,138.306 C920.778,138.228 920.7,138.134 920.575,138.056 C920.45,137.978 920.325,137.853 920.231,137.806 L920.2,137.806 L920.028,137.759 C919.684,137.759 919.356,137.853 918.981,138.056 C918.606,138.274 918.262,138.556 917.965,138.899 C917.668,139.228 917.387,139.571 917.122,139.899 C916.872,140.243 916.715,140.571 916.668,140.868 C916.622,141.087 916.59,141.415 916.497,141.884 C916.418,142.337 916.372,142.884 916.325,143.431 C916.293,143.978 916.247,144.478 916.2,144.993 C916.168,145.493 916.168,145.821 916.168,146.04"/>
<path class="Harmony" d="M947.387,133.115 C947.387,134.881 947.262,137.474 946.997,140.849 C946.997,141.115 946.934,141.771 946.872,142.865 C946.809,143.974 946.731,144.881 946.731,145.599 L946.731,145.99 C946.809,146.646 946.872,147.349 946.934,148.068 C946.997,148.974 947.2,149.631 947.45,150.021 C947.653,150.287 947.903,150.474 948.106,150.537 C948.231,150.599 948.356,150.599 948.497,150.599 L948.559,150.599 C949.34,150.599 950.184,149.818 951.231,148.334 C951.997,147.162 952.465,146.178 952.653,145.474 C952.918,144.428 953.043,143.193 953.043,141.834 L953.043,141.506 C953.043,140.271 952.981,139.099 952.856,137.99 C952.653,136.756 952.59,135.459 952.528,134.021 L952.528,132.662 C952.59,131.818 952.59,130.974 952.653,130.256 C952.653,130.068 952.715,129.803 952.778,129.349 L953.043,128.053 C953.106,127.599 953.231,127.131 953.309,126.615 C953.372,126.099 953.372,125.646 953.372,125.193 C953.372,124.74 953.372,124.271 953.309,123.881 C953.231,123.506 953.106,123.115 952.918,122.849 C952.715,122.584 952.387,122.459 952.075,122.459 L951.934,122.459 C951.747,122.459 951.481,122.521 951.293,122.584 C951.028,122.724 950.762,122.912 950.512,123.115 C950.247,123.303 950.059,123.568 949.918,123.756 C949.793,123.959 949.528,124.209 949.278,124.537 C949.012,124.865 948.887,125.131 948.825,125.193 C948.497,125.646 947.778,126.553 946.543,128.053 C945.309,129.537 944.403,130.771 943.95,131.693 C943.481,132.537 943.231,133.256 943.231,133.709 C943.231,134.287 943.481,134.553 944.075,134.553 L944.137,134.553 C944.981,134.49 946.028,134.021 947.387,133.115"/>
<path class="Harmony" d="M959.387,133.115 C959.387,134.881 959.262,137.474 958.997,140.849 C958.997,141.115 958.934,141.771 958.872,142.865 C958.809,143.974 958.731,144.881 958.731,145.599 L958.731,145.99 C958.809,146.646 958.872,147.349 958.934,148.068 C958.997,148.974 959.2,149.631 959.45,150.021 C959.653,150.287 959.903,150.474 960.106,150.537 C960.231,150.599 960.356,150.599 960.497,150.599 L960.559,150.599 C961.34,150.599 962.184,149.818 963.231,148.334 C963.997,147.162 964.465,146.178 964.653,145.474 C964.918,144.428 965.043,143.193 965.043,141.834 L965.043,141.506 C965.043,140.271 964.981,139.099 964.856,137.99 C964.653,136.756 964.59,135.459 964.528,134.021 L964.528,132.662 C964.59,131.818 964.59,130.974 964.653,130.256 C964.653,130.068 964.715,129.803 964.778,129.349 L965.043,128.053 C965.106,127.599 965.231,127.131 965.309,126.615 C965.372,126.099 965.372,125.646 965.372,125.193 C965.372,124.74 965.372,124.271 965.309,123.881 C965.231,123.506 965.106,123.115 964.918,122.849 C964.715,122.584 964.387,122.459 964.075,122.459 L963.934,122.459 C963.747,122.459 963.481,122.521 963.293,122.584 C963.028,122.724 962.762,122.912 962.512,123.115 C962.247,123.303 962.059,123.568 961.918,123.756 C961.793,123.959 961.528,124.209 961.278,124.537 C961.012,124.865 960.887,125.131 960.825,125.193 C960.497,125.646 959.778,126.553 958.543,128.053 C957.309,129.537 956.403,130.771 955.95,131.693 C955.481,132.537 955.231,133.256 955.231,133.709 C955.231,134.287 955.481,134.553 956.075,134.553 L956.137,134.553 C956.981,134.49 958.028,134.021 959.387,133.115"/>
<path class="Harmony" d="M1214.24,114.486 C1212.28,114.736 1210.44,115.189 1208.63,115.83 C1206.83,116.486 1205.19,117.393 1203.58,118.439 C1201.99,119.486 1200.53,120.689 1199.28,122.033 C1198.03,123.393 1196.99,124.939 1196.08,126.689 C1195.19,128.439 1194.58,130.283 1194.24,132.236 C1193.99,133.439 1193.88,134.689 1193.88,135.939 L1193.88,136.283 C1193.88,137.486 1193.94,138.643 1194.08,139.783 C1194.24,141.033 1194.53,142.283 1194.94,143.439 C1195.38,144.643 1195.88,145.783 1196.44,146.846 C1196.99,147.893 1197.69,148.846 1198.49,149.689 C1199.28,150.533 1200.28,151.236 1201.28,151.846 C1202.28,152.439 1203.44,152.893 1204.69,153.143 C1205.53,153.283 1206.38,153.393 1207.24,153.393 C1207.69,153.393 1208.19,153.393 1208.74,153.346 C1210.28,153.189 1211.74,152.846 1213.08,152.346 C1214.44,151.846 1215.69,151.236 1216.74,150.533 C1217.78,149.846 1218.83,148.939 1219.78,147.939 C1220.74,146.939 1221.64,145.846 1222.39,144.736 C1223.14,143.643 1223.83,142.393 1224.58,140.986 C1225.74,138.689 1226.28,136.736 1226.28,135.189 C1226.28,133.643 1225.74,132.439 1224.58,131.596 C1223.94,131.033 1222.83,130.689 1221.39,130.439 C1220.33,130.283 1219.28,130.189 1218.24,130.189 L1217.99,130.189 L1216.88,130.189 C1215.33,130.236 1213.88,130.486 1212.49,130.939 C1211.08,131.393 1210.13,131.939 1209.63,132.596 C1209.49,132.846 1209.33,133.033 1209.19,133.236 C1208.83,133.783 1208.63,134.283 1208.63,134.736 C1208.63,135.393 1209.08,135.846 1209.94,136.096 C1210.63,136.283 1211.99,136.393 1213.94,136.393 L1214.38,136.393 C1215.03,136.439 1215.53,136.439 1215.88,136.439 C1217.94,136.439 1219.19,136.689 1219.58,137.236 C1219.74,137.439 1219.89,137.736 1219.89,138.033 C1219.89,138.346 1219.83,138.643 1219.78,138.939 C1219.74,139.236 1219.58,139.596 1219.44,139.986 C1219.28,140.393 1219.13,140.689 1218.99,140.939 C1218.83,141.189 1218.69,141.533 1218.49,141.939 C1218.28,142.346 1218.13,142.533 1218.08,142.643 C1217.83,143.096 1217.69,143.439 1217.53,143.689 C1217.38,143.939 1217.19,144.189 1216.94,144.533 C1216.69,144.893 1216.38,145.189 1216.13,145.393 C1215.08,146.189 1213.94,146.736 1212.58,146.986 L1210.88,147.189 L1210.69,147.189 C1210.03,147.143 1209.33,147.096 1208.69,146.939 C1207.44,146.689 1206.19,146.236 1205.03,145.533 C1203.88,144.846 1202.88,143.986 1202.13,142.986 C1201.38,141.939 1200.69,140.689 1200.19,139.283 C1199.69,137.893 1199.38,136.439 1199.28,134.893 C1199.24,134.346 1199.24,133.846 1199.24,133.283 C1199.24,132.283 1199.28,131.283 1199.44,130.346 C1199.69,128.893 1200.13,127.486 1200.83,126.189 C1201.53,124.893 1202.44,123.83 1203.53,123.033 C1204.88,121.986 1206.53,121.236 1208.44,120.736 C1209.49,120.439 1210.53,120.283 1211.53,120.283 C1212.24,120.283 1212.94,120.393 1213.58,120.533 C1214.13,120.689 1214.69,120.893 1215.33,121.189 C1215.99,121.486 1216.53,121.783 1217.03,122.08 C1217.53,122.393 1218.08,122.689 1218.63,122.986 C1219.19,123.283 1219.74,123.533 1220.24,123.643 C1220.74,123.736 1221.24,123.783 1221.74,123.736 C1222.24,123.689 1222.74,123.439 1223.24,122.986 C1223.74,122.533 1224.19,121.939 1224.64,121.189 C1224.89,120.736 1225.03,120.283 1225.03,119.83 C1225.03,119.486 1224.94,119.189 1224.78,118.83 C1224.39,118.08 1223.74,117.439 1222.83,116.893 C1221.94,116.33 1220.99,115.83 1219.89,115.439 C1218.78,115.033 1217.74,114.783 1216.69,114.643 C1215.94,114.486 1215.33,114.439 1214.83,114.439 C1214.58,114.439 1214.38,114.439 1214.24,114.486"/>
<path class="Harmony" d="M1229.05,139.83 C1229.05,141.971 1229,143.439 1228.95,144.158 C1228.92,144.205 1228.88,145.033 1228.83,146.596 C1228.8,146.971 1228.75,147.846 1228.7,149.33 C1228.7,149.408 1228.63,149.736 1228.45,150.33 C1228.28,150.924 1228.25,151.252 1228.25,151.471 L1228.25,151.752 C1228.28,152.174 1228.28,152.518 1228.33,152.814 C1228.38,153.018 1228.58,153.143 1229,153.143 C1229.13,153.143 1229.47,153.064 1229.88,152.846 C1230.3,152.643 1230.72,152.393 1231.22,152.096 C1231.74,151.799 1232.16,151.502 1232.53,151.252 C1232.91,151.002 1233.08,150.752 1233.11,150.627 C1233.41,149.58 1233.53,148.486 1233.53,147.299 L1233.53,147.096 L1233.53,146.424 C1233.5,146.299 1233.5,146.127 1233.5,145.924 C1233.53,145.33 1233.58,144.455 1233.66,143.314 C1233.75,142.096 1234,140.924 1234.42,139.83 C1234.8,138.783 1235.6,137.893 1236.77,137.221 L1237.06,137.221 C1237.19,137.221 1237.24,137.221 1237.28,137.189 C1237.31,137.143 1237.41,137.143 1237.44,137.143 L1238.24,137.143 C1238.53,137.143 1238.75,137.346 1238.83,137.689 L1238.83,139.533 L1238.83,141.252 C1238.78,141.893 1238.7,142.689 1238.66,143.611 C1238.63,144.533 1238.58,145.424 1238.53,146.299 C1238.5,147.174 1238.41,147.939 1238.36,148.564 L1238.28,149.533 L1237.74,150.08 L1237.74,153.814 C1238.7,153.814 1239.63,153.689 1240.47,153.486 C1241.31,153.268 1242.11,152.814 1242.91,152.143 C1243.16,150.252 1243.36,148.268 1243.53,146.221 C1243.7,144.158 1243.83,142.174 1243.91,140.299 C1244.25,140.033 1244.55,139.752 1244.75,139.361 C1244.97,138.986 1245.17,138.658 1245.42,138.314 C1245.67,137.986 1245.92,137.736 1246.27,137.471 C1246.6,137.221 1247.02,137.143 1247.56,137.143 C1247.94,137.143 1248.24,137.221 1248.45,137.471 C1248.66,137.736 1248.78,138.018 1248.88,138.361 C1248.95,138.689 1249,139.033 1249.03,139.408 C1249.08,139.783 1249.08,140.127 1249.08,140.424 C1249.08,142.596 1249,144.783 1248.78,146.924 C1248.58,149.064 1248.49,151.252 1248.49,153.439 C1249.67,153.439 1250.67,153.189 1251.47,152.689 C1252.27,152.174 1253.03,151.502 1253.7,150.627 C1253.83,149.58 1253.95,148.658 1254.03,147.814 C1254.13,146.971 1254.16,146.127 1254.2,145.283 C1254.25,144.455 1254.25,143.611 1254.25,142.814 L1254.25,140.033 L1254.25,139.08 C1254.25,138.611 1254.25,138.111 1254.2,137.596 C1254.16,137.096 1254.16,136.596 1254.16,136.127 L1254.16,135.174 C1253.95,134.236 1253.45,133.564 1252.74,133.143 C1252.02,132.736 1251.22,132.518 1250.42,132.518 C1249.8,132.518 1249.2,132.689 1248.7,132.939 C1248.2,133.189 1247.81,133.533 1247.44,133.861 C1247.06,134.205 1246.64,134.533 1246.27,134.783 C1245.89,135.033 1245.47,135.174 1245,135.174 C1244.58,135.174 1244.3,135.033 1244.08,134.705 C1243.88,134.361 1243.7,134.033 1243.49,133.611 C1243.28,133.189 1242.99,132.861 1242.61,132.518 C1242.24,132.189 1241.61,132.018 1240.8,132.018 C1240.1,132.018 1239.45,132.189 1238.95,132.518 C1238.45,132.861 1237.91,133.189 1237.44,133.611 C1236.99,134.033 1236.52,134.361 1236.1,134.705 C1235.67,135.033 1235.22,135.174 1234.67,135.174 L1234.17,135.174 C1234.17,135.033 1234.13,134.83 1234.08,134.533 C1234.05,134.236 1233.95,133.908 1233.92,133.611 C1233.83,133.143 1233.92,133.143 1233.83,132.689 C1233.78,132.393 1233.7,132.189 1233.66,132.096 C1233.66,132.018 1233.58,131.924 1233.45,131.846 C1233.33,131.768 1233.2,131.643 1233.11,131.596 L1233.08,131.596 L1232.91,131.549 C1232.56,131.549 1232.24,131.643 1231.86,131.846 C1231.49,132.064 1231.14,132.346 1230.85,132.689 C1230.55,133.018 1230.27,133.361 1230,133.689 C1229.75,134.033 1229.6,134.361 1229.55,134.658 C1229.5,134.877 1229.47,135.205 1229.38,135.674 C1229.3,136.127 1229.25,136.674 1229.2,137.221 C1229.17,137.768 1229.13,138.268 1229.08,138.783 C1229.05,139.283 1229.05,139.611 1229.05,139.83 M1269.22,137.596 C1268.89,139.752 1268.64,140.877 1268.42,141.049 C1268.39,141.096 1268.35,141.346 1268.22,141.893 L1268.05,142.471 C1267.92,143.189 1267.85,143.533 1267.75,143.533 C1267.72,144.111 1267.5,144.705 1267.13,145.283 C1266.5,146.221 1266.08,146.846 1265.86,147.143 C1265.41,147.814 1264.39,148.143 1262.8,148.143 L1262.63,148.143 C1262.38,148.111 1262.17,147.939 1262.08,147.721 C1262,147.518 1261.95,147.268 1261.92,146.971 L1261.92,146.549 L1261.92,146.174 C1261.95,145.877 1261.95,145.705 1261.95,145.627 C1261.95,144.33 1262.08,143.143 1262.33,142.018 C1262.6,140.877 1263,139.955 1263.6,139.158 C1264.19,138.361 1264.89,137.689 1265.86,137.221 C1266.83,136.768 1268,136.549 1269.39,136.549 C1269.35,136.674 1269.31,137.049 1269.22,137.596 M1260.78,153.439 C1261.92,152.814 1263.05,152.049 1264.1,151.221 C1264.14,151.221 1264.52,151.049 1265.28,150.705 C1265.66,150.502 1266.03,150.408 1266.33,150.408 C1266.5,150.408 1266.66,150.455 1266.78,150.502 L1266.75,154.189 C1266.95,154.189 1267.13,154.158 1267.33,154.111 C1267.85,153.986 1268.17,153.908 1268.39,153.814 L1269.19,153.439 C1269.19,153.236 1269.52,152.939 1270.19,152.643 C1270.61,152.299 1270.99,152.018 1271.33,151.846 C1271.66,151.674 1271.91,151.299 1272.17,150.674 C1272.25,150.502 1272.3,150.283 1272.25,150.002 L1272.13,148.689 C1272.08,148.393 1272.08,148.189 1272.08,147.971 C1272.13,147.596 1272.17,147.346 1272.17,147.299 C1272.2,147.096 1272.17,146.846 1272.03,146.549 C1272.03,146.502 1272.13,146.174 1272.3,145.549 L1272.58,144.658 C1272.67,144.361 1272.88,143.564 1273.17,142.174 C1273.47,140.799 1273.64,139.783 1273.77,139.158 C1273.89,138.533 1274.02,138.111 1274.05,137.986 C1274.1,137.768 1274.14,137.439 1274.19,136.971 C1274.22,136.518 1274.27,136.002 1274.35,135.455 C1274.44,134.908 1274.52,134.408 1274.6,133.955 C1274.69,133.486 1274.74,133.189 1274.74,132.986 C1274.69,132.861 1274.6,132.736 1274.44,132.611 C1274.27,132.471 1274.14,132.346 1274.05,132.314 C1273.72,132.221 1273.13,132.096 1272.33,131.924 C1271.53,131.768 1271.03,131.643 1270.81,131.643 C1269.86,131.768 1268.67,132.018 1267.33,132.471 C1265.83,132.986 1264.49,133.564 1263.35,134.236 C1262.72,134.627 1261.63,135.752 1260.03,137.643 C1259.61,138.111 1259.22,138.814 1258.85,139.705 C1258.64,140.252 1258.35,140.877 1258.05,141.549 C1257.85,142.018 1257.63,142.721 1257.33,143.689 C1257.2,144.064 1257.05,144.533 1256.88,145.127 C1256.88,145.158 1256.8,145.424 1256.58,145.924 C1256.58,146.049 1256.53,146.221 1256.45,146.549 C1256.38,146.893 1256.25,147.049 1256.16,147.096 C1256.13,147.174 1256.08,147.393 1256.08,147.689 C1256.13,147.814 1256.13,147.939 1256.13,148.064 L1256.13,149.064 C1256.13,149.361 1256.16,149.736 1256.2,150.33 C1256.25,150.924 1256.33,151.221 1256.38,151.252 C1256.38,151.299 1256.5,151.471 1256.7,151.674 C1256.92,151.893 1257.13,152.143 1257.38,152.424 C1257.63,152.721 1257.97,152.971 1258.22,153.236 C1258.47,153.486 1258.69,153.689 1258.89,153.814 C1258.94,153.861 1258.94,153.861 1258.97,153.861 L1259.14,153.861 C1259.74,153.861 1260.28,153.736 1260.78,153.439 M1281.03,124.408 C1281.03,124.955 1281.16,125.377 1281.41,125.799 C1281.66,126.221 1282.13,126.424 1282.8,126.424 C1283.6,126.424 1284.49,126.174 1285.31,125.721 C1286.16,125.252 1286.58,124.533 1286.58,123.611 C1286.58,123.064 1286.36,122.518 1285.99,121.939 C1285.61,121.346 1285.16,121.049 1284.61,121.049 C1284.52,121.049 1284.39,121.049 1284.27,121.096 C1284.14,121.143 1284.06,121.143 1284.02,121.143 C1283.94,121.174 1283.8,121.221 1283.55,121.299 C1283.3,121.393 1283.05,121.471 1282.75,121.596 L1282,121.893 C1281.78,121.971 1281.66,122.064 1281.63,122.096 C1281.28,122.314 1281.11,122.689 1281.08,123.189 C1281.03,123.705 1281.03,124.08 1281.03,124.408 M1273.17,163.189 C1273.05,163.393 1273.02,163.611 1273.02,163.814 C1272.97,164.283 1273.14,164.611 1273.52,164.83 C1273.64,164.861 1273.81,164.908 1273.94,164.955 C1274.06,164.986 1274.24,164.986 1274.44,164.955 C1274.61,164.908 1274.81,164.861 1274.99,164.783 C1275.16,164.705 1275.24,164.611 1275.28,164.564 L1277.67,163.393 C1278.47,163.018 1279.22,162.596 1279.89,162.096 C1280.56,161.596 1281.16,160.955 1281.66,160.283 C1282.17,159.611 1282.5,158.768 1282.72,157.721 C1282.75,157.424 1282.88,157.018 1282.97,156.424 C1283.05,155.83 1283.13,155.252 1283.27,154.658 L1283.6,153.096 C1283.67,152.643 1283.72,152.346 1283.72,152.268 L1283.67,150.83 C1283.72,150.205 1283.8,149.408 1283.89,148.361 L1284.19,145.455 C1284.31,144.486 1284.39,143.689 1284.49,143.018 L1284.61,142.018 L1285.06,141.549 L1285.11,140.674 C1285.16,140.033 1285.24,139.33 1285.28,138.486 L1285.41,135.846 C1285.44,134.955 1285.49,134.205 1285.53,133.611 L1285.53,133.111 C1285.53,132.439 1285.24,132.096 1284.61,132.096 C1284.35,132.096 1284.06,132.189 1283.77,132.346 C1283.47,132.518 1283.13,132.736 1282.75,132.939 C1282.38,133.143 1282.08,133.408 1281.78,133.611 C1281.5,133.814 1281.25,134.033 1281.11,134.158 C1280.78,134.533 1280.56,135.002 1280.44,135.58 C1280.31,136.174 1280.19,136.799 1280.16,137.439 C1280.11,137.861 1280.11,138.268 1280.11,138.689 C1280.11,138.908 1280.16,139.158 1280.16,139.408 L1280.16,140.002 C1280.16,140.377 1280.16,140.752 1280.11,141.049 C1280.11,141.127 1280.06,141.424 1280.03,141.924 C1279.99,142.439 1279.94,142.939 1279.89,143.486 C1279.86,144.033 1279.77,144.533 1279.74,145.033 C1279.69,145.549 1279.64,145.83 1279.64,145.924 C1279.64,146.049 1279.69,146.299 1279.69,146.674 C1279.69,147.049 1279.69,147.299 1279.64,147.393 C1279.61,147.846 1279.56,148.393 1279.56,149.064 C1279.56,149.736 1279.49,150.33 1279.44,150.955 C1279.39,151.002 1279.31,151.471 1279.27,152.268 L1278.81,152.689 C1278.81,152.939 1278.77,153.314 1278.72,153.783 C1278.69,154.236 1278.64,154.783 1278.55,155.283 C1278.47,155.799 1278.42,156.252 1278.39,156.721 C1278.35,157.174 1278.27,157.518 1278.22,157.721 C1278.22,157.939 1278.17,158.314 1278.05,158.814 C1277.92,159.314 1277.85,159.58 1277.75,159.658 C1277.38,160.377 1276.83,160.877 1276.16,161.205 C1275.49,161.549 1274.94,161.846 1274.56,162.049 C1274.19,162.268 1273.72,162.643 1273.17,163.189"/>
<path class="Harmony" d="M1292.27,126.905 C1292.27,128.671 1292.14,131.264 1291.88,134.639 C1291.88,134.905 1291.81,135.561 1291.75,136.655 C1291.69,137.764 1291.61,138.671 1291.61,139.389 L1291.61,139.78 C1291.69,140.436 1291.75,141.139 1291.81,141.858 C1291.88,142.764 1292.08,143.421 1292.33,143.811 C1292.53,144.077 1292.78,144.264 1292.99,144.327 C1293.11,144.389 1293.24,144.389 1293.38,144.389 L1293.44,144.389 C1294.22,144.389 1295.06,143.608 1296.11,142.124 C1296.88,140.952 1297.35,139.968 1297.53,139.264 C1297.8,138.218 1297.92,136.983 1297.92,135.624 L1297.92,135.296 C1297.92,134.061 1297.86,132.889 1297.74,131.78 C1297.53,130.546 1297.47,129.249 1297.41,127.811 L1297.41,126.452 C1297.47,125.608 1297.47,124.764 1297.53,124.046 C1297.53,123.858 1297.6,123.593 1297.66,123.139 L1297.92,121.843 C1297.99,121.389 1298.11,120.921 1298.19,120.405 C1298.25,119.889 1298.25,119.436 1298.25,118.983 C1298.25,118.53 1298.25,118.061 1298.19,117.671 C1298.11,117.296 1297.99,116.905 1297.8,116.639 C1297.6,116.374 1297.27,116.249 1296.95,116.249 L1296.81,116.249 C1296.63,116.249 1296.36,116.311 1296.17,116.374 C1295.91,116.514 1295.64,116.702 1295.39,116.905 C1295.13,117.093 1294.94,117.358 1294.8,117.546 C1294.67,117.749 1294.41,117.999 1294.16,118.327 C1293.89,118.655 1293.77,118.921 1293.7,118.983 C1293.38,119.436 1292.66,120.343 1291.42,121.843 C1290.19,123.327 1289.28,124.561 1288.83,125.483 C1288.36,126.327 1288.11,127.046 1288.11,127.499 C1288.11,128.077 1288.36,128.343 1288.95,128.343 L1289.02,128.343 C1289.86,128.28 1290.91,127.811 1292.27,126.905"/>
<path class="Harmony" d="M1309.27,123.796 C1308.81,124.374 1308.3,125.03 1307.58,125.608 C1306.86,126.186 1306.22,126.655 1305.63,127.046 C1305.05,127.436 1304.47,127.952 1303.81,128.593 C1303.16,129.249 1302.7,129.905 1302.31,130.608 C1301.74,131.593 1301.47,132.436 1301.47,133.014 C1301.47,133.608 1301.8,133.999 1302.38,134.186 C1302.7,134.249 1303.16,134.249 1303.69,134.061 C1304.2,133.858 1304.66,133.608 1305.24,133.28 L1307,132.311 C1307.58,131.983 1308.11,131.78 1308.63,131.593 C1309.14,131.389 1309.66,131.389 1310.19,131.593 C1310.7,131.78 1311.03,132.171 1311.28,132.764 C1311.42,132.952 1311.42,133.155 1311.42,133.343 C1311.42,133.999 1310.7,134.702 1309.27,135.483 C1308.81,135.686 1308.36,135.936 1307.78,136.139 C1307.19,136.327 1306.74,136.53 1306.35,136.655 C1305.95,136.796 1305.5,136.983 1305.05,137.249 C1304.6,137.499 1304.2,137.764 1303.94,138.093 C1303.69,138.421 1303.36,138.733 1303.03,139.264 C1302.7,139.78 1302.52,140.358 1302.45,141.014 C1302.38,141.468 1302.52,141.858 1302.64,142.186 C1302.77,142.514 1302.97,142.702 1303.3,142.764 C1303.55,142.827 1303.88,142.905 1304.2,142.905 C1304.27,142.827 1304.27,142.827 1304.33,142.827 C1304.72,142.827 1305.11,142.827 1305.44,142.764 C1305.77,142.702 1306.16,142.577 1306.47,142.514 C1310.19,141.28 1313.24,138.999 1315.64,135.811 C1316.24,135.03 1316.61,134.186 1316.94,133.28 C1317.27,132.374 1317.47,131.327 1317.53,130.358 L1317.53,129.764 C1317.53,128.983 1317.39,128.28 1317.08,127.561 C1317,127.296 1316.75,126.968 1316.36,126.514 C1315.97,126.061 1315.64,125.671 1315.38,125.218 C1315.13,124.764 1314.99,124.374 1315.06,124.046 C1315.13,123.796 1315.31,123.468 1315.64,123.014 C1315.97,122.546 1316.3,122.093 1316.69,121.702 C1317.08,121.311 1317.47,120.921 1317.92,120.405 C1318.38,119.889 1318.7,119.436 1318.95,118.983 C1319.28,118.53 1319.41,117.999 1319.41,117.483 C1319.41,117.03 1319.28,116.702 1318.95,116.374 C1318.63,115.983 1318.11,115.796 1317.39,115.796 L1317.14,115.796 C1316.49,115.796 1315.85,115.858 1315.19,116.046 C1314.47,116.249 1313.63,116.374 1312.78,116.577 C1311.94,116.764 1311.36,116.827 1310.97,116.764 C1310.58,116.764 1310.11,116.702 1309.53,116.514 C1308.95,116.311 1308.42,116.124 1307.91,115.983 C1307.39,115.858 1306.86,115.671 1306.35,115.53 C1305.95,115.468 1305.56,115.405 1305.17,115.405 L1304.72,115.405 C1304.27,115.405 1303.81,115.53 1303.42,115.796 C1303.22,115.983 1302.97,116.186 1302.77,116.436 C1302.58,116.702 1302.38,116.905 1302.25,117.03 C1302.13,117.155 1302.06,117.483 1301.86,117.874 C1301.47,118.593 1301.28,119.233 1301.28,119.827 C1301.22,119.952 1301.22,120.077 1301.22,120.218 C1301.28,120.608 1301.35,120.921 1301.47,121.249 C1301.67,121.702 1301.99,122.03 1302.45,122.358 C1302.91,122.624 1303.36,122.811 1303.81,123.014 C1304.27,123.202 1304.92,123.264 1305.63,123.405 C1306.35,123.53 1306.94,123.593 1307.45,123.655 C1307.97,123.718 1308.56,123.718 1309.27,123.796"/>
</svg>
