<?xml version="1.0" encoding="UTF-8" standalone="no"?>
<svg width="1260px" height="882px" viewBox="0 0 1260 882"
 xmlns="http://www.w3.org/2000/svg" xmlns:xlink="http://www.w3.org/1999/xlink" version="1.2" baseProfile="tiny">
<title>Blog Template</title>
<desc>Generated by MuseScore Studio 4.3.2</desc>
<path class="" fill="#ffffff" fill-rule="evenodd" d="M0,0 L1260,0 L1260,882 L0,882 L0,0 "/>
<polyline class="StaffLines" fill="none" stroke="#000000" stroke-width="2.48" stroke-linejoin="bevel" points="124.2,227.88 1134,227.88"/>
<polyline class="StaffLines" fill="none" stroke="#000000" stroke-width="2.48" stroke-linejoin="bevel" points="124.2,252.72 1134,252.72"/>
<polyline class="StaffLines" fill="none" stroke="#000000" stroke-width="2.48" stroke-linejoin="bevel" points="124.2,277.56 1134,277.56"/>
<polyline class="StaffLines" fill="none" stroke="#000000" stroke-width="2.48" stroke-linejoin="bevel" points="124.2,302.4 1134,302.4"/>
<polyline class="StaffLines" fill="none" stroke="#000000" stroke-width="2.48" stroke-linejoin="bevel" points="124.2,327.24 1134,327.24"/>
<polyline class="StaffLines" fill="none" stroke="#000000" stroke-width="2.48" stroke-linejoin="bevel" points="124.2,521.82 1134,521.82"/>
<polyline class="StaffLines" fill="none" stroke="#000000" stroke-width="2.48" stroke-linejoin="bevel" points="124.2,559.08 1134,559.08"/>
<polyline class="StaffLines" fill="none" stroke="#000000" stroke-width="2.48" stroke-linejoin="bevel" points="124.2,596.34 1134,596.34"/>
<polyline class="StaffLines" fill="none" stroke="#000000" stroke-width="2.48" stroke-linejoin="bevel" points="124.2,633.6 1134,633.6"/>
<polyline class="StaffLines" fill="none" stroke="#000000" stroke-width="2.48" stroke-linejoin="bevel" points="124.2,670.86 1134,670.86"/>
<polyline class="StaffLines" fill="none" stroke="#000000" stroke-width="2.48" stroke-linejoin="bevel" points="124.2,708.12 1134,708.12"/>
<polyline class="BarLine" fill="none" stroke="#000000" stroke-width="7.45" stroke-linejoin="bevel" points="1107.92,226.638 1107.92,328.482"/>
<polyline class="BarLine" fill="none" stroke="#000000" stroke-width="14.90" stroke-linejoin="bevel" points="1126.55,226.638 1126.55,328.482"/>
<polyline class="BarLine" fill="none" stroke="#000000" stroke-width="7.45" stroke-linejoin="bevel" points="127.926,226.638 127.926,521.82"/>
<polyline class="BarLine" fill="none" stroke="#000000" stroke-width="7.45" stroke-linejoin="bevel" points="1107.92,520.578 1107.92,709.362"/>
<polyline class="BarLine" fill="none" stroke="#000000" stroke-width="14.90" stroke-linejoin="bevel" points="1126.55,520.578 1126.55,709.362"/>
<polyline class="BarLine" fill="none" stroke="#000000" stroke-width="7.45" stroke-linejoin="bevel" points="127.926,520.578 127.926,709.362"/>
<path class="Accidental" transform="matrix(0.9936,0,0,0.9936,405.707,227.88)" d="M9,4.40625 C8.90625,4.40625 7.79688,3 7.70313,3 C7.59375,3 6.79688,3.59375 5.70313,4.70313 C4.09375,6.29688 2.70313,8.29688 1.29688,10.7969 L0.59375,12.4063 L1.29688,14 C2.40625,15.9063 4.5,18.0938 6.40625,20 L7.90625,21.7031 L8.70313,21 C10.5938,19.4063 12.7031,16.9063 14.5,13.2969 L15.0938,11.7031 C14.7969,11.4063 14,11 14,10 C14,9.70313 14.2969,8.79688 14.5,8.5 C14.7969,7.09375 15.2969,6.09375 16.2031,5 C16.5,4.40625 16.7031,4.20313 16.9063,4.20313 C17.2031,4.20313 19.7969,8.40625 20,8.59375 C20.2969,8.90625 20.5,9.40625 20.5,9.5 C20.5,9.5 18.7969,11.7031 18.7969,11.7969 C18.7969,12.0938 19.5,13.5 20.5938,15.4063 C21.4063,16.5 22.0938,17.7969 23.2031,19.2969 C24.2969,20.7969 25.0938,21.0938 25.2969,21.0938 C25.4063,21.0938 26.2031,20.5938 27.2969,19.5 C29.2031,17.5938 30.6094,15.4063 32,12.7969 L33,11.2969 L32.6094,10.0938 C31.5,7.20313 29.7031,4.59375 27.2031,2.59375 L25.9063,1.79688 L25,3.09375 C24.7031,4 24.2031,4.40625 24.2031,4.40625 L23.2031,3.90625 C21.7031,3.20313 20.0938,2.09375 19.0938,1 L20.9063,-1.20313 C22.4063,-2.59375 23.2969,-3.5 23.5,-3.5 C23.7031,-3.5 25,-2.29688 25.2969,-2.29688 C25.6094,-2.29688 26.4063,-2.59375 27.4063,-3.5 C29.2031,-5.09375 30.5,-7.20313 31.7969,-9.70313 L33,-12 L32.7031,-13 C31.6094,-16.5938 29.2031,-19.2969 25.9063,-21.2969 L24.9063,-20.7031 C23,-19.2031 21.2969,-16.7031 19.7969,-13.5938 C19.5,-12.5938 19.2031,-11.9063 19.2031,-11.0938 C19.2031,-10.2031 19.5938,-9.90625 19.7969,-9.59375 L18.0938,-6.5 C17,-4.59375 16.2969,-3.5 16.2031,-3.5 C16.0938,-3.5 15.2031,-4.29688 14.0938,-6.70313 L12.5938,-10 C12.9063,-10.9063 13.7031,-11.5938 14,-12.5 L13.9063,-13.5938 C13.5938,-15.5 12.5,-17.4063 10.9063,-19.2031 C9.90625,-20.2969 9,-20.9063 8.40625,-21.2969 L7.5,-21.9063 L5.70313,-20.0938 C3.79688,-18.2031 2.29688,-16.0938 0.796875,-13.2969 L0,-12.0938 L0.203125,-10.7969 C1,-8.90625 2.5,-6.90625 4.40625,-5 C5.5,-3.90625 6.29688,-3.20313 6.59375,-3.20313 C6.79688,-3.20313 7.5,-3.5 7.79688,-3.79688 L9,-5 C9.90625,-4 10,-3.29688 11.4063,-2.40625 C13,-1 13.9063,-0.296875 13.9063,-0.09375 C13.9063,0 9,4.40625 9,4.40625"/>
<path class="Accidental" transform="matrix(0.9936,0,0,0.9936,751.311,277.56)" d="M4,-53.7969 C4,-53.6094 3.59375,-49.4063 3.29688,-41.1094 C2.29688,-22.0938 1.79688,-16 0.796875,4.40625 C0.09375,14.9063 0,20.2031 0,20.2969 C0,20.5938 0.90625,20.9063 2.59375,20.9063 C5.90625,20.9063 11.2969,18.2031 13.5938,15.5938 C13.7969,15.4063 14,14.7969 14.2031,14.7969 L14.2031,14.9063 C14.2031,17.2031 13.7969,29.2031 12.5,50.7031 C12.4063,53 12.0938,54.4063 12.0938,55.2969 L12.0938,56.4063 C12.2969,56.4063 12.9063,56.5 13.0938,56.5 C13.9063,56.5 14.7031,56.2969 15.5938,55.5 C15.9063,55.2969 16.2969,54.2969 16.4063,52.7969 C17.2969,37.4063 18.0938,22.7031 19.0938,1.20313 C19.9063,-13.5 20.0938,-21.0938 20.0938,-22.0938 C20.0938,-22.2969 20.0938,-22.2969 19.9063,-22.2969 C19.7031,-22.2969 19.4063,-22.2031 18.5938,-22.0938 C15.7969,-21.5938 9.09375,-18.9063 7.40625,-17.2969 L6.40625,-16.5 L6.40625,-18.0938 C6.59375,-22.7969 7.5,-42.2969 7.70313,-47.6094 C7.90625,-52.2969 7.90625,-54.6094 7.90625,-54.7969 C7.90625,-55 7.29688,-55.1094 7,-55.1094 C6,-55.1094 4,-54.7031 4,-53.7969 M5.40625,5.79688 C5.40625,5.5 5.5,3.90625 5.59375,2.09375 L5.79688,-1.40625 L6.70313,-2.20313 C8.40625,-3.90625 10.7031,-5.29688 13.2031,-6.20313 C14.5,-6.70313 14.7031,-7.09375 14.7031,-5.79688 C14.7031,-4.09375 14.2969,-2.29688 14.2031,-0.59375 L14.2031,1.70313 L13.4063,2.59375 C12.4063,3.90625 8,6 5.79688,6 C5.59375,6 5.40625,6 5.40625,5.79688"/>
<path class="Accidental" transform="matrix(0.9936,0,0,0.9936,607.215,240.3)" d="M17.5938,-23 C12.7969,-23 8.90625,-20.2969 6.79688,-17 C6.5,-16.2969 5.79688,-15.5938 5.70313,-15.5938 C5.59375,-15.5938 5.70313,-16.7969 5.70313,-18.9063 C5.70313,-23.7031 5.79688,-34.4063 6.09375,-50.7031 L6.09375,-55.9063 C3.29688,-55.7969 2.20313,-54.9063 0.796875,-53.4063 L0.59375,-25.6094 C0.59375,-7 0.296875,6.5 0.203125,15 C0.09375,24.0938 0,27.7969 0,29 C0,29.2031 0.09375,29.6094 0.203125,29.6094 C0.40625,29.6094 1.5,28.2031 3.70313,25.7031 C5.90625,23.2031 8,20.5 9.5,18.7969 C17.5938,8.29688 22,-1 23.2031,-10 C23.4063,-11.2031 23.4063,-12.5 23.4063,-13.5 C23.4063,-18.7031 22,-23 17.5938,-23 M15,-7.70313 C15,-7.20313 14.9063,-6.79688 14.7969,-6.09375 C14.0938,-1.79688 12.2031,2.70313 8.29688,7.29688 C7.40625,8.29688 6.5,9.79688 5.59375,10.5938 C5.29688,10.9063 5.09375,10.7969 5,10.7969 C4.90625,10.7969 5,10.7969 5,10.2031 L5,-1 C5.09375,-1.79688 5.79688,-3 6.79688,-4.70313 C8.09375,-7 10.2969,-10.9063 12.7969,-10.9063 C14.2969,-10.9063 15,-9.40625 15,-7.70313"/>
<path class="Accidental" transform="matrix(0.9936,0,0,0.9936,418.523,401.76)" d="M4,-53.7969 C4,-53.6094 3.59375,-49.4063 3.29688,-41.1094 C2.29688,-22.0938 1.79688,-16 0.796875,4.40625 C0.09375,14.9063 0,20.2031 0,20.2969 C0,20.5938 0.90625,20.9063 2.59375,20.9063 C5.90625,20.9063 11.2969,18.2031 13.5938,15.5938 C13.7969,15.4063 14,14.7969 14.2031,14.7969 L14.2031,14.9063 C14.2031,17.2031 13.7969,29.2031 12.5,50.7031 C12.4063,53 12.0938,54.4063 12.0938,55.2969 L12.0938,56.4063 C12.2969,56.4063 12.9063,56.5 13.0938,56.5 C13.9063,56.5 14.7031,56.2969 15.5938,55.5 C15.9063,55.2969 16.2969,54.2969 16.4063,52.7969 C17.2969,37.4063 18.0938,22.7031 19.0938,1.20313 C19.9063,-13.5 20.0938,-21.0938 20.0938,-22.0938 C20.0938,-22.2969 20.0938,-22.2969 19.9063,-22.2969 C19.7031,-22.2969 19.4063,-22.2031 18.5938,-22.0938 C15.7969,-21.5938 9.09375,-18.9063 7.40625,-17.2969 L6.40625,-16.5 L6.40625,-18.0938 C6.59375,-22.7969 7.5,-42.2969 7.70313,-47.6094 C7.90625,-52.2969 7.90625,-54.6094 7.90625,-54.7969 C7.90625,-55 7.29688,-55.1094 7,-55.1094 C6,-55.1094 4,-54.7031 4,-53.7969 M5.40625,5.79688 C5.40625,5.5 5.5,3.90625 5.59375,2.09375 L5.79688,-1.40625 L6.70313,-2.20313 C8.40625,-3.90625 10.7031,-5.29688 13.2031,-6.20313 C14.5,-6.70313 14.7031,-7.09375 14.7031,-5.79688 C14.7031,-4.09375 14.2969,-2.29688 14.2031,-0.59375 L14.2031,1.70313 L13.4063,2.59375 C12.4063,3.90625 8,6 5.79688,6 C5.59375,6 5.40625,6 5.40625,5.79688"/>
<path class="Accidental" transform="matrix(0.9936,0,0,0.9936,372.429,265.14)" d="M9,4.40625 C8.90625,4.40625 7.79688,3 7.70313,3 C7.59375,3 6.79688,3.59375 5.70313,4.70313 C4.09375,6.29688 2.70313,8.29688 1.29688,10.7969 L0.59375,12.4063 L1.29688,14 C2.40625,15.9063 4.5,18.0938 6.40625,20 L7.90625,21.7031 L8.70313,21 C10.5938,19.4063 12.7031,16.9063 14.5,13.2969 L15.0938,11.7031 C14.7969,11.4063 14,11 14,10 C14,9.70313 14.2969,8.79688 14.5,8.5 C14.7969,7.09375 15.2969,6.09375 16.2031,5 C16.5,4.40625 16.7031,4.20313 16.9063,4.20313 C17.2031,4.20313 19.7969,8.40625 20,8.59375 C20.2969,8.90625 20.5,9.40625 20.5,9.5 C20.5,9.5 18.7969,11.7031 18.7969,11.7969 C18.7969,12.0938 19.5,13.5 20.5938,15.4063 C21.4063,16.5 22.0938,17.7969 23.2031,19.2969 C24.2969,20.7969 25.0938,21.0938 25.2969,21.0938 C25.4063,21.0938 26.2031,20.5938 27.2969,19.5 C29.2031,17.5938 30.6094,15.4063 32,12.7969 L33,11.2969 L32.6094,10.0938 C31.5,7.20313 29.7031,4.59375 27.2031,2.59375 L25.9063,1.79688 L25,3.09375 C24.7031,4 24.2031,4.40625 24.2031,4.40625 L23.2031,3.90625 C21.7031,3.20313 20.0938,2.09375 19.0938,1 L20.9063,-1.20313 C22.4063,-2.59375 23.2969,-3.5 23.5,-3.5 C23.7031,-3.5 25,-2.29688 25.2969,-2.29688 C25.6094,-2.29688 26.4063,-2.59375 27.4063,-3.5 C29.2031,-5.09375 30.5,-7.20313 31.7969,-9.70313 L33,-12 L32.7031,-13 C31.6094,-16.5938 29.2031,-19.2969 25.9063,-21.2969 L24.9063,-20.7031 C23,-19.2031 21.2969,-16.7031 19.7969,-13.5938 C19.5,-12.5938 19.2031,-11.9063 19.2031,-11.0938 C19.2031,-10.2031 19.5938,-9.90625 19.7969,-9.59375 L18.0938,-6.5 C17,-4.59375 16.2969,-3.5 16.2031,-3.5 C16.0938,-3.5 15.2031,-4.29688 14.0938,-6.70313 L12.5938,-10 C12.9063,-10.9063 13.7031,-11.5938 14,-12.5 L13.9063,-13.5938 C13.5938,-15.5 12.5,-17.4063 10.9063,-19.2031 C9.90625,-20.2969 9,-20.9063 8.40625,-21.2969 L7.5,-21.9063 L5.70313,-20.0938 C3.79688,-18.2031 2.29688,-16.0938 0.796875,-13.2969 L0,-12.0938 L0.203125,-10.7969 C1,-8.90625 2.5,-6.90625 4.40625,-5 C5.5,-3.90625 6.29688,-3.20313 6.59375,-3.20313 C6.79688,-3.20313 7.5,-3.5 7.79688,-3.79688 L9,-5 C9.90625,-4 10,-3.29688 11.4063,-2.40625 C13,-1 13.9063,-0.296875 13.9063,-0.09375 C13.9063,0 9,4.40625 9,4.40625"/>
<path class="Accidental" transform="matrix(0.9936,0,0,0.9936,578.501,277.56)" d="M17.5938,-23 C12.7969,-23 8.90625,-20.2969 6.79688,-17 C6.5,-16.2969 5.79688,-15.5938 5.70313,-15.5938 C5.59375,-15.5938 5.70313,-16.7969 5.70313,-18.9063 C5.70313,-23.7031 5.79688,-34.4063 6.09375,-50.7031 L6.09375,-55.9063 C3.29688,-55.7969 2.20313,-54.9063 0.796875,-53.4063 L0.59375,-25.6094 C0.59375,-7 0.296875,6.5 0.203125,15 C0.09375,24.0938 0,27.7969 0,29 C0,29.2031 0.09375,29.6094 0.203125,29.6094 C0.40625,29.6094 1.5,28.2031 3.70313,25.7031 C5.90625,23.2031 8,20.5 9.5,18.7969 C17.5938,8.29688 22,-1 23.2031,-10 C23.4063,-11.2031 23.4063,-12.5 23.4063,-13.5 C23.4063,-18.7031 22,-23 17.5938,-23 M15,-7.70313 C15,-7.20313 14.9063,-6.79688 14.7969,-6.09375 C14.0938,-1.79688 12.2031,2.70313 8.29688,7.29688 C7.40625,8.29688 6.5,9.79688 5.59375,10.5938 C5.29688,10.9063 5.09375,10.7969 5,10.7969 C4.90625,10.7969 5,10.7969 5,10.2031 L5,-1 C5.09375,-1.79688 5.79688,-3 6.79688,-4.70313 C8.09375,-7 10.2969,-10.9063 12.7969,-10.9063 C14.2969,-10.9063 15,-9.40625 15,-7.70313"/>
<path class="Accidental" transform="matrix(0.9936,0,0,0.9936,795.767,240.3)" d="M4,-53.7969 C4,-53.6094 3.59375,-49.4063 3.29688,-41.1094 C2.29688,-22.0938 1.79688,-16 0.796875,4.40625 C0.09375,14.9063 0,20.2031 0,20.2969 C0,20.5938 0.90625,20.9063 2.59375,20.9063 C5.90625,20.9063 11.2969,18.2031 13.5938,15.5938 C13.7969,15.4063 14,14.7969 14.2031,14.7969 L14.2031,14.9063 C14.2031,17.2031 13.7969,29.2031 12.5,50.7031 C12.4063,53 12.0938,54.4063 12.0938,55.2969 L12.0938,56.4063 C12.2969,56.4063 12.9063,56.5 13.0938,56.5 C13.9063,56.5 14.7031,56.2969 15.5938,55.5 C15.9063,55.2969 16.2969,54.2969 16.4063,52.7969 C17.2969,37.4063 18.0938,22.7031 19.0938,1.20313 C19.9063,-13.5 20.0938,-21.0938 20.0938,-22.0938 C20.0938,-22.2969 20.0938,-22.2969 19.9063,-22.2969 C19.7031,-22.2969 19.4063,-22.2031 18.5938,-22.0938 C15.7969,-21.5938 9.09375,-18.9063 7.40625,-17.2969 L6.40625,-16.5 L6.40625,-18.0938 C6.59375,-22.7969 7.5,-42.2969 7.70313,-47.6094 C7.90625,-52.2969 7.90625,-54.6094 7.90625,-54.7969 C7.90625,-55 7.29688,-55.1094 7,-55.1094 C6,-55.1094 4,-54.7031 4,-53.7969 M5.40625,5.79688 C5.40625,5.5 5.5,3.90625 5.59375,2.09375 L5.79688,-1.40625 L6.70313,-2.20313 C8.40625,-3.90625 10.7031,-5.29688 13.2031,-6.20313 C14.5,-6.70313 14.7031,-7.09375 14.7031,-5.79688 C14.7031,-4.09375 14.2969,-2.29688 14.2031,-0.59375 L14.2031,1.70313 L13.4063,2.59375 C12.4063,3.90625 8,6 5.79688,6 C5.59375,6 5.40625,6 5.40625,5.79688"/>
<path class="Accidental" transform="matrix(0.9936,0,0,0.9936,776.741,314.82)" d="M4,-53.7969 C4,-53.6094 3.59375,-49.4063 3.29688,-41.1094 C2.29688,-22.0938 1.79688,-16 0.796875,4.40625 C0.09375,14.9063 0,20.2031 0,20.2969 C0,20.5938 0.90625,20.9063 2.59375,20.9063 C5.90625,20.9063 11.2969,18.2031 13.5938,15.5938 C13.7969,15.4063 14,14.7969 14.2031,14.7969 L14.2031,14.9063 C14.2031,17.2031 13.7969,29.2031 12.5,50.7031 C12.4063,53 12.0938,54.4063 12.0938,55.2969 L12.0938,56.4063 C12.2969,56.4063 12.9063,56.5 13.0938,56.5 C13.9063,56.5 14.7031,56.2969 15.5938,55.5 C15.9063,55.2969 16.2969,54.2969 16.4063,52.7969 C17.2969,37.4063 18.0938,22.7031 19.0938,1.20313 C19.9063,-13.5 20.0938,-21.0938 20.0938,-22.0938 C20.0938,-22.2969 20.0938,-22.2969 19.9063,-22.2969 C19.7031,-22.2969 19.4063,-22.2031 18.5938,-22.0938 C15.7969,-21.5938 9.09375,-18.9063 7.40625,-17.2969 L6.40625,-16.5 L6.40625,-18.0938 C6.59375,-22.7969 7.5,-42.2969 7.70313,-47.6094 C7.90625,-52.2969 7.90625,-54.6094 7.90625,-54.7969 C7.90625,-55 7.29688,-55.1094 7,-55.1094 C6,-55.1094 4,-54.7031 4,-53.7969 M5.40625,5.79688 C5.40625,5.5 5.5,3.90625 5.59375,2.09375 L5.79688,-1.40625 L6.70313,-2.20313 C8.40625,-3.90625 10.7031,-5.29688 13.2031,-6.20313 C14.5,-6.70313 14.7031,-7.09375 14.7031,-5.79688 C14.7031,-4.09375 14.2969,-2.29688 14.2031,-0.59375 L14.2031,1.70313 L13.4063,2.59375 C12.4063,3.90625 8,6 5.79688,6 C5.59375,6 5.40625,6 5.40625,5.79688"/>
<path class="Accidental" transform="matrix(0.9936,0,0,0.9936,597.682,401.76)" d="M11.7969,-39 C10.5,-39 9.5,-33.4063 9.20313,-22.2031 C9.09375,-19.7031 9.09375,-18.2969 9,-18 C8.90625,-17.7031 8.59375,-17.0938 7.79688,-16.7969 C5.29688,-15.2969 3.29688,-14.2969 2.40625,-13.4063 C1.40625,-12.4063 1,-9 0.796875,-3.59375 L0.796875,-1.70313 L0.796875,-0.796875 C0.796875,0.296875 0.90625,1.29688 1.40625,1.29688 C1.90625,1.29688 3.5,0.796875 6,-0.5 C7,-1 7.70313,-1.20313 7.79688,-1.20313 C7.90625,-1.20313 8,-0.59375 8,0.40625 L8,3.09375 C8,5.40625 7.90625,7.59375 7.20313,7.79688 C7,7.90625 5.90625,8.5 4.20313,9.40625 C1.70313,10.7031 1.5,11 0.203125,12 L0,15.4063 L0,17.7969 C0,21.4063 0.40625,24.2031 1.40625,24.2031 C1.70313,24.2031 2.59375,23.9063 4.20313,23.4063 L7.20313,22.4063 L7.20313,23.0938 C7.20313,23.4063 7.20313,25.2031 7,28.5 C6.70313,34 6.40625,38.4063 6.40625,41.7031 C6.40625,45 6.70313,46.7969 7,47.7031 C7.20313,48.4063 7.40625,48.7031 8.20313,48.7031 C8.40625,48.7031 9,48.5 9.20313,48.2969 C10.2031,46.7969 10.5,33.5 10.7031,27.2031 L11,21 C11.7969,20.2031 12.7031,19.5938 14,19.5938 C14.2031,19.5938 14.2031,20.7969 14.2031,23.0938 C14.2031,26.2969 14,31.2969 14,33.9063 L14,35.1094 C14,38.7031 14.2031,42.2969 15.5938,42.2969 C15.7969,42.2969 16,42 16.2031,41.7969 C17.7031,40.5 18,26.6094 18.0938,22.2031 L18.4063,17.5938 L22,15.2969 C24.4063,13.7031 25.7969,12.4063 26,12.0938 C26.2031,11.5938 26.2031,10.2969 26.2031,8.5 L26.2031,7.20313 C26.2031,3.90625 26.1094,-1.29688 24.7969,-1.29688 C23.5,-1.29688 22,-0.59375 20.5938,0.296875 C19.7969,0.796875 19.5938,0.90625 19.5,0.90625 L19.5,0.796875 C19.5,0.5 19.5,-1.09375 19.5938,-3.59375 L19.5938,-8.09375 L21.4063,-8.79688 C25,-10.5 27,-12.7031 27.2031,-14.2031 C27.7031,-16.7031 28,-19.2969 28,-21.9063 L28,-23.5 C28,-24.5 27.7969,-25.0938 27,-25.0938 C26.1094,-25.0938 24.5938,-24.7969 22.2031,-23.5 C21.5,-23.2969 21.2969,-22.9063 21.2031,-22.9063 C21.2031,-22.9063 21.0938,-23.0938 21.0938,-23.2031 C21.0938,-23.5 21.5938,-25 21.7969,-27.7969 C22.5938,-37.6094 22.5938,-44.7031 22.5938,-48.7969 C22.5938,-51.2969 22.0938,-55.7969 21.2031,-55.7969 C21.0938,-55.7969 20.9063,-55.5 20.5938,-55.2031 C19.2031,-53.7031 18.2969,-48.6094 18,-38.9063 C17.5,-27.7031 17,-22 16.7969,-21.2969 C16.5,-20.5 13.9063,-19.7969 13,-19.5938 L13.2031,-22.4063 L13.2031,-24.2969 L13.2031,-29 L13.2031,-31.2969 L13.2031,-33.5 C13.2031,-36.4063 13.0938,-39 11.7969,-39 M10.7031,4 C10.7031,2.70313 10.7969,0.703125 11,-1.90625 L11.2031,-3.09375 L12.2031,-3.79688 C14.5938,-5.29688 15.9063,-6.09375 16.2031,-6.09375 C16.2969,-6.09375 16.4063,-6 16.4063,-5.79688 C16.4063,-5.09375 16.2969,-3.70313 16.2031,-1.29688 L16,3.09375 L14.7969,3.90625 C14,4.20313 12,5.70313 11,5.70313 C10.7031,5.70313 10.7031,4.90625 10.7031,4"/>
<polyline class="LedgerLine" fill="none" stroke="#000000" stroke-width="4.97" stroke-linejoin="bevel" points="631.706,352.08 674.329,352.08"/>
<polyline class="LedgerLine" fill="none" stroke="#000000" stroke-width="4.97" stroke-linejoin="bevel" points="816.974,376.92 863.076,376.92"/>
<polyline class="LedgerLine" fill="none" stroke="#000000" stroke-width="4.97" stroke-linejoin="bevel" points="816.974,352.08 863.076,352.08"/>
<polyline class="LedgerLine" fill="none" stroke="#000000" stroke-width="4.97" stroke-linejoin="bevel" points="444.698,401.76 487.322,401.76"/>
<polyline class="LedgerLine" fill="none" stroke="#000000" stroke-width="4.97" stroke-linejoin="bevel" points="444.698,376.92 487.322,376.92"/>
<polyline class="LedgerLine" fill="none" stroke="#000000" stroke-width="4.97" stroke-linejoin="bevel" points="444.698,352.08 487.322,352.08"/>
<polyline class="LedgerLine" fill="none" stroke="#000000" stroke-width="4.97" stroke-linejoin="bevel" points="631.706,401.76 674.329,401.76"/>
<polyline class="LedgerLine" fill="none" stroke="#000000" stroke-width="4.97" stroke-linejoin="bevel" points="631.706,376.92 674.329,376.92"/>
<polyline class="Stem" fill="none" stroke="#000000" stroke-width="4.97" stroke-linejoin="bevel" points="855.624,384.273 855.624,153.36"/>
<polyline class="Stem" fill="none" stroke="#000000" stroke-width="4.97" stroke-linejoin="bevel" points="666.877,397.488 666.877,153.36"/>
<polyline class="Stem" fill="none" stroke="#000000" stroke-width="4.97" stroke-linejoin="bevel" points="479.87,397.488 479.87,165.78"/>
<path class="Note" transform="matrix(0.9936,0,0,0.9936,636.674,215.46)" d="M10.5938,13.5 C15.0938,13.5 19.7969,11.7031 24.7969,8 C30.2031,3.90625 32.9063,0 32.9063,-4.29688 C32.9063,-10.2969 28.9063,-13.5 20.7031,-13.5 C16.4063,-13.5 11.9063,-11.4063 7.09375,-7 C2.29688,-2.59375 0,1.5 0,5.70313 C0,8.70313 1.20313,10.7031 3.5,11.9063 C5.29688,13 7.59375,13.5 10.5938,13.5"/>
<path class="Note" transform="matrix(0.9936,0,0,0.9936,449.666,401.76)" d="M10.5938,13.5 C15.0938,13.5 19.7969,11.7031 24.7969,8 C30.2031,3.90625 32.9063,0 32.9063,-4.29688 C32.9063,-10.2969 28.9063,-13.5 20.7031,-13.5 C16.4063,-13.5 11.9063,-11.4063 7.09375,-7 C2.29688,-2.59375 0,1.5 0,5.70313 C0,8.70313 1.20313,10.7031 3.5,11.9063 C5.29688,13 7.59375,13.5 10.5938,13.5"/>
<path class="Note" transform="matrix(0.9936,0,0,0.9936,636.674,401.76)" d="M10.5938,13.5 C15.0938,13.5 19.7969,11.7031 24.7969,8 C30.2031,3.90625 32.9063,0 32.9063,-4.29688 C32.9063,-10.2969 28.9063,-13.5 20.7031,-13.5 C16.4063,-13.5 11.9063,-11.4063 7.09375,-7 C2.29688,-2.59375 0,1.5 0,5.70313 C0,8.70313 1.20313,10.7031 3.5,11.9063 C5.29688,13 7.59375,13.5 10.5938,13.5"/>
<path class="Note" transform="matrix(0.9936,0,0,0.9936,449.666,265.14)" d="M10.5938,13.5 C15.0938,13.5 19.7969,11.7031 24.7969,8 C30.2031,3.90625 32.9063,0 32.9063,-4.29688 C32.9063,-10.2969 28.9063,-13.5 20.7031,-13.5 C16.4063,-13.5 11.9063,-11.4063 7.09375,-7 C2.29688,-2.59375 0,1.5 0,5.70313 C0,8.70313 1.20313,10.7031 3.5,11.9063 C5.29688,13 7.59375,13.5 10.5938,13.5"/>
<path class="Note" transform="matrix(0.9936,0,0,0.9936,821.942,389.34)" d="M36.4063,-5.09375 C36.4063,-12.2031 33.5,-16.7969 26.9063,-16.7969 C21.0938,-16.7969 15.7031,-14.7969 9.90625,-10 C3.70313,-4.79688 0,1.09375 0,7.20313 C0,10 0.40625,11.2031 1.90625,13.2969 C3.70313,15.7969 5.79688,16.7969 8.29688,16.7969 C12.5,16.7969 17.5,15 23.2969,11.7031 C32,6.40625 36.4063,1.70313 36.4063,-5.09375 M14.7969,11 C12.5,11 11.2969,8.40625 11.2969,3.59375 C11.2969,-4 14.5938,-10.9063 20.4063,-10.9063 C21.7969,-10.9063 22.7969,-9.70313 23.5938,-6.90625 C24.2031,-4.59375 24.7031,-2.79688 24.7031,-0.90625 C24.7031,5 19.7031,11 14.7969,11"/>
<path class="Note" transform="matrix(0.9936,0,0,0.9936,821.942,314.82)" d="M36.4063,-5.09375 C36.4063,-12.2031 33.5,-16.7969 26.9063,-16.7969 C21.0938,-16.7969 15.7031,-14.7969 9.90625,-10 C3.70313,-4.79688 0,1.09375 0,7.20313 C0,10 0.40625,11.2031 1.90625,13.2969 C3.70313,15.7969 5.79688,16.7969 8.29688,16.7969 C12.5,16.7969 17.5,15 23.2969,11.7031 C32,6.40625 36.4063,1.70313 36.4063,-5.09375 M14.7969,11 C12.5,11 11.2969,8.40625 11.2969,3.59375 C11.2969,-4 14.5938,-10.9063 20.4063,-10.9063 C21.7969,-10.9063 22.7969,-9.70313 23.5938,-6.90625 C24.2031,-4.59375 24.7031,-2.79688 24.7031,-0.90625 C24.7031,5 19.7031,11 14.7969,11"/>
<path class="Note" transform="matrix(0.9936,0,0,0.9936,449.666,289.98)" d="M10.5938,13.5 C15.0938,13.5 19.7969,11.7031 24.7969,8 C30.2031,3.90625 32.9063,0 32.9063,-4.29688 C32.9063,-10.2969 28.9063,-13.5 20.7031,-13.5 C16.4063,-13.5 11.9063,-11.4063 7.09375,-7 C2.29688,-2.59375 0,1.5 0,5.70313 C0,8.70313 1.20313,10.7031 3.5,11.9063 C5.29688,13 7.59375,13.5 10.5938,13.5"/>
<path class="Note" transform="matrix(0.9936,0,0,0.9936,821.942,277.56)" d="M36.4063,-5.09375 C36.4063,-12.2031 33.5,-16.7969 26.9063,-16.7969 C21.0938,-16.7969 15.7031,-14.7969 9.90625,-10 C3.70313,-4.79688 0,1.09375 0,7.20313 C0,10 0.40625,11.2031 1.90625,13.2969 C3.70313,15.7969 5.79688,16.7969 8.29688,16.7969 C12.5,16.7969 17.5,15 23.2969,11.7031 C32,6.40625 36.4063,1.70313 36.4063,-5.09375 M14.7969,11 C12.5,11 11.2969,8.40625 11.2969,3.59375 C11.2969,-4 14.5938,-10.9063 20.4063,-10.9063 C21.7969,-10.9063 22.7969,-9.70313 23.5938,-6.90625 C24.2031,-4.59375 24.7031,-2.79688 24.7031,-0.90625 C24.7031,5 19.7031,11 14.7969,11"/>
<path class="Note" transform="matrix(0.9936,0,0,0.9936,636.674,277.56)" d="M10.5938,13.5 C15.0938,13.5 19.7969,11.7031 24.7969,8 C30.2031,3.90625 32.9063,0 32.9063,-4.29688 C32.9063,-10.2969 28.9063,-13.5 20.7031,-13.5 C16.4063,-13.5 11.9063,-11.4063 7.09375,-7 C2.29688,-2.59375 0,1.5 0,5.70313 C0,8.70313 1.20313,10.7031 3.5,11.9063 C5.29688,13 7.59375,13.5 10.5938,13.5"/>
<path class="Note" transform="matrix(0.9936,0,0,0.9936,821.942,240.3)" d="M36.4063,-5.09375 C36.4063,-12.2031 33.5,-16.7969 26.9063,-16.7969 C21.0938,-16.7969 15.7031,-14.7969 9.90625,-10 C3.70313,-4.79688 0,1.09375 0,7.20313 C0,10 0.40625,11.2031 1.90625,13.2969 C3.70313,15.7969 5.79688,16.7969 8.29688,16.7969 C12.5,16.7969 17.5,15 23.2969,11.7031 C32,6.40625 36.4063,1.70313 36.4063,-5.09375 M14.7969,11 C12.5,11 11.2969,8.40625 11.2969,3.59375 C11.2969,-4 14.5938,-10.9063 20.4063,-10.9063 C21.7969,-10.9063 22.7969,-9.70313 23.5938,-6.90625 C24.2031,-4.59375 24.7031,-2.79688 24.7031,-0.90625 C24.7031,5 19.7031,11 14.7969,11"/>
<path class="Note" transform="matrix(0.9936,0,0,0.9936,821.942,215.46)" d="M36.4063,-5.09375 C36.4063,-12.2031 33.5,-16.7969 26.9063,-16.7969 C21.0938,-16.7969 15.7031,-14.7969 9.90625,-10 C3.70313,-4.79688 0,1.09375 0,7.20313 C0,10 0.40625,11.2031 1.90625,13.2969 C3.70313,15.7969 5.79688,16.7969 8.29688,16.7969 C12.5,16.7969 17.5,15 23.2969,11.7031 C32,6.40625 36.4063,1.70313 36.4063,-5.09375 M14.7969,11 C12.5,11 11.2969,8.40625 11.2969,3.59375 C11.2969,-4 14.5938,-10.9063 20.4063,-10.9063 C21.7969,-10.9063 22.7969,-9.70313 23.5938,-6.90625 C24.2031,-4.59375 24.7031,-2.79688 24.7031,-0.90625 C24.7031,5 19.7031,11 14.7969,11"/>
<path class="Note" transform="matrix(0.9936,0,0,0.9936,636.674,240.3)" d="M10.5938,13.5 C15.0938,13.5 19.7969,11.7031 24.7969,8 C30.2031,3.90625 32.9063,0 32.9063,-4.29688 C32.9063,-10.2969 28.9063,-13.5 20.7031,-13.5 C16.4063,-13.5 11.9063,-11.4063 7.09375,-7 C2.29688,-2.59375 0,1.5 0,5.70313 C0,8.70313 1.20313,10.7031 3.5,11.9063 C5.29688,13 7.59375,13.5 10.5938,13.5"/>
<path class="Note" transform="matrix(0.9936,0,0,0.9936,449.666,227.88)" d="M10.5938,13.5 C15.0938,13.5 19.7969,11.7031 24.7969,8 C30.2031,3.90625 32.9063,0 32.9063,-4.29688 C32.9063,-10.2969 28.9063,-13.5 20.7031,-13.5 C16.4063,-13.5 11.9063,-11.4063 7.09375,-7 C2.29688,-2.59375 0,1.5 0,5.70313 C0,8.70313 1.20313,10.7031 3.5,11.9063 C5.29688,13 7.59375,13.5 10.5938,13.5"/>
<path class="Note" fill="#ffffff" fill-rule="evenodd" d="M640.4,689.49 L670.208,689.49 L670.208,726.75 L640.4,726.75 L640.4,689.49 "/>
<path class="Note" d="M645.134,702.693 C645.342,695.307 648.852,691.615 655.665,691.615 C658.696,691.615 661.157,692.505 663.048,694.286 C664.938,696.068 665.884,698.375 665.884,701.208 C665.884,705.167 663.634,708.375 659.134,710.833 L654.634,713.255 C652.675,714.307 651.277,715.328 650.438,716.318 C649.6,717.307 649.076,718.479 648.868,719.833 L665.649,719.833 L665.649,723.521 L644.415,723.521 C644.592,720.073 645.295,717.411 646.524,715.536 C647.753,713.661 650.035,711.792 653.368,709.927 L657.509,707.599 C660.384,705.943 661.821,703.839 661.821,701.286 C661.821,699.578 661.222,698.154 660.024,697.013 C658.826,695.872 657.326,695.302 655.524,695.302 C651.535,695.302 649.389,697.766 649.087,702.693 L645.134,702.693 "/>
<path class="Note" fill="#ffffff" fill-rule="evenodd" d="M640.4,577.71 L670.208,577.71 L670.208,614.97 L640.4,614.97 L640.4,577.71 "/>
<path class="Note" d="M655.04,583.522 C652.759,583.522 651.191,584.124 650.337,585.327 C649.482,586.53 649.024,588.137 648.962,590.147 L644.993,590.147 C645.149,583.272 648.482,579.835 654.993,579.835 C658.024,579.835 660.402,580.611 662.126,582.163 C663.85,583.715 664.712,585.85 664.712,588.569 C664.712,591.746 663.227,593.907 660.259,595.053 C662.175,595.72 663.553,596.652 664.391,597.85 C665.23,599.048 665.649,600.678 665.649,602.741 C665.649,605.803 664.667,608.241 662.704,610.053 C660.74,611.866 658.123,612.772 654.852,612.772 C648.311,612.772 644.8,609.34 644.321,602.475 L648.29,602.475 C648.436,604.725 649.048,606.389 650.126,607.467 C651.204,608.545 652.826,609.085 654.993,609.085 C657.055,609.085 658.673,608.53 659.844,607.42 C661.016,606.311 661.602,604.767 661.602,602.788 C661.602,598.975 659.399,597.069 654.993,597.069 L653.321,597.116 L652.821,597.116 L652.821,593.428 C655.675,593.366 657.696,593.022 658.884,592.397 C660.071,591.772 660.665,590.538 660.665,588.694 C660.665,587.1 660.162,585.84 659.157,584.913 C658.152,583.986 656.779,583.522 655.04,583.522"/>
<path class="Note" fill="#ffffff" fill-rule="evenodd" d="M640.4,540.45 L670.208,540.45 L670.208,577.71 L640.4,577.71 L640.4,540.45 "/>
<path class="Note" d="M657.602,566.965 L644.149,566.965 L644.149,562.653 L658.634,542.575 L661.555,542.575 L661.555,563.278 L666.29,563.278 L666.29,566.965 L661.555,566.965 L661.555,574.481 L657.602,574.481 L657.602,566.965 M657.602,563.278 L657.602,549.325 L647.602,563.278 L657.602,563.278 "/>
<path class="Note" fill="#ffffff" fill-rule="evenodd" d="M640.4,503.19 L670.208,503.19 L670.208,540.45 L640.4,540.45 L640.4,503.19 "/>
<path class="Note" d="M655.04,509.002 C652.759,509.002 651.191,509.604 650.337,510.807 C649.482,512.01 649.024,513.617 648.962,515.627 L644.993,515.627 C645.149,508.752 648.482,505.315 654.993,505.315 C658.024,505.315 660.402,506.091 662.126,507.643 C663.85,509.195 664.712,511.33 664.712,514.049 C664.712,517.226 663.227,519.387 660.259,520.533 C662.175,521.2 663.553,522.132 664.391,523.33 C665.23,524.528 665.649,526.158 665.649,528.221 C665.649,531.283 664.667,533.721 662.704,535.533 C660.74,537.346 658.123,538.252 654.852,538.252 C648.311,538.252 644.8,534.82 644.321,527.955 L648.29,527.955 C648.436,530.205 649.048,531.869 650.126,532.947 C651.204,534.025 652.826,534.565 654.993,534.565 C657.055,534.565 658.673,534.01 659.844,532.9 C661.016,531.791 661.602,530.247 661.602,528.268 C661.602,524.455 659.399,522.549 654.993,522.549 L653.321,522.596 L652.821,522.596 L652.821,518.908 C655.675,518.846 657.696,518.502 658.884,517.877 C660.071,517.252 660.665,516.018 660.665,514.174 C660.665,512.58 660.162,511.32 659.157,510.393 C658.152,509.466 656.779,509.002 655.04,509.002"/>
<path class="Note" fill="#ffffff" fill-rule="evenodd" d="M453.392,689.49 L483.2,689.49 L483.2,726.75 L453.392,726.75 L453.392,689.49 "/>
<path class="Note" d="M467.532,700.802 L460.47,700.802 L460.47,697.958 C463.522,697.573 465.514,697.034 466.446,696.341 C467.379,695.648 468.189,694.073 468.876,691.615 L471.485,691.615 L471.485,723.521 L467.532,723.521 L467.532,700.802 "/>
<path class="Note" fill="#ffffff" fill-rule="evenodd" d="M453.392,577.71 L483.2,577.71 L483.2,614.97 L453.392,614.97 L453.392,577.71 "/>
<path class="Note" d="M458.126,590.913 C458.334,583.527 461.845,579.835 468.657,579.835 C471.689,579.835 474.15,580.725 476.04,582.506 C477.931,584.288 478.876,586.595 478.876,589.428 C478.876,593.387 476.626,596.595 472.126,599.053 L467.626,601.475 C465.668,602.527 464.269,603.548 463.431,604.538 C462.592,605.527 462.069,606.699 461.86,608.053 L478.642,608.053 L478.642,611.741 L457.407,611.741 C457.584,608.293 458.288,605.631 459.517,603.756 C460.746,601.881 463.027,600.012 466.36,598.147 L470.501,595.819 C473.376,594.163 474.814,592.059 474.814,589.506 C474.814,587.798 474.215,586.374 473.017,585.233 C471.819,584.092 470.319,583.522 468.517,583.522 C464.527,583.522 462.381,585.986 462.079,590.913 L458.126,590.913 "/>
<path class="Note" fill="#ffffff" fill-rule="evenodd" d="M827.407,689.49 L857.215,689.49 L857.215,726.75 L827.407,726.75 L827.407,689.49 "/>
<path class="Note" d="M842.047,695.302 C839.766,695.302 838.198,695.904 837.344,697.107 C836.49,698.31 836.032,699.917 835.969,701.927 L832,701.927 C832.157,695.052 835.49,691.615 842,691.615 C845.032,691.615 847.409,692.391 849.133,693.943 C850.857,695.495 851.719,697.63 851.719,700.349 C851.719,703.526 850.235,705.687 847.266,706.833 C849.183,707.5 850.56,708.432 851.399,709.63 C852.237,710.828 852.657,712.458 852.657,714.521 C852.657,717.583 851.675,720.021 849.711,721.833 C847.748,723.646 845.13,724.552 841.86,724.552 C835.318,724.552 831.808,721.12 831.328,714.255 L835.297,714.255 C835.443,716.505 836.055,718.169 837.133,719.247 C838.211,720.325 839.834,720.865 842,720.865 C844.063,720.865 845.68,720.31 846.852,719.2 C848.024,718.091 848.61,716.547 848.61,714.568 C848.61,710.755 846.407,708.849 842,708.849 L840.328,708.896 L839.828,708.896 L839.828,705.208 C842.683,705.146 844.703,704.802 845.891,704.177 C847.078,703.552 847.672,702.318 847.672,700.474 C847.672,698.88 847.17,697.62 846.164,696.693 C845.159,695.766 843.787,695.302 842.047,695.302"/>
<path class="Note" fill="#ffffff" fill-rule="evenodd" d="M827.407,614.97 L857.215,614.97 L857.215,652.23 L827.407,652.23 L827.407,614.97 "/>
<path class="Note" d="M842.047,620.782 C839.766,620.782 838.198,621.384 837.344,622.587 C836.49,623.79 836.032,625.397 835.969,627.407 L832,627.407 C832.157,620.532 835.49,617.095 842,617.095 C845.032,617.095 847.409,617.871 849.133,619.423 C850.857,620.975 851.719,623.11 851.719,625.829 C851.719,629.006 850.235,631.167 847.266,632.313 C849.183,632.98 850.56,633.912 851.399,635.11 C852.237,636.308 852.657,637.938 852.657,640.001 C852.657,643.063 851.675,645.501 849.711,647.313 C847.748,649.126 845.13,650.032 841.86,650.032 C835.318,650.032 831.808,646.6 831.328,639.735 L835.297,639.735 C835.443,641.985 836.055,643.649 837.133,644.727 C838.211,645.805 839.834,646.345 842,646.345 C844.063,646.345 845.68,645.79 846.852,644.68 C848.024,643.571 848.61,642.027 848.61,640.048 C848.61,636.235 846.407,634.329 842,634.329 L840.328,634.376 L839.828,634.376 L839.828,630.688 C842.683,630.626 844.703,630.282 845.891,629.657 C847.078,629.032 847.672,627.798 847.672,625.954 C847.672,624.36 847.17,623.1 846.164,622.173 C845.159,621.246 843.787,620.782 842.047,620.782"/>
<path class="Note" fill="#ffffff" fill-rule="evenodd" d="M827.407,577.71 L857.215,577.71 L857.215,614.97 L827.407,614.97 L827.407,577.71 "/>
<path class="Note" d="M844.61,604.225 L831.157,604.225 L831.157,599.913 L845.641,579.835 L848.563,579.835 L848.563,600.538 L853.297,600.538 L853.297,604.225 L848.563,604.225 L848.563,611.741 L844.61,611.741 L844.61,604.225 M844.61,600.538 L844.61,586.585 L834.61,600.538 L844.61,600.538 "/>
<path class="Note" fill="#ffffff" fill-rule="evenodd" d="M827.407,540.45 L857.215,540.45 L857.215,577.71 L827.407,577.71 L827.407,540.45 "/>
<path class="Note" d="M851.313,542.575 L851.313,546.262 L838.032,546.262 L836.782,555.403 C838.552,553.996 840.516,553.293 842.672,553.293 C845.735,553.293 848.216,554.283 850.117,556.262 C852.019,558.241 852.969,560.819 852.969,563.996 C852.969,567.382 851.951,570.147 849.914,572.293 C847.878,574.439 845.255,575.512 842.047,575.512 C840.808,575.512 839.672,575.377 838.641,575.106 C837.61,574.835 836.755,574.512 836.078,574.137 C835.401,573.762 834.787,573.267 834.235,572.653 C833.683,572.038 833.263,571.499 832.977,571.035 C832.69,570.572 832.42,569.989 832.164,569.285 C831.909,568.582 831.75,568.095 831.688,567.825 C831.625,567.554 831.552,567.163 831.469,566.653 L835.422,566.653 C836.36,570.101 838.537,571.825 841.953,571.825 C844.11,571.825 845.81,571.174 847.055,569.871 C848.3,568.569 848.922,566.788 848.922,564.528 C848.922,562.194 848.292,560.353 847.032,559.004 C845.771,557.655 844.078,556.981 841.953,556.981 C840.724,556.981 839.675,557.184 838.805,557.59 C837.935,557.996 837.032,558.72 836.094,559.762 L832.453,559.762 L834.844,542.575 L851.313,542.575 "/>
<path class="Note" fill="#ffffff" fill-rule="evenodd" d="M827.407,503.19 L857.215,503.19 L857.215,540.45 L827.407,540.45 L827.407,503.19 "/>
<path class="Note" d="M842.047,509.002 C839.766,509.002 838.198,509.604 837.344,510.807 C836.49,512.01 836.032,513.617 835.969,515.627 L832,515.627 C832.157,508.752 835.49,505.315 842,505.315 C845.032,505.315 847.409,506.091 849.133,507.643 C850.857,509.195 851.719,511.33 851.719,514.049 C851.719,517.226 850.235,519.387 847.266,520.533 C849.183,521.2 850.56,522.132 851.399,523.33 C852.237,524.528 852.657,526.158 852.657,528.221 C852.657,531.283 851.675,533.721 849.711,535.533 C847.748,537.346 845.13,538.252 841.86,538.252 C835.318,538.252 831.808,534.82 831.328,527.955 L835.297,527.955 C835.443,530.205 836.055,531.869 837.133,532.947 C838.211,534.025 839.834,534.565 842,534.565 C844.063,534.565 845.68,534.01 846.852,532.9 C848.024,531.791 848.61,530.247 848.61,528.268 C848.61,524.455 846.407,522.549 842,522.549 L840.328,522.596 L839.828,522.596 L839.828,518.908 C842.683,518.846 844.703,518.502 845.891,517.877 C847.078,517.252 847.672,516.018 847.672,514.174 C847.672,512.58 847.17,511.32 846.164,510.393 C845.159,509.466 843.787,509.002 842.047,509.002"/>
<path class="Note" fill="#ffffff" fill-rule="evenodd" d="M453.392,503.19 L483.2,503.19 L483.2,540.45 L453.392,540.45 L453.392,503.19 "/>
<path class="Note" d="M468.032,509.002 C465.751,509.002 464.183,509.604 463.329,510.807 C462.475,512.01 462.017,513.617 461.954,515.627 L457.985,515.627 C458.142,508.752 461.475,505.315 467.985,505.315 C471.017,505.315 473.394,506.091 475.118,507.643 C476.842,509.195 477.704,511.33 477.704,514.049 C477.704,517.226 476.22,519.387 473.251,520.533 C475.168,521.2 476.545,522.132 477.384,523.33 C478.222,524.528 478.642,526.158 478.642,528.221 C478.642,531.283 477.66,533.721 475.696,535.533 C473.733,537.346 471.116,538.252 467.845,538.252 C461.303,538.252 457.793,534.82 457.314,527.955 L461.282,527.955 C461.428,530.205 462.04,531.869 463.118,532.947 C464.196,534.025 465.819,534.565 467.985,534.565 C470.048,534.565 471.665,534.01 472.837,532.9 C474.009,531.791 474.595,530.247 474.595,528.268 C474.595,524.455 472.392,522.549 467.985,522.549 L466.314,522.596 L465.814,522.596 L465.814,518.908 C468.668,518.846 470.689,518.502 471.876,517.877 C473.064,517.252 473.657,516.018 473.657,514.174 C473.657,512.58 473.155,511.32 472.15,510.393 C471.144,509.466 469.772,509.002 468.032,509.002"/>
<path class="Note" fill="#ffffff" fill-rule="evenodd" d="M453.392,540.45 L483.2,540.45 L483.2,577.71 L453.392,577.71 L453.392,540.45 "/>
<path class="Note" d="M468.032,546.262 C465.751,546.262 464.183,546.864 463.329,548.067 C462.475,549.27 462.017,550.877 461.954,552.887 L457.985,552.887 C458.142,546.012 461.475,542.575 467.985,542.575 C471.017,542.575 473.394,543.351 475.118,544.903 C476.842,546.455 477.704,548.59 477.704,551.309 C477.704,554.486 476.22,556.647 473.251,557.793 C475.168,558.46 476.545,559.392 477.384,560.59 C478.222,561.788 478.642,563.418 478.642,565.481 C478.642,568.543 477.66,570.981 475.696,572.793 C473.733,574.606 471.116,575.512 467.845,575.512 C461.303,575.512 457.793,572.08 457.314,565.215 L461.282,565.215 C461.428,567.465 462.04,569.129 463.118,570.207 C464.196,571.285 465.819,571.825 467.985,571.825 C470.048,571.825 471.665,571.27 472.837,570.16 C474.009,569.051 474.595,567.507 474.595,565.528 C474.595,561.715 472.392,559.809 467.985,559.809 L466.314,559.856 L465.814,559.856 L465.814,556.168 C468.668,556.106 470.689,555.762 471.876,555.137 C473.064,554.512 473.657,553.278 473.657,551.434 C473.657,549.84 473.155,548.58 472.15,547.653 C471.144,546.726 469.772,546.262 468.032,546.262"/>
<path class="Clef" transform="matrix(0.9936,0,0,0.9936,150.282,302.4)" d="M21.2031,-130.703 C21.2031,-130.313 22.0938,-121.609 24.2031,-105.203 L27.4063,-80.4063 L27,-79.1094 C26.5,-77.5 23.7969,-70.7031 19,-59.1094 C9.59375,-36.2031 3.70313,-19.5938 1.5,-9 C0.5,-4 0,0.703125 0,5.09375 C0,10.7969 0.90625,15.9063 2.5,20.7031 C7.09375,33.5 16.4063,39.7969 32,39.7969 C34.5,39.7969 36.7031,39.5 38.9063,39 C39.9063,38.7969 40.6094,38.7031 41.4063,38.7031 C42.4063,38.7031 42.6094,39.5 42.9063,40.7969 C43.2969,42.6094 43.4063,44.5 43.4063,46.4063 C43.4063,53.5 40.4063,61.7031 37.4063,67 L36.2031,69 L36.2969,71.1094 C36.4063,73.2031 36.6094,75.1094 36.9063,76.6094 C32.6094,79.3125 29,83.8125 29,89.3125 C29,95.5 36,96.8125 36,97.9063 C36,99.4063 28.5,103.703 28.5,113.5 C28.5,114.313 29.4063,122 37.9063,122 C47.2969,122 53.6094,114.406 53.6094,106.5 C53.6094,98.5 47.1094,97 47.1094,96.2031 C47.1094,95.5 53.2969,89.2031 53.2969,83.7031 C53.2969,78.9063 51.9063,74.2969 45.7031,74 C47.6094,68.4063 49.2031,59.7969 49.2031,51.9063 C49.2031,46.9063 48.1094,39.7969 47.2969,36.6094 L47.2969,36.5 C47.2969,36.2969 47.2969,36 47.6094,35.7969 C48.7031,34.7969 52.6094,32 53.4063,31.5 C59,27.7031 65.1094,18.4063 67.2031,11.9063 C68.6094,7.59375 69.7031,1.70313 70.6094,-6.09375 C70.7969,-8.20313 71.1094,-10.2031 71.1094,-12.0938 C71.1094,-15.2969 70.7969,-18.4063 70.1094,-21.0938 C68.1094,-29.1094 63.5,-32.9063 55.9063,-32.9063 C55.1094,-32.9063 54.2031,-32.7969 53.7031,-32.7031 C48.5,-31.9063 43.6094,-29.2969 39,-25 L37.7031,-23.7969 L37.5,-25.9063 C36.1094,-35.4063 35,-48.4063 34.1094,-64.7969 L33.9063,-69 L35.5,-73.5 C40,-84.8125 42.2969,-94.3125 42.2969,-102.203 C42.2969,-117.109 36.9063,-127.703 27.5,-133.406 C26.1094,-134.203 25.5,-134.516 24.2031,-134.516 C22.5938,-134.516 21.2031,-132.203 21.2031,-130.703 M29.7969,-110.703 C30.2031,-110.703 30.5,-110.609 30.9063,-110.406 C32.5,-109.609 34,-107.813 35.2031,-104.906 C35.4063,-104.5 35.4063,-103.703 35.4063,-102.906 C35.4063,-99.9063 34.2969,-94.7031 31.9063,-86.9063 C31.7969,-86.6094 31.2031,-84.7031 31,-84.7031 C30.7969,-84.9063 30.5,-87.5 29.7969,-92.7031 C29.2969,-97.4063 28.7031,-102.313 28.7031,-107.313 L28.7031,-108.109 C28.7031,-109.703 28.7969,-110.703 29.7969,-110.703 M33.2031,-21.2969 L33.2031,-20.2969 L30.4063,-16.0938 C27.5,-12 25.5,-8.70313 24.2031,-6.29688 C20.7969,0.09375 18,7.20313 17.5,15.5 C17.4063,17.5 17.4063,18.5938 17.2969,18.5938 C16.7969,18.5938 12.9063,16.7969 12.5938,16.5938 C9.09375,14.5938 6.79688,10.5 6.79688,5.29688 C6.79688,4.5 6.90625,3.70313 7,2.79688 C8.20313,-6.40625 15.5,-25.6094 28.4063,-55 C28.6094,-55.5 29.5,-58.1094 29.7969,-58.1094 C30,-57.9063 33.2031,-21.4063 33.2031,-21.2969 M63.5,-12.7031 C63.7031,-12.4063 63.6094,-12.0938 63.6094,-11.4063 C63.6094,-6.79688 60.7969,-1.90625 55.7969,4.5 C52.6094,8.40625 49.7031,11.4063 47,13.2969 C44.7031,14.9063 43.4063,15.7969 42.7031,15.7969 C42.5,15.7969 42.2969,15.0938 42.2031,13.7969 C42,10.4063 40.7031,-2.70313 40.7031,-6.20313 C40.7031,-8.5 40.7969,-8.79688 42.2031,-10.0938 C44.6094,-12.2969 52.4063,-16.2969 56.5,-16.2969 C59.7969,-16.2969 62.6094,-14.2969 63.5,-12.7031 M37,2.70313 C37.5,7.5 38,11.2031 38.2969,13.7969 C38.6094,16.4063 38.7031,17.7969 38.7031,18 C38.7031,18.2031 37.5,18.2969 35.1094,18.7969 C31.7031,19.5 29,19.7969 27.1094,19.7969 C26.4063,19.7969 25.7969,19.9063 25.2969,19.7969 L23.5938,19.5 L23.7031,18.2031 C23.7031,16.5938 24.0938,14.5938 25,12.2969 C27.2969,6.20313 30.4063,2.09375 34.2969,-2.70313 C35.4063,-4 36,-4.59375 36.1094,-4.59375 C36.1094,-4.59375 36.5,-2.09375 37,2.70313 M42.1094,101.203 L42.2031,101.203 C43.6094,101.203 47.1094,104.5 47.1094,107.813 C47.1094,112.109 43.7969,114.203 41.2031,114.203 C38.4063,114.203 36,113.609 36,109.703 C36,106.5 40.4063,101.406 42.1094,101.203 M41.9063,93.5 C40.5,93.5 35.7969,89.7031 35.7969,88.2031 C35.7969,84.3125 39,81 42.9063,81 C46.2969,81 47.2969,82.6094 47.2969,84.7031 L47.2969,85.4063 C47.2969,89.2031 43.1094,93.5 41.9063,93.5"/>
<path class="Clef" transform="matrix(0.9936,0,0,0.9936,150.282,614.97)" d="M0,-62.7031 C0,-61.7969 0.5,-61.1094 1.40625,-60.7969 C2.20313,-60.5 3.59375,-61.4063 3.59375,-61.4063 C9.79688,-64.4063 12.7031,-66.2031 16,-67.2969 C17,-67.5 17.9063,-67.7969 18.5,-67.9063 C20.2031,-58.7969 20.9063,-50.5 20.9063,-44.9063 C20.9063,-42.2969 20.7031,-40.2969 20.5,-39 C20.5,-39 19.7969,-37.2969 20,-36.2969 C20.2031,-35.4063 20.5,-34.7031 21.4063,-34.4063 C22.2031,-34.1094 23,-34.4063 23.5938,-35 C24.7031,-36.1094 25.4063,-38.4063 25.4063,-38.4063 L25.7031,-39.7969 C25.7031,-39.7969 25.7969,-40.2031 26.1094,-42.5 L26.9063,-47.9063 C27.2969,-50.7969 27.6094,-53.2969 27.6094,-55.7969 C27.6094,-60 27,-63.7969 26.1094,-68.4063 L35.7969,-68.4063 C35.7969,-68.4063 37.4063,-68.4063 38,-69 C39.1094,-70.1094 39.4063,-71 39.7969,-72.4063 C40.4063,-74.4063 40.6094,-75.7031 40.6094,-77.8125 C40.6094,-78.9063 39.9063,-80.4063 39.9063,-80.4063 C33.2031,-80.4063 28.6094,-80.3125 25.2031,-80 C25.2031,-80 24.2031,-79.8125 23.5938,-79.9063 C23.4063,-80 23.7031,-80.4063 23.5,-80.4063 C22.5,-80.5 21.9063,-80.5 21,-80.2031 C20.7969,-80.1094 20.7969,-79.7031 20.7969,-79.7031 C13.9063,-79.1094 15.2031,-78.5 3,-72.6094 C3,-72.6094 1.59375,-70 1,-68.2031 C0.5,-66.4063 0,-65.2031 0,-63.2969 L0,-62.7031 M8.79688,19.4063 C9.90625,18.2969 10.5938,16 10.5938,16 C10.9063,14.5938 11.2969,12 12,8.90625 C24.0938,7.09375 28.9063,6.20313 31.4063,6 L31.7031,5.90625 C32.1094,8.09375 32.5,10.7969 33.2031,14.9063 C33.2031,14.9063 33.7031,16.5 34.6094,16.7969 C35.4063,17.0938 36.2031,16.7969 36.7969,16.2031 C37.9063,15.0938 38.2031,14.2031 38.6094,12.7969 C39.2031,10.7969 39.4063,7.40625 39.4063,7.40625 C38.6094,2.79688 37.9063,-0.796875 36.9063,-4.40625 L36.2031,-7 C34.6094,-12.7969 32.4063,-18.5 27.9063,-27.6094 L25.4063,-27.4063 C18.2031,-22.7969 15.2969,-16 14.2031,-13.5 L12.2031,-9 C9.29688,-2.5 7.59375,5 6.29688,12.2031 C6.29688,12.2031 5.70313,15.5 5.29688,17.5938 L5.29688,17.7031 C5.29688,17.7969 5.20313,18 5.20313,18.0938 C5.20313,18.0938 5.70313,19.7031 6.59375,20 C7.40625,20.2969 8.20313,20 8.79688,19.4063 M3.20313,39.2969 C3.20313,40.2031 3.70313,40.9063 4.59375,41.2031 C5.40625,41.5 6.79688,40.6094 6.79688,40.6094 L8.90625,39.4063 L8.79688,40.1094 C10.4063,44.9063 11.0938,49.9063 11.0938,55.2031 C11.0938,61.6094 10.0938,68.4063 8.79688,75.7031 C8.79688,75.7031 9.29688,77.3125 10.2031,77.6094 C11,77.9063 11.7969,77.6094 12.4063,77 C13.5,75.9063 14.2031,73.6094 14.2031,73.6094 C14.9063,69.5 15.5938,65.9063 16.0938,62.5 C16.0938,62.5 16.5938,59.2031 16.9063,57.1094 L16.9063,57 C17.4063,53.7969 17.7031,50.7969 17.7031,47.7031 C17.7031,44.5 17.4063,41.2031 16.5,37.6094 C17.0938,37.6094 17.7031,37.5 18.4063,37.5 C22.5,37.5 27,38.4063 30.1094,40.7969 C28.4063,42.4063 26,44.1094 23,45.7969 C23,45.7969 21.5938,48.4063 21,50.2031 C20.5,52 20,53.2031 20,55.1094 L20,55.7031 C20,56.6094 21.4063,57.6094 21.4063,57.6094 C27.7031,57.7969 31.9063,59.7031 34.2031,62.1094 C34.5,62.6094 34.7031,63.1094 34.7969,63.5 C30.9063,67.2969 27.7031,67.7031 24.2969,68.1094 C23.0938,68.1094 22,68.1094 20.7031,68 C20.7031,68 18.9063,67.5 18.2031,68.2031 C16.9063,69.6094 16.7969,70.7969 16.2031,72.6094 C15.7031,74.4063 15.2031,75.6094 15.2031,77.5 L15.2031,78.1094 C15.2031,79 16.5938,80 16.5938,80 C19.5,80.3125 20.5938,80.4063 21.2969,80.4063 C22.2031,80.4063 22.7031,80.1094 25.7969,79.3125 C25.7969,79.3125 27.1094,78.9063 28,78.7031 L28.1094,78.7031 C32.7969,77.4063 36.1094,74.7031 37.7031,71.7031 L39.5,68.2969 C39.7031,68 40.5,65.2031 40.5,65.2031 L41.2969,59.7969 C41.4063,59.4063 41.4063,59 41.4063,58.6094 C41.4063,57.9063 41.2969,57.1094 41.1094,56.4063 L40.4063,53.7969 C39.6094,50.9063 39.4063,49.7031 34.2969,47.4063 L35.7969,44.6094 C36,44.2031 36.4063,43.2031 36.6094,42.2031 C37,40.2031 37.4063,36.7969 37.4063,36.7969 C37.5,36 37.5,35.4063 37.2969,34.7031 L36.6094,32.1094 C36,29.6094 31.1094,25.5 22.4063,25.5 C21.7031,25.5 20.9063,25.5 20.0938,25.6094 L17.5938,25.7969 C11.7969,26.2969 11.9063,25.7969 6.20313,29.4063 C6.20313,29.4063 4.79688,32 4.20313,33.7969 C3.70313,35.6094 3.20313,36.7969 3.20313,38.7031 L3.20313,39.2969 M28.1094,-5.40625 C24.4063,-4.90625 22,-4.20313 15.5938,-3.20313 C16,-4.40625 16.5938,-5.5 17.0938,-6.59375 C19,-9.79688 21.2031,-12.5 23.7969,-14.5938 C25.7031,-10.5938 27.1094,-7.79688 28.1094,-5.40625"/>
<path class="KeySig" transform="matrix(0.9936,0,0,0.9936,245.761,227.88)" d="M11.7969,-39 C10.5,-39 9.5,-33.4063 9.20313,-22.2031 C9.09375,-19.7031 9.09375,-18.2969 9,-18 C8.90625,-17.7031 8.59375,-17.0938 7.79688,-16.7969 C5.29688,-15.2969 3.29688,-14.2969 2.40625,-13.4063 C1.40625,-12.4063 1,-9 0.796875,-3.59375 L0.796875,-1.70313 L0.796875,-0.796875 C0.796875,0.296875 0.90625,1.29688 1.40625,1.29688 C1.90625,1.29688 3.5,0.796875 6,-0.5 C7,-1 7.70313,-1.20313 7.79688,-1.20313 C7.90625,-1.20313 8,-0.59375 8,0.40625 L8,3.09375 C8,5.40625 7.90625,7.59375 7.20313,7.79688 C7,7.90625 5.90625,8.5 4.20313,9.40625 C1.70313,10.7031 1.5,11 0.203125,12 L0,15.4063 L0,17.7969 C0,21.4063 0.40625,24.2031 1.40625,24.2031 C1.70313,24.2031 2.59375,23.9063 4.20313,23.4063 L7.20313,22.4063 L7.20313,23.0938 C7.20313,23.4063 7.20313,25.2031 7,28.5 C6.70313,34 6.40625,38.4063 6.40625,41.7031 C6.40625,45 6.70313,46.7969 7,47.7031 C7.20313,48.4063 7.40625,48.7031 8.20313,48.7031 C8.40625,48.7031 9,48.5 9.20313,48.2969 C10.2031,46.7969 10.5,33.5 10.7031,27.2031 L11,21 C11.7969,20.2031 12.7031,19.5938 14,19.5938 C14.2031,19.5938 14.2031,20.7969 14.2031,23.0938 C14.2031,26.2969 14,31.2969 14,33.9063 L14,35.1094 C14,38.7031 14.2031,42.2969 15.5938,42.2969 C15.7969,42.2969 16,42 16.2031,41.7969 C17.7031,40.5 18,26.6094 18.0938,22.2031 L18.4063,17.5938 L22,15.2969 C24.4063,13.7031 25.7969,12.4063 26,12.0938 C26.2031,11.5938 26.2031,10.2969 26.2031,8.5 L26.2031,7.20313 C26.2031,3.90625 26.1094,-1.29688 24.7969,-1.29688 C23.5,-1.29688 22,-0.59375 20.5938,0.296875 C19.7969,0.796875 19.5938,0.90625 19.5,0.90625 L19.5,0.796875 C19.5,0.5 19.5,-1.09375 19.5938,-3.59375 L19.5938,-8.09375 L21.4063,-8.79688 C25,-10.5 27,-12.7031 27.2031,-14.2031 C27.7031,-16.7031 28,-19.2969 28,-21.9063 L28,-23.5 C28,-24.5 27.7969,-25.0938 27,-25.0938 C26.1094,-25.0938 24.5938,-24.7969 22.2031,-23.5 C21.5,-23.2969 21.2969,-22.9063 21.2031,-22.9063 C21.2031,-22.9063 21.0938,-23.0938 21.0938,-23.2031 C21.0938,-23.5 21.5938,-25 21.7969,-27.7969 C22.5938,-37.6094 22.5938,-44.7031 22.5938,-48.7969 C22.5938,-51.2969 22.0938,-55.7969 21.2031,-55.7969 C21.0938,-55.7969 20.9063,-55.5 20.5938,-55.2031 C19.2031,-53.7031 18.2969,-48.6094 18,-38.9063 C17.5,-27.7031 17,-22 16.7969,-21.2969 C16.5,-20.5 13.9063,-19.7969 13,-19.5938 L13.2031,-22.4063 L13.2031,-24.2969 L13.2031,-29 L13.2031,-31.2969 L13.2031,-33.5 C13.2031,-36.4063 13.0938,-39 11.7969,-39 M10.7031,4 C10.7031,2.70313 10.7969,0.703125 11,-1.90625 L11.2031,-3.09375 L12.2031,-3.79688 C14.5938,-5.29688 15.9063,-6.09375 16.2031,-6.09375 C16.2969,-6.09375 16.4063,-6 16.4063,-5.79688 C16.4063,-5.09375 16.2969,-3.70313 16.2031,-1.29688 L16,3.09375 L14.7969,3.90625 C14,4.20313 12,5.70313 11,5.70313 C10.7031,5.70313 10.7031,4.90625 10.7031,4"/>
<path class="TimeSig" transform="matrix(0.9936,0,0,0.9936,298.414,248.699)" d="M17.7969,24.9063 L17.7969,25 C17.7969,26.7969 18.2969,28.4063 19.2969,28.9063 C19.5938,29.1094 22,29.1094 26.4063,29.1094 L33,29.1094 C33.9063,28.2031 34.2969,27.5 34.2969,25.2969 C34.2969,22.7031 32.7031,22.2969 29.7031,22.0938 L27.7969,22 L27.7969,20.4063 C27.7969,19.0938 27.7031,17.7969 28.5,17.7969 C28.7969,17.7969 29.1094,17.9063 29.4063,17.9063 C32,17.9063 37,13.4063 37,10.5938 C37,9.29688 36.1094,8.40625 35.2969,7.5 L33.6094,8.40625 C32.4063,9 31.4063,9.29688 30.6094,9.29688 C29.4063,9.29688 28.9063,9.09375 28.2031,8.79688 L28.2969,0.796875 C28.2969,-2.29688 28.4063,-5.29688 28.4063,-7.90625 C28.4063,-15.4063 28.2031,-20.7969 27.7969,-24 C27.6094,-25.4063 27.1094,-26.7969 26.2031,-28 C25.6094,-28.7031 25.0938,-29.1094 24.7031,-29.1094 C23.4063,-29.1094 22.5938,-27.7969 22,-26.7031 C18.2031,-19.9063 13.7031,-12.2031 8.29688,-3.59375 C7.40625,-2.09375 6.79688,-1.29688 6.5,-1 C6.20313,-0.703125 5.79688,-0.40625 5.20313,-0.09375 C2.40625,1.20313 0,5.09375 0,9.59375 C0,10.7969 0.703125,12.4063 1.70313,12.4063 C2,12.4063 2.29688,12.0938 2.70313,11.7031 C3.40625,11 6.20313,7.40625 7.09375,6.90625 C7.29688,6.79688 7.59375,6.70313 7.79688,6.70313 C8,6.70313 8.09375,6.70313 8.29688,6.79688 C8.70313,7 9.70313,7.79688 11.2031,9.09375 C14.2031,11.5938 16.2031,13.2031 17.5,14.0938 C18.7969,15 20.2969,15.7969 22,16.5938 L23.4063,17.2031 L23.4063,18.5 L23.4063,19.2031 C23.4063,19.7031 23.4063,20.2969 23.2969,20.7969 L23.2031,22 L21.2031,22 L20.2969,22 C18.0938,22 17.7969,22.2031 17.7969,24.9063 M23.5938,-3.90625 L23.5,6.70313 L20.4063,3.90625 C17.2969,1.20313 15.2031,-0.5 14,-1 C13.7031,-1.20313 13.0938,-1.29688 13.0938,-1.59375 L13.0938,-1.70313 C13.5938,-2.5 21.5,-15.4063 22,-16.2031 L23.4063,-18.4063 L23.5,-16.5 C23.5938,-15.5 23.5938,-12.9063 23.5938,-8.70313 L23.5938,-3.90625 "/>
<path class="TimeSig" transform="matrix(0.9936,0,0,0.9936,298.414,306.421)" d="M17.7969,24.9063 L17.7969,25 C17.7969,26.7969 18.2969,28.4063 19.2969,28.9063 C19.5938,29.1094 22,29.1094 26.4063,29.1094 L33,29.1094 C33.9063,28.2031 34.2969,27.5 34.2969,25.2969 C34.2969,22.7031 32.7031,22.2969 29.7031,22.0938 L27.7969,22 L27.7969,20.4063 C27.7969,19.0938 27.7031,17.7969 28.5,17.7969 C28.7969,17.7969 29.1094,17.9063 29.4063,17.9063 C32,17.9063 37,13.4063 37,10.5938 C37,9.29688 36.1094,8.40625 35.2969,7.5 L33.6094,8.40625 C32.4063,9 31.4063,9.29688 30.6094,9.29688 C29.4063,9.29688 28.9063,9.09375 28.2031,8.79688 L28.2969,0.796875 C28.2969,-2.29688 28.4063,-5.29688 28.4063,-7.90625 C28.4063,-15.4063 28.2031,-20.7969 27.7969,-24 C27.6094,-25.4063 27.1094,-26.7969 26.2031,-28 C25.6094,-28.7031 25.0938,-29.1094 24.7031,-29.1094 C23.4063,-29.1094 22.5938,-27.7969 22,-26.7031 C18.2031,-19.9063 13.7031,-12.2031 8.29688,-3.59375 C7.40625,-2.09375 6.79688,-1.29688 6.5,-1 C6.20313,-0.703125 5.79688,-0.40625 5.20313,-0.09375 C2.40625,1.20313 0,5.09375 0,9.59375 C0,10.7969 0.703125,12.4063 1.70313,12.4063 C2,12.4063 2.29688,12.0938 2.70313,11.7031 C3.40625,11 6.20313,7.40625 7.09375,6.90625 C7.29688,6.79688 7.59375,6.70313 7.79688,6.70313 C8,6.70313 8.09375,6.70313 8.29688,6.79688 C8.70313,7 9.70313,7.79688 11.2031,9.09375 C14.2031,11.5938 16.2031,13.2031 17.5,14.0938 C18.7969,15 20.2969,15.7969 22,16.5938 L23.4063,17.2031 L23.4063,18.5 L23.4063,19.2031 C23.4063,19.7031 23.4063,20.2969 23.2969,20.7969 L23.2031,22 L21.2031,22 L20.2969,22 C18.0938,22 17.7969,22.2031 17.7969,24.9063 M23.5938,-3.90625 L23.5,6.70313 L20.4063,3.90625 C17.2969,1.20313 15.2031,-0.5 14,-1 C13.7031,-1.20313 13.0938,-1.29688 13.0938,-1.59375 L13.0938,-1.70313 C13.5938,-2.5 21.5,-15.4063 22,-16.2031 L23.4063,-18.4063 L23.5,-16.5 C23.5938,-15.5 23.5938,-12.9063 23.5938,-8.70313 L23.5938,-3.90625 "/>
<path class="Harmony" d="M463.869,105.632 C462.713,105.632 461.369,105.679 459.916,105.773 C459.666,105.835 459.26,105.835 458.619,105.882 C458.369,105.929 458.01,105.882 457.51,105.726 C457.119,105.632 456.822,105.476 456.619,105.273 C456.322,105.023 456.119,104.523 455.963,103.835 C455.869,103.226 455.822,102.57 455.822,101.882 L455.822,101.523 C455.822,101.07 455.869,100.32 455.916,99.2727 C455.963,98.6321 456.072,98.0696 456.119,97.5227 C456.166,97.179 456.322,96.8821 456.572,96.6321 C456.822,96.3821 457.119,96.2259 457.463,96.179 C457.822,96.1321 458.166,96.179 458.463,96.179 C458.76,96.179 459.213,96.2259 459.666,96.2727 C460.119,96.3196 460.463,96.3196 460.666,96.3196 L461.463,96.3196 C462.369,96.3196 463.619,96.3196 465.26,96.429 C466.916,96.4759 468.322,96.5227 469.369,96.5227 L470.322,96.5227 C470.51,96.5227 470.869,96.5696 471.26,96.5696 L472.26,96.5696 C472.51,96.5696 472.822,96.5696 473.166,96.4759 C473.51,96.3821 473.76,96.2259 474.01,96.0696 C474.416,95.8196 474.713,95.3821 474.963,94.7259 C475.213,94.0696 475.369,93.429 475.369,92.8196 L475.369,92.6321 C475.369,92.0696 475.275,91.5696 475.01,91.0696 C474.76,90.5227 474.322,90.179 473.76,90.0227 C473.119,89.8196 472.322,89.7259 471.463,89.7259 L470.963,89.7259 C470.213,89.7259 469.416,89.7727 468.51,89.8196 C467.416,89.8821 466.619,89.929 466.166,89.929 C465.322,89.929 464.26,89.8821 462.963,89.7727 C461.666,89.679 460.51,89.6321 459.51,89.5696 C458.713,89.5227 457.869,89.5696 456.916,89.5696 L456.213,89.5696 C454.869,89.5696 453.822,89.6321 452.963,89.7727 C452.619,89.8196 452.322,89.9759 452.072,90.1321 C451.822,90.2727 451.666,90.4759 451.463,90.7259 C451.26,90.9759 451.072,91.2727 450.963,91.6321 C450.869,91.9759 450.822,92.3196 450.76,92.6321 C450.713,92.929 450.666,93.3196 450.619,93.7727 C450.572,94.2259 450.572,94.5696 450.572,94.8821 C450.572,95.179 450.619,95.5227 450.619,95.9759 L450.619,96.929 C450.619,103.179 450.572,107.429 450.463,109.679 C450.416,111.085 450.322,112.929 450.26,115.273 C450.166,117.523 450.119,119.085 450.119,119.976 C450.166,120.382 450.166,120.632 450.166,120.773 C450.26,121.429 450.322,122.085 450.322,122.679 C450.322,123.023 450.322,123.335 450.26,123.585 C450.213,123.632 450.26,123.929 450.26,124.476 L450.26,126.835 C450.213,127.585 450.51,128.023 451.072,128.226 C451.572,128.382 451.869,128.476 451.916,128.476 L452.119,128.476 C453.213,128.226 453.963,127.976 454.416,127.679 C454.963,127.273 455.369,126.773 455.619,126.179 C455.869,125.585 456.01,124.882 456.072,124.132 C456.119,123.835 456.119,123.476 456.119,123.132 C456.166,122.679 456.119,122.179 456.072,121.726 C455.916,120.726 455.822,119.882 455.76,119.179 C455.666,117.882 455.619,117.023 455.572,116.679 C455.51,116.429 455.51,116.226 455.51,115.976 C455.51,115.429 455.572,114.929 455.666,114.429 C455.822,113.679 456.072,113.085 456.416,112.585 C456.572,112.382 456.713,112.179 456.963,112.085 C457.213,111.976 457.51,111.929 457.76,111.882 C458.01,111.835 458.322,111.773 458.666,111.773 C459.01,111.773 459.322,111.773 459.572,111.835 L460.463,111.929 C460.51,111.976 460.869,112.023 461.463,112.023 L463.213,111.976 C463.369,111.976 464.416,112.023 466.369,112.085 L466.822,112.085 C467.869,112.085 468.916,111.929 470.072,111.679 C470.322,111.632 470.572,111.179 470.916,110.335 C471.213,109.585 471.369,109.023 471.369,108.585 L471.369,108.226 C471.369,107.773 471.26,107.335 471.072,106.882 C470.822,106.335 470.369,105.976 469.822,105.835 L467.963,105.835 L466.916,105.835 C465.463,105.679 464.463,105.632 463.916,105.632 L463.869,105.632 "/>
<path class="Harmony" d="M487.182,91.8534 C487.182,91.2597 487.244,90.6972 487.338,90.1034 C487.432,89.5097 487.588,88.9003 487.791,88.3066 C487.994,87.6972 488.338,87.1972 488.744,86.7597 C489.135,86.3066 489.588,85.9003 490.135,85.6503 C490.494,85.5097 490.885,85.4003 491.385,85.3066 C491.885,85.1972 492.432,85.1034 492.885,85.0097 C493.338,84.9003 493.744,84.6503 494.088,84.4003 L494.682,83.8066 C494.885,83.6034 495.135,83.3066 495.338,83.0097 C495.541,82.6972 495.682,82.4003 495.838,82.1034 C495.994,81.8066 496.041,81.5097 495.994,81.1972 C495.932,80.9003 495.744,80.6503 495.494,80.4003 C495.135,80.1503 494.682,80.0097 494.182,79.9472 C494.135,79.9003 494.041,79.9003 493.994,79.9003 C493.541,79.9472 493.135,80.0097 492.744,80.1503 C492.244,80.3066 491.682,80.5097 491.135,80.8534 C490.588,81.1972 490.135,81.4472 489.791,81.6972 C489.432,81.9472 489.041,82.2597 488.682,82.5566 C487.885,83.1972 487.135,84.0566 486.385,85.0097 C485.635,85.9472 484.885,86.9472 484.291,88.1034 C483.682,89.2597 483.182,90.4003 482.838,91.5566 C482.541,92.6034 482.385,93.6503 482.385,94.7128 L482.385,95.1034 C482.385,96.3534 482.682,97.4003 483.244,98.3534 C483.885,99.4003 484.682,100.26 485.494,100.853 C486.291,101.463 487.135,101.807 487.994,101.853 L488.541,101.853 C489.291,101.807 489.994,101.713 490.682,101.51 C491.588,101.26 492.432,100.807 493.244,100.213 C494.041,99.6034 494.791,99.0097 495.494,98.2128 C496.182,97.4003 496.682,96.5566 497.135,95.7128 C497.182,95.5097 497.291,95.2128 497.494,94.8534 C497.682,94.5097 497.838,94.2128 497.932,94.0097 C498.041,93.8066 498.135,93.5097 498.291,93.1503 C498.432,92.8066 498.494,92.5097 498.541,92.2597 L498.541,91.7597 L498.541,91.3534 C498.494,91.0097 498.432,90.6972 498.338,90.4003 C498.088,89.7597 497.791,89.1972 497.432,88.7597 C497.088,88.3066 496.744,88.0097 496.385,87.7597 C496.041,87.5097 495.682,87.3534 495.291,87.3066 C494.885,87.2597 494.494,87.3066 494.088,87.3534 C493.682,87.4003 493.244,87.5566 492.791,87.7597 C492.338,87.9472 491.932,88.1972 491.588,88.4003 C491.244,88.6034 490.838,88.8534 490.385,89.1972 C489.932,89.5566 489.541,89.9003 489.244,90.1503 C488.932,90.4003 488.588,90.7597 488.135,91.1034 C487.682,91.4472 487.385,91.6972 487.182,91.8534 M488.682,94.2597 C488.791,94.2128 488.885,94.0566 489.088,93.8534 C489.291,93.6503 489.494,93.5097 489.682,93.3534 C489.885,93.1972 490.041,93.1034 490.182,93.0566 C490.682,92.8066 491.135,92.6972 491.494,92.6972 C491.838,92.6503 492.135,92.7597 492.385,92.9003 C492.932,93.2597 493.182,93.8534 493.244,94.7128 L493.244,95.0097 C493.244,95.6503 493.041,96.1034 492.588,96.4628 C492.338,96.6503 492.041,96.7597 491.744,96.7597 C491.088,96.7597 490.385,96.4003 489.588,95.7128 C489.244,95.4628 488.932,94.9628 488.682,94.2597"/>
<path class="Harmony" d="M486.416,124.4 C486.525,124.463 486.635,124.619 486.822,124.807 C486.994,124.978 487.15,125.166 487.26,125.322 C487.369,125.463 487.525,125.541 487.697,125.619 C487.822,125.65 487.932,125.682 488.041,125.682 C488.104,125.682 488.182,125.682 488.26,125.65 C488.447,125.619 488.775,125.51 489.229,125.322 C489.666,125.135 490.041,124.76 490.291,124.275 C491.072,122.291 492.885,118.072 495.807,111.666 C498.354,106.072 499.885,102.744 500.354,101.603 C500.916,100.447 501.541,99.0097 502.275,97.2753 C502.322,97.2284 502.4,96.8691 502.51,96.2284 C502.619,95.6034 502.76,95.0878 502.947,94.6816 C502.979,94.4941 502.979,94.3066 503.025,94.1191 C503.057,93.9472 503.135,93.8222 503.166,93.7128 C503.213,93.6034 503.244,93.4941 503.275,93.4159 C503.322,93.3534 503.322,93.2753 503.322,93.1972 C503.322,93.1191 503.354,93.0566 503.4,93.0097 C503.432,92.9784 503.432,92.9472 503.432,92.9003 C503.432,92.8691 503.432,92.8691 503.463,92.8378 L503.51,92.7909 L503.51,92.7597 L503.51,92.6816 C503.51,91.6816 503.275,90.8691 502.838,90.2753 C502.541,89.8691 502.213,89.6503 501.807,89.6503 C501.619,89.6503 501.463,89.6816 501.291,89.7597 C500.4,90.1347 499.619,91.3847 498.916,93.5409 L486.416,124.4 "/>
<path class="Harmony" d="M503.479,127.657 C502.635,129.61 502.182,132.016 502.041,134.813 C501.979,135.063 501.979,135.266 501.979,135.454 C502.041,136.516 502.182,137.11 502.541,137.157 C502.729,137.204 502.932,137.204 503.088,137.204 C503.729,137.204 504.291,136.954 504.791,136.407 C505.182,136.063 505.479,135.657 505.682,135.266 C505.838,135.11 505.932,134.61 506.088,133.657 C506.182,133.063 506.229,132.657 506.182,132.454 C506.135,132.266 506.088,131.907 506.135,131.313 C506.182,130.704 506.229,130.266 506.291,129.907 C506.432,129.266 506.635,128.657 506.885,128.016 C507.182,127.251 507.541,126.563 507.885,125.86 C508.229,125.157 508.635,124.407 508.979,123.563 C509.338,122.704 509.635,121.954 509.885,121.204 C510.135,120.454 510.338,119.751 510.385,119.001 C510.432,118.86 510.432,118.704 510.432,118.563 C510.432,118.001 510.338,117.501 510.182,117.063 C510.041,116.501 509.588,115.954 508.932,115.501 C508.291,115.063 507.479,114.704 506.432,114.501 C505.729,114.36 505.041,114.251 504.385,114.251 C500.979,114.313 498.291,116.407 496.229,120.563 C495.979,121.063 495.791,121.563 495.588,122.063 C495.385,122.563 495.291,123.11 495.229,123.704 C495.182,124.001 495.182,124.313 495.182,124.61 C495.182,124.86 495.182,125.11 495.229,125.36 C495.338,125.907 495.541,126.313 495.885,126.563 C496.229,126.813 496.682,127.063 497.229,127.407 C497.682,127.657 498.229,127.86 498.791,127.954 C499.338,128.063 499.885,128.063 500.291,128.063 C500.682,128.063 501.291,127.954 501.979,127.86 C502.682,127.751 503.182,127.704 503.479,127.657 M501.541,119.36 C501.682,119.313 501.838,119.313 501.979,119.313 L502.432,119.313 L502.588,119.313 C503.588,119.313 504.432,119.61 505.182,120.157 C505.791,120.61 506.088,121.11 506.088,121.61 C506.088,121.704 506.088,121.813 506.041,121.907 C505.838,122.704 504.932,123.251 503.338,123.563 C503.182,123.61 503.088,123.61 502.979,123.61 C502.885,123.657 502.791,123.657 502.635,123.657 C501.729,123.657 500.932,123.36 500.229,122.704 C499.682,122.204 499.385,121.657 499.385,121.11 C499.432,121.063 499.432,120.954 499.432,120.86 C499.588,120.063 500.291,119.563 501.541,119.36"/>
</svg>
